<?xml version="1.0" encoding="UTF-8" standalone="no"?>
<!DOCTYPE svg PUBLIC "-//W3C//DTD SVG 1.1//EN"
 "http://www.w3.org/Graphics/SVG/1.1/DTD/svg11.dtd">
<!-- Generated by graphviz version 2.38.0 (20140413.2041)
 -->
<!-- Title: G Pages: 1 -->
<svg width="951pt" height="535pt"
 viewBox="0.00 0.00 951.20 534.70" xmlns="http://www.w3.org/2000/svg" xmlns:xlink="http://www.w3.org/1999/xlink">
<g id="graph0" class="graph" transform="scale(1 1) rotate(0) translate(21.6 513.096)">
<title>G</title>
<polygon fill="#111111" stroke="none" points="-21.6,21.6 -21.6,-513.096 929.6,-513.096 929.6,21.6 -21.6,21.6"/>
<!-- cli/availableMoves.ts -->
<g id="node1" class="node"><title>cli/availableMoves.ts</title>
<path fill="none" stroke="#c6c5fe" d="M142.833,-334.296C142.833,-334.296 12.1667,-334.296 12.1667,-334.296 8.33333,-334.296 4.5,-330.463 4.5,-326.63 4.5,-326.63 4.5,-318.963 4.5,-318.963 4.5,-315.13 8.33333,-311.296 12.1667,-311.296 12.1667,-311.296 142.833,-311.296 142.833,-311.296 146.667,-311.296 150.5,-315.13 150.5,-318.963 150.5,-318.963 150.5,-326.63 150.5,-326.63 150.5,-330.463 146.667,-334.296 142.833,-334.296"/>
<text text-anchor="middle" x="77.5" y="-319.096" font-family="Arial" font-size="14.00" fill="#c6c5fe">cli/availableMoves.ts</text>
</g>
<!-- cli/showBoard.ts -->
<g id="node2" class="node"><title>cli/showBoard.ts</title>
<path fill="none" stroke="#c6c5fe" d="M325.833,-412.296C325.833,-412.296 221.167,-412.296 221.167,-412.296 217.333,-412.296 213.5,-408.463 213.5,-404.63 213.5,-404.63 213.5,-396.963 213.5,-396.963 213.5,-393.13 217.333,-389.296 221.167,-389.296 221.167,-389.296 325.833,-389.296 325.833,-389.296 329.667,-389.296 333.5,-393.13 333.5,-396.963 333.5,-396.963 333.5,-404.63 333.5,-404.63 333.5,-408.463 329.667,-412.296 325.833,-412.296"/>
<text text-anchor="middle" x="273.5" y="-397.096" font-family="Arial" font-size="14.00" fill="#c6c5fe">cli/showBoard.ts</text>
</g>
<!-- cli/availableMoves.ts&#45;&gt;cli/showBoard.ts -->
<g id="edge1" class="edge"><title>cli/availableMoves.ts&#45;&gt;cli/showBoard.ts</title>
<path fill="none" stroke="#757575" d="M107.125,-334.306C140.795,-347.843 196.829,-370.372 234.211,-385.402"/>
<polygon fill="#757575" stroke="#757575" points="233.173,-388.757 243.757,-389.24 235.785,-382.262 233.173,-388.757"/>
</g>
<!-- primitives/Game.ts -->
<g id="node3" class="node"><title>primitives/Game.ts</title>
<path fill="none" stroke="#c6c5fe" d="M533.333,-294.296C533.333,-294.296 414.667,-294.296 414.667,-294.296 410.833,-294.296 407,-290.463 407,-286.63 407,-286.63 407,-278.963 407,-278.963 407,-275.13 410.833,-271.296 414.667,-271.296 414.667,-271.296 533.333,-271.296 533.333,-271.296 537.167,-271.296 541,-275.13 541,-278.963 541,-278.963 541,-286.63 541,-286.63 541,-290.463 537.167,-294.296 533.333,-294.296"/>
<text text-anchor="middle" x="474" y="-279.096" font-family="Arial" font-size="14.00" fill="#c6c5fe">primitives/Game.ts</text>
</g>
<!-- cli/availableMoves.ts&#45;&gt;primitives/Game.ts -->
<g id="edge2" class="edge"><title>cli/availableMoves.ts&#45;&gt;primitives/Game.ts</title>
<path fill="none" stroke="#757575" d="M150.556,-319.53C206.679,-316.521 286.471,-311.224 356,-302.796 371.103,-300.966 387.226,-298.528 402.524,-295.985"/>
<polygon fill="#757575" stroke="#757575" points="403.165,-299.426 412.439,-294.304 401.995,-292.524 403.165,-299.426"/>
</g>
<!-- primitives/initialGame.ts -->
<g id="node4" class="node"><title>primitives/initialGame.ts</title>
<path fill="none" stroke="#c6c5fe" d="M348.333,-294.296C348.333,-294.296 198.667,-294.296 198.667,-294.296 194.833,-294.296 191,-290.463 191,-286.63 191,-286.63 191,-278.963 191,-278.963 191,-275.13 194.833,-271.296 198.667,-271.296 198.667,-271.296 348.333,-271.296 348.333,-271.296 352.167,-271.296 356,-275.13 356,-278.963 356,-278.963 356,-286.63 356,-286.63 356,-290.463 352.167,-294.296 348.333,-294.296"/>
<text text-anchor="middle" x="273.5" y="-279.096" font-family="Arial" font-size="14.00" fill="#c6c5fe">primitives/initialGame.ts</text>
</g>
<!-- cli/availableMoves.ts&#45;&gt;primitives/initialGame.ts -->
<g id="edge3" class="edge"><title>cli/availableMoves.ts&#45;&gt;primitives/initialGame.ts</title>
<path fill="none" stroke="#757575" d="M134.353,-311.28C156.978,-306.615 183.269,-301.195 206.806,-296.342"/>
<polygon fill="#757575" stroke="#757575" points="207.619,-299.748 216.706,-294.3 206.205,-292.892 207.619,-299.748"/>
</g>
<!-- primitives/Board.ts -->
<g id="node6" class="node"><title>primitives/Board.ts</title>
<path fill="none" stroke="#c6c5fe" d="M718.333,-332.296C718.333,-332.296 599.667,-332.296 599.667,-332.296 595.833,-332.296 592,-328.463 592,-324.63 592,-324.63 592,-316.963 592,-316.963 592,-313.13 595.833,-309.296 599.667,-309.296 599.667,-309.296 718.333,-309.296 718.333,-309.296 722.167,-309.296 726,-313.13 726,-316.963 726,-316.963 726,-324.63 726,-324.63 726,-328.463 722.167,-332.296 718.333,-332.296"/>
<text text-anchor="middle" x="659" y="-317.096" font-family="Arial" font-size="14.00" fill="#c6c5fe">primitives/Board.ts</text>
</g>
<!-- cli/showBoard.ts&#45;&gt;primitives/Board.ts -->
<g id="edge11" class="edge"><title>cli/showBoard.ts&#45;&gt;primitives/Board.ts</title>
<path fill="none" stroke="#757575" d="M320.487,-389.233C332.394,-385.41 344.963,-380.612 356,-374.796 373.933,-365.348 373.17,-354.301 392,-346.796 452.64,-322.63 526.963,-317.172 581.616,-317.159"/>
<polygon fill="#757575" stroke="#757575" points="581.909,-320.661 591.93,-317.221 581.951,-313.661 581.909,-320.661"/>
</g>
<!-- cli/strings.ts -->
<g id="node9" class="node"><title>cli/strings.ts</title>
<path fill="none" stroke="#cfffac" d="M511.833,-412.296C511.833,-412.296 436.167,-412.296 436.167,-412.296 432.333,-412.296 428.5,-408.463 428.5,-404.63 428.5,-404.63 428.5,-396.963 428.5,-396.963 428.5,-393.13 432.333,-389.296 436.167,-389.296 436.167,-389.296 511.833,-389.296 511.833,-389.296 515.667,-389.296 519.5,-393.13 519.5,-396.963 519.5,-396.963 519.5,-404.63 519.5,-404.63 519.5,-408.463 515.667,-412.296 511.833,-412.296"/>
<text text-anchor="middle" x="474" y="-397.096" font-family="Arial" font-size="14.00" fill="#cfffac">cli/strings.ts</text>
</g>
<!-- cli/showBoard.ts&#45;&gt;cli/strings.ts -->
<g id="edge10" class="edge"><title>cli/showBoard.ts&#45;&gt;cli/strings.ts</title>
<path fill="none" stroke="#757575" d="M333.519,-400.796C360.356,-400.796 391.916,-400.796 418.222,-400.796"/>
<polygon fill="#757575" stroke="#757575" points="418.397,-404.297 428.397,-400.796 418.397,-397.297 418.397,-404.297"/>
</g>
<!-- primitives/Piece.ts -->
<g id="node10" class="node"><title>primitives/Piece.ts</title>
<path fill="none" stroke="#cfffac" d="M893.333,-291.296C893.333,-291.296 776.667,-291.296 776.667,-291.296 772.833,-291.296 769,-287.463 769,-283.63 769,-283.63 769,-275.963 769,-275.963 769,-272.13 772.833,-268.296 776.667,-268.296 776.667,-268.296 893.333,-268.296 893.333,-268.296 897.167,-268.296 901,-272.13 901,-275.963 901,-275.963 901,-283.63 901,-283.63 901,-287.463 897.167,-291.296 893.333,-291.296"/>
<text text-anchor="middle" x="835" y="-276.096" font-family="Arial" font-size="14.00" fill="#cfffac">primitives/Piece.ts</text>
</g>
<!-- cli/showBoard.ts&#45;&gt;primitives/Piece.ts -->
<g id="edge12" class="edge"><title>cli/showBoard.ts&#45;&gt;primitives/Piece.ts</title>
<path fill="none" stroke="#757575" d="M333.558,-389.52C352.215,-386.152 372.935,-382.611 392,-379.796 539.851,-357.973 593.66,-410.24 726,-340.796 747.473,-329.529 741.462,-312.69 762,-299.796 764.472,-298.244 767.066,-296.811 769.741,-295.487"/>
<polygon fill="#757575" stroke="#757575" points="771.333,-298.61 779.09,-291.394 768.525,-292.198 771.333,-298.61"/>
</g>
<!-- primitives/Game.ts&#45;&gt;primitives/Board.ts -->
<g id="edge22" class="edge"><title>primitives/Game.ts&#45;&gt;primitives/Board.ts</title>
<path fill="none" stroke="#757575" d="M530.403,-294.301C550.021,-298.374 572.275,-302.996 592.643,-307.225"/>
<polygon fill="#757575" stroke="#757575" points="591.967,-310.659 602.47,-309.266 593.391,-303.806 591.967,-310.659"/>
</g>
<!-- primitives/Move.ts -->
<g id="node7" class="node"><title>primitives/Move.ts</title>
<path fill="none" stroke="#c6c5fe" d="M716.333,-291.296C716.333,-291.296 601.667,-291.296 601.667,-291.296 597.833,-291.296 594,-287.463 594,-283.63 594,-283.63 594,-275.963 594,-275.963 594,-272.13 597.833,-268.296 601.667,-268.296 601.667,-268.296 716.333,-268.296 716.333,-268.296 720.167,-268.296 724,-272.13 724,-275.963 724,-275.963 724,-283.63 724,-283.63 724,-287.463 720.167,-291.296 716.333,-291.296"/>
<text text-anchor="middle" x="659" y="-276.096" font-family="Arial" font-size="14.00" fill="#c6c5fe">primitives/Move.ts</text>
</g>
<!-- primitives/Game.ts&#45;&gt;primitives/Move.ts -->
<g id="edge23" class="edge"><title>primitives/Game.ts&#45;&gt;primitives/Move.ts</title>
<path fill="none" stroke="#757575" d="M541.067,-281.713C554.908,-281.486 569.591,-281.246 583.708,-281.014"/>
<polygon fill="#757575" stroke="#757575" points="583.926,-284.511 593.867,-280.848 583.811,-277.512 583.926,-284.511"/>
</g>
<!-- primitives/Position.ts -->
<g id="node8" class="node"><title>primitives/Position.ts</title>
<path fill="none" stroke="#cfffac" d="M900.333,-332.296C900.333,-332.296 769.667,-332.296 769.667,-332.296 765.833,-332.296 762,-328.463 762,-324.63 762,-324.63 762,-316.963 762,-316.963 762,-313.13 765.833,-309.296 769.667,-309.296 769.667,-309.296 900.333,-309.296 900.333,-309.296 904.167,-309.296 908,-313.13 908,-316.963 908,-316.963 908,-324.63 908,-324.63 908,-328.463 904.167,-332.296 900.333,-332.296"/>
<text text-anchor="middle" x="835" y="-317.096" font-family="Arial" font-size="14.00" fill="#cfffac">primitives/Position.ts</text>
</g>
<!-- primitives/Game.ts&#45;&gt;primitives/Position.ts -->
<g id="edge25" class="edge"><title>primitives/Game.ts&#45;&gt;primitives/Position.ts</title>
<path fill="none" stroke="#757575" d="M491.879,-294.312C513.806,-308.508 553.812,-331.851 592,-340.796 655.745,-355.729 731.209,-345.184 780.714,-334.577"/>
<polygon fill="#757575" stroke="#757575" points="781.559,-337.975 790.564,-332.393 780.043,-331.141 781.559,-337.975"/>
</g>
<!-- primitives/Game.ts&#45;&gt;primitives/Piece.ts -->
<g id="edge24" class="edge"><title>primitives/Game.ts&#45;&gt;primitives/Piece.ts</title>
<path fill="none" stroke="#757575" d="M536.893,-271.18C543.609,-268.644 550.127,-265.556 556,-261.796 577.281,-248.175 569.167,-228.617 592,-217.796 645.819,-192.293 668.455,-202.453 726,-217.796 758.171,-226.374 790.719,-247.068 811.548,-262.197"/>
<polygon fill="#757575" stroke="#757575" points="809.613,-265.12 819.723,-268.289 813.796,-259.507 809.613,-265.12"/>
</g>
<!-- utils.ts -->
<g id="node13" class="node"><title>utils.ts</title>
<path fill="none" stroke="#cfffac" d="M679.333,-250.296C679.333,-250.296 638.667,-250.296 638.667,-250.296 634.833,-250.296 631,-246.463 631,-242.63 631,-242.63 631,-234.963 631,-234.963 631,-231.13 634.833,-227.296 638.667,-227.296 638.667,-227.296 679.333,-227.296 679.333,-227.296 683.167,-227.296 687,-231.13 687,-234.963 687,-234.963 687,-242.63 687,-242.63 687,-246.463 683.167,-250.296 679.333,-250.296"/>
<text text-anchor="middle" x="659" y="-235.096" font-family="Arial" font-size="14.00" fill="#cfffac">utils.ts</text>
</g>
<!-- primitives/Game.ts&#45;&gt;utils.ts -->
<g id="edge26" class="edge"><title>primitives/Game.ts&#45;&gt;utils.ts</title>
<path fill="none" stroke="#757575" d="M523.081,-271.236C553.734,-263.866 592.849,-254.461 621.062,-247.678"/>
<polygon fill="#757575" stroke="#757575" points="622.022,-251.047 630.927,-245.306 620.386,-244.241 622.022,-251.047"/>
</g>
<!-- primitives/initialGame.ts&#45;&gt;primitives/Game.ts -->
<g id="edge30" class="edge"><title>primitives/initialGame.ts&#45;&gt;primitives/Game.ts</title>
<path fill="none" stroke="#757575" d="M356.097,-282.796C369.56,-282.796 383.471,-282.796 396.796,-282.796"/>
<polygon fill="#757575" stroke="#757575" points="396.854,-286.297 406.854,-282.796 396.854,-279.297 396.854,-286.297"/>
</g>
<!-- primitives/initialBoard.ts -->
<g id="node12" class="node"><title>primitives/initialBoard.ts</title>
<path fill="none" stroke="#c6c5fe" d="M548.333,-253.296C548.333,-253.296 399.667,-253.296 399.667,-253.296 395.833,-253.296 392,-249.463 392,-245.63 392,-245.63 392,-237.963 392,-237.963 392,-234.13 395.833,-230.296 399.667,-230.296 399.667,-230.296 548.333,-230.296 548.333,-230.296 552.167,-230.296 556,-234.13 556,-237.963 556,-237.963 556,-245.63 556,-245.63 556,-249.463 552.167,-253.296 548.333,-253.296"/>
<text text-anchor="middle" x="474" y="-238.096" font-family="Arial" font-size="14.00" fill="#c6c5fe">primitives/initialBoard.ts</text>
</g>
<!-- primitives/initialGame.ts&#45;&gt;primitives/initialBoard.ts -->
<g id="edge31" class="edge"><title>primitives/initialGame.ts&#45;&gt;primitives/initialBoard.ts</title>
<path fill="none" stroke="#757575" d="M330.322,-271.267C354.208,-266.333 382.274,-260.536 407.165,-255.395"/>
<polygon fill="#757575" stroke="#757575" points="408.169,-258.761 417.254,-253.311 406.753,-251.906 408.169,-258.761"/>
</g>
<!-- cli/interactiveMoves.ts -->
<g id="node5" class="node"><title>cli/interactiveMoves.ts</title>
<path fill="none" stroke="#c6c5fe" d="M147.333,-432.296C147.333,-432.296 7.66667,-432.296 7.66667,-432.296 3.83333,-432.296 0,-428.463 0,-424.63 0,-424.63 0,-416.963 0,-416.963 0,-413.13 3.83333,-409.296 7.66667,-409.296 7.66667,-409.296 147.333,-409.296 147.333,-409.296 151.167,-409.296 155,-413.13 155,-416.963 155,-416.963 155,-424.63 155,-424.63 155,-428.463 151.167,-432.296 147.333,-432.296"/>
<text text-anchor="middle" x="77.5" y="-417.096" font-family="Arial" font-size="14.00" fill="#c6c5fe">cli/interactiveMoves.ts</text>
</g>
<!-- cli/interactiveMoves.ts&#45;&gt;cli/showBoard.ts -->
<g id="edge4" class="edge"><title>cli/interactiveMoves.ts&#45;&gt;cli/showBoard.ts</title>
<path fill="none" stroke="#757575" d="M155.174,-412.892C171.073,-411.253 187.735,-409.535 203.345,-407.926"/>
<polygon fill="#757575" stroke="#757575" points="203.845,-411.393 213.433,-406.886 203.127,-404.43 203.845,-411.393"/>
</g>
<!-- cli/interactiveMoves.ts&#45;&gt;primitives/Game.ts -->
<g id="edge6" class="edge"><title>cli/interactiveMoves.ts&#45;&gt;primitives/Game.ts</title>
<path fill="none" stroke="#757575" d="M109.456,-409.253C132.007,-400.907 163.324,-389.45 191,-379.796 263.987,-354.337 282.951,-350.079 356,-324.796 381.227,-316.065 409.391,-305.966 431.764,-297.859"/>
<polygon fill="#757575" stroke="#757575" points="433.083,-301.104 441.288,-294.402 430.694,-294.524 433.083,-301.104"/>
</g>
<!-- cli/interactiveMoves.ts&#45;&gt;primitives/initialGame.ts -->
<g id="edge9" class="edge"><title>cli/interactiveMoves.ts&#45;&gt;primitives/initialGame.ts</title>
<path fill="none" stroke="#757575" d="M94.7067,-409.268C128.728,-385.067 207.76,-328.849 248.004,-300.222"/>
<polygon fill="#757575" stroke="#757575" points="250.083,-303.038 256.203,-294.389 246.026,-297.334 250.083,-303.038"/>
</g>
<!-- cli/interactiveMoves.ts&#45;&gt;primitives/Board.ts -->
<g id="edge5" class="edge"><title>cli/interactiveMoves.ts&#45;&gt;primitives/Board.ts</title>
<path fill="none" stroke="#757575" d="M107.063,-432.346C184.265,-461.641 401.667,-531.277 556,-454.796 603.75,-431.134 635.212,-373.236 649.374,-341.849"/>
<polygon fill="#757575" stroke="#757575" points="652.589,-343.234 653.363,-332.668 646.168,-340.445 652.589,-343.234"/>
</g>
<!-- cli/interactiveMoves.ts&#45;&gt;primitives/Move.ts -->
<g id="edge7" class="edge"><title>cli/interactiveMoves.ts&#45;&gt;primitives/Move.ts</title>
<path fill="none" stroke="#757575" d="M155.092,-431.496C273.737,-446.335 494.697,-466.516 556,-420.796 600.976,-387.253 552.426,-339.571 592,-299.796 592.926,-298.865 593.894,-297.978 594.899,-297.131"/>
<polygon fill="#757575" stroke="#757575" points="596.966,-299.957 603.228,-291.41 593.003,-294.187 596.966,-299.957"/>
</g>
<!-- cli/interactiveMoves.ts&#45;&gt;primitives/Position.ts -->
<g id="edge8" class="edge"><title>cli/interactiveMoves.ts&#45;&gt;primitives/Position.ts</title>
<path fill="none" stroke="#757575" d="M91.8956,-432.301C111.886,-448.629 151.429,-477.766 191,-488.796 210.277,-494.17 544.929,-489.91 556,-486.796 662.251,-456.915 769.052,-375.221 813.057,-338.769"/>
<polygon fill="#757575" stroke="#757575" points="815.348,-341.416 820.766,-332.312 810.853,-336.05 815.348,-341.416"/>
</g>
<!-- primitives/Board.ts&#45;&gt;primitives/Position.ts -->
<g id="edge21" class="edge"><title>primitives/Board.ts&#45;&gt;primitives/Position.ts</title>
<path fill="none" stroke="#757575" d="M726.278,-320.796C734.631,-320.796 743.254,-320.796 751.814,-320.796"/>
<polygon fill="#757575" stroke="#757575" points="751.815,-324.297 761.815,-320.796 751.815,-317.297 751.815,-324.297"/>
</g>
<!-- primitives/Board.ts&#45;&gt;primitives/Piece.ts -->
<g id="edge20" class="edge"><title>primitives/Board.ts&#45;&gt;primitives/Piece.ts</title>
<path fill="none" stroke="#757575" d="M708.932,-309.267C729.497,-304.421 753.598,-298.742 775.125,-293.669"/>
<polygon fill="#757575" stroke="#757575" points="776.204,-297.011 785.134,-291.311 774.598,-290.198 776.204,-297.011"/>
</g>
<!-- primitives/Move.ts&#45;&gt;primitives/Position.ts -->
<g id="edge28" class="edge"><title>primitives/Move.ts&#45;&gt;primitives/Position.ts</title>
<path fill="none" stroke="#757575" d="M708.932,-291.326C729.497,-296.172 753.598,-301.851 775.125,-306.924"/>
<polygon fill="#757575" stroke="#757575" points="774.598,-310.395 785.134,-309.282 776.204,-303.582 774.598,-310.395"/>
</g>
<!-- primitives/Move.ts&#45;&gt;primitives/Piece.ts -->
<g id="edge27" class="edge"><title>primitives/Move.ts&#45;&gt;primitives/Piece.ts</title>
<path fill="none" stroke="#757575" d="M724.297,-279.796C735.528,-279.796 747.302,-279.796 758.796,-279.796"/>
<polygon fill="#757575" stroke="#757575" points="758.805,-283.297 768.805,-279.796 758.805,-276.297 758.805,-283.297"/>
</g>
<!-- index.ts -->
<g id="node11" class="node"><title>index.ts</title>
<path fill="none" stroke="#c6c5fe" d="M102.333,-178.296C102.333,-178.296 52.6667,-178.296 52.6667,-178.296 48.8333,-178.296 45,-174.463 45,-170.63 45,-170.63 45,-162.963 45,-162.963 45,-159.13 48.8333,-155.296 52.6667,-155.296 52.6667,-155.296 102.333,-155.296 102.333,-155.296 106.167,-155.296 110,-159.13 110,-162.963 110,-162.963 110,-170.63 110,-170.63 110,-174.463 106.167,-178.296 102.333,-178.296"/>
<text text-anchor="middle" x="77.5" y="-163.096" font-family="Arial" font-size="14.00" fill="#c6c5fe">index.ts</text>
</g>
<!-- index.ts&#45;&gt;primitives/Game.ts -->
<g id="edge14" class="edge"><title>index.ts&#45;&gt;primitives/Game.ts</title>
<path fill="none" stroke="#757575" d="M100.803,-178.51C123.125,-189.846 158.7,-206.874 191,-217.796 259.134,-240.836 339.249,-258.434 396.64,-269.472"/>
<polygon fill="#757575" stroke="#757575" points="396.247,-272.959 406.725,-271.388 397.554,-266.082 396.247,-272.959"/>
</g>
<!-- index.ts&#45;&gt;primitives/initialGame.ts -->
<g id="edge19" class="edge"><title>index.ts&#45;&gt;primitives/initialGame.ts</title>
<path fill="none" stroke="#757575" d="M89.9356,-178.376C109.185,-197.273 149.99,-234.829 191,-256.796 198.98,-261.071 207.78,-264.784 216.558,-267.961"/>
<polygon fill="#757575" stroke="#757575" points="215.439,-271.277 226.033,-271.198 217.702,-264.653 215.439,-271.277"/>
</g>
<!-- index.ts&#45;&gt;primitives/Board.ts -->
<g id="edge13" class="edge"><title>index.ts&#45;&gt;primitives/Board.ts</title>
<path fill="none" stroke="#757575" d="M110.105,-166.236C205.151,-165.172 486.125,-166.764 556,-220.796 586.524,-244.4 563.135,-274.191 592,-299.796 593.718,-301.32 595.546,-302.733 597.459,-304.044"/>
<polygon fill="#757575" stroke="#757575" points="595.901,-307.186 606.311,-309.159 599.404,-301.125 595.901,-307.186"/>
</g>
<!-- index.ts&#45;&gt;primitives/Move.ts -->
<g id="edge15" class="edge"><title>index.ts&#45;&gt;primitives/Move.ts</title>
<path fill="none" stroke="#757575" d="M110.306,-161.044C205.292,-144.594 484.706,-101.716 556,-152.796 596.445,-181.774 556.48,-223.957 592,-258.796 593.449,-260.217 594.993,-261.542 596.614,-262.777"/>
<polygon fill="#757575" stroke="#757575" points="594.948,-265.864 605.274,-268.237 598.681,-259.943 594.948,-265.864"/>
</g>
<!-- index.ts&#45;&gt;primitives/Position.ts -->
<g id="edge17" class="edge"><title>index.ts&#45;&gt;primitives/Position.ts</title>
<path fill="none" stroke="#757575" d="M104.238,-155.228C126.642,-145.806 160.259,-133.21 191,-127.796 350.769,-99.661 398.827,-84.6149 556,-124.796 639.439,-146.128 667.805,-154.311 726,-217.796 752.895,-247.137 732.088,-273.538 762,-299.796 763.749,-301.332 765.605,-302.755 767.544,-304.075"/>
<polygon fill="#757575" stroke="#757575" points="766.093,-307.277 776.508,-309.22 769.578,-301.206 766.093,-307.277"/>
</g>
<!-- index.ts&#45;&gt;primitives/Piece.ts -->
<g id="edge16" class="edge"><title>index.ts&#45;&gt;primitives/Piece.ts</title>
<path fill="none" stroke="#757575" d="M88.1351,-155.071C105.907,-134.483 146.156,-92.527 191,-76.7965 415.374,1.90964 522.17,45.6435 726,-76.7965 793.054,-117.075 820.732,-214.621 830.028,-258.172"/>
<polygon fill="#757575" stroke="#757575" points="826.651,-259.13 832.052,-268.244 833.514,-257.751 826.651,-259.13"/>
</g>
<!-- index.ts&#45;&gt;primitives/initialBoard.ts -->
<g id="edge18" class="edge"><title>index.ts&#45;&gt;primitives/initialBoard.ts</title>
<path fill="none" stroke="#757575" d="M110.117,-172.807C173.168,-184.794 315.904,-211.93 402.382,-228.371"/>
<polygon fill="#757575" stroke="#757575" points="401.904,-231.843 412.381,-230.272 403.211,-224.966 401.904,-231.843"/>
</g>
<!-- primitives/initialBoard.ts&#45;&gt;primitives/Board.ts -->
<g id="edge29" class="edge"><title>primitives/initialBoard.ts&#45;&gt;primitives/Board.ts</title>
<path fill="none" stroke="#757575" d="M537.47,-253.323C543.938,-255.65 550.242,-258.444 556,-261.796 576.105,-273.502 572.292,-287.434 592,-299.796 595.139,-301.765 598.478,-303.564 601.924,-305.206"/>
<polygon fill="#757575" stroke="#757575" points="600.661,-308.472 611.231,-309.193 603.417,-302.038 600.661,-308.472"/>
</g>
</g>
</svg>
