<?xml version="1.0" encoding="UTF-8" standalone="no"?>
<!DOCTYPE svg PUBLIC "-//W3C//DTD SVG 1.1//EN"
 "http://www.w3.org/Graphics/SVG/1.1/DTD/svg11.dtd">
<!-- Generated by graphviz version 2.38.0 (20140413.2041)
 -->
<!-- Title: G Pages: 1 -->
<svg width="688pt" height="157pt"
 viewBox="0.00 0.00 688.20 156.54" xmlns="http://www.w3.org/2000/svg" xmlns:xlink="http://www.w3.org/1999/xlink">
<g id="graph0" class="graph" transform="scale(1 1) rotate(0) translate(21.6 134.939)">
<title>G</title>
<polygon fill="#111111" stroke="none" points="-21.6,21.6 -21.6,-134.939 666.6,-134.939 666.6,21.6 -21.6,21.6"/>
<!-- index.ts -->
<g id="node1" class="node"><title>index.ts</title>
<path fill="none" stroke="#c6c5fe" d="M57.3333,-61C57.3333,-61 7.66667,-61 7.66667,-61 3.83333,-61 0,-57.1667 0,-53.3333 0,-53.3333 0,-45.6667 0,-45.6667 0,-41.8333 3.83333,-38 7.66667,-38 7.66667,-38 57.3333,-38 57.3333,-38 61.1667,-38 65,-41.8333 65,-45.6667 65,-45.6667 65,-53.3333 65,-53.3333 65,-57.1667 61.1667,-61 57.3333,-61"/>
<text text-anchor="middle" x="32.5" y="-45.8" font-family="Arial" font-size="14.00" fill="#c6c5fe">index.ts</text>
</g>
<!-- primitives/Board.ts -->
<g id="node2" class="node"><title>primitives/Board.ts</title>
<path fill="none" stroke="#c6c5fe" d="M455.333,-43C455.333,-43 336.667,-43 336.667,-43 332.833,-43 329,-39.1667 329,-35.3333 329,-35.3333 329,-27.6667 329,-27.6667 329,-23.8333 332.833,-20 336.667,-20 336.667,-20 455.333,-20 455.333,-20 459.167,-20 463,-23.8333 463,-27.6667 463,-27.6667 463,-35.3333 463,-35.3333 463,-39.1667 459.167,-43 455.333,-43"/>
<text text-anchor="middle" x="396" y="-27.8" font-family="Arial" font-size="14.00" fill="#c6c5fe">primitives/Board.ts</text>
</g>
<!-- index.ts&#45;&gt;primitives/Board.ts -->
<g id="edge1" class="edge"><title>index.ts&#45;&gt;primitives/Board.ts</title>
<path fill="none" stroke="#757575" d="M65.2639,-47.9184C121.49,-45.1187 240.003,-39.2177 318.557,-35.3063"/>
<polygon fill="#757575" stroke="#757575" points="319.073,-38.785 328.887,-34.7919 318.725,-31.7937 319.073,-38.785"/>
</g>
<!-- primitives/Piece.ts -->
<g id="node3" class="node"><title>primitives/Piece.ts</title>
<path fill="none" stroke="#cfffac" d="M630.333,-92C630.333,-92 513.667,-92 513.667,-92 509.833,-92 506,-88.1667 506,-84.3333 506,-84.3333 506,-76.6667 506,-76.6667 506,-72.8333 509.833,-69 513.667,-69 513.667,-69 630.333,-69 630.333,-69 634.167,-69 638,-72.8333 638,-76.6667 638,-76.6667 638,-84.3333 638,-84.3333 638,-88.1667 634.167,-92 630.333,-92"/>
<text text-anchor="middle" x="572" y="-76.8" font-family="Arial" font-size="14.00" fill="#cfffac">primitives/Piece.ts</text>
</g>
<!-- index.ts&#45;&gt;primitives/Piece.ts -->
<g id="edge2" class="edge"><title>index.ts&#45;&gt;primitives/Piece.ts</title>
<path fill="none" stroke="#757575" d="M47.4242,-61.1292C60.3699,-71.1276 80.6664,-84.8084 101,-90.5 240.389,-129.516 412.22,-109.674 504.643,-93.7992"/>
<polygon fill="#757575" stroke="#757575" points="505.453,-97.2107 514.697,-92.0339 504.242,-90.3161 505.453,-97.2107"/>
</g>
<!-- primitives/Position.ts -->
<g id="node4" class="node"><title>primitives/Position.ts</title>
<path fill="none" stroke="#cfffac" d="M637.333,-23C637.333,-23 506.667,-23 506.667,-23 502.833,-23 499,-19.1667 499,-15.3333 499,-15.3333 499,-7.66667 499,-7.66667 499,-3.83333 502.833,-0 506.667,-0 506.667,-0 637.333,-0 637.333,-0 641.167,-0 645,-3.83333 645,-7.66667 645,-7.66667 645,-15.3333 645,-15.3333 645,-19.1667 641.167,-23 637.333,-23"/>
<text text-anchor="middle" x="572" y="-7.8" font-family="Arial" font-size="14.00" fill="#cfffac">primitives/Position.ts</text>
</g>
<!-- index.ts&#45;&gt;primitives/Position.ts -->
<g id="edge3" class="edge"><title>index.ts&#45;&gt;primitives/Position.ts</title>
<path fill="none" stroke="#757575" d="M65.2566,-41.0592C76.4835,-38.3186 89.2421,-35.4777 101,-33.5 259.98,-6.75969 301.788,-9.75367 463,-10.5 471.356,-10.5387 480.075,-10.5942 488.778,-10.6595"/>
<polygon fill="#757575" stroke="#757575" points="488.937,-14.1608 498.964,-10.7403 488.993,-7.16101 488.937,-14.1608"/>
</g>
<!-- primitives/startingPosition.ts -->
<g id="node5" class="node"><title>primitives/startingPosition.ts</title>
<path fill="none" stroke="#c6c5fe" d="M285.333,-81C285.333,-81 108.667,-81 108.667,-81 104.833,-81 101,-77.1667 101,-73.3333 101,-73.3333 101,-65.6667 101,-65.6667 101,-61.8333 104.833,-58 108.667,-58 108.667,-58 285.333,-58 285.333,-58 289.167,-58 293,-61.8333 293,-65.6667 293,-65.6667 293,-73.3333 293,-73.3333 293,-77.1667 289.167,-81 285.333,-81"/>
<text text-anchor="middle" x="197" y="-65.8" font-family="Arial" font-size="14.00" fill="#c6c5fe">primitives/startingPosition.ts</text>
</g>
<!-- index.ts&#45;&gt;primitives/startingPosition.ts -->
<g id="edge4" class="edge"><title>index.ts&#45;&gt;primitives/startingPosition.ts</title>
<path fill="none" stroke="#757575" d="M65.2174,-53.4037C73.4609,-54.4183 82.8044,-55.5682 92.614,-56.7756"/>
<polygon fill="#757575" stroke="#757575" points="92.2028,-60.2513 102.555,-57.9991 93.0579,-53.3037 92.2028,-60.2513"/>
</g>
<!-- primitives/Board.ts&#45;&gt;primitives/Piece.ts -->
<g id="edge5" class="edge"><title>primitives/Board.ts&#45;&gt;primitives/Piece.ts</title>
<path fill="none" stroke="#757575" d="M438.236,-43.1123C462.83,-50.0385 494.247,-58.8856 520.344,-66.2349"/>
<polygon fill="#757575" stroke="#757575" points="519.486,-69.6293 530.06,-68.971 521.384,-62.8913 519.486,-69.6293"/>
</g>
<!-- primitives/Board.ts&#45;&gt;primitives/Position.ts -->
<g id="edge6" class="edge"><title>primitives/Board.ts&#45;&gt;primitives/Position.ts</title>
<path fill="none" stroke="#757575" d="M463.278,-23.8818C471.631,-22.9218 480.254,-21.9306 488.814,-20.9466"/>
<polygon fill="#757575" stroke="#757575" points="489.28,-24.4162 498.815,-19.7971 488.481,-17.462 489.28,-24.4162"/>
</g>
<!-- primitives/startingPosition.ts&#45;&gt;primitives/Board.ts -->
<g id="edge7" class="edge"><title>primitives/startingPosition.ts&#45;&gt;primitives/Board.ts</title>
<path fill="none" stroke="#757575" d="M257.641,-57.9956C278.952,-53.8849 303.153,-49.2168 325.24,-44.9562"/>
<polygon fill="#757575" stroke="#757575" points="326.066,-48.3615 335.222,-43.0308 324.74,-41.4882 326.066,-48.3615"/>
</g>
</g>
</svg>
