<?xml version="1.0" encoding="UTF-8" standalone="no"?>
<!DOCTYPE svg PUBLIC "-//W3C//DTD SVG 1.1//EN"
 "http://www.w3.org/Graphics/SVG/1.1/DTD/svg11.dtd">
<!-- Generated by graphviz version 2.38.0 (20140413.2041)
 -->
<!-- Title: G Pages: 1 -->
<svg width="821pt" height="155pt"
 viewBox="0.00 0.00 821.20 155.04" xmlns="http://www.w3.org/2000/svg" xmlns:xlink="http://www.w3.org/1999/xlink">
<g id="graph0" class="graph" transform="scale(1 1) rotate(0) translate(21.6 133.441)">
<title>G</title>
<polygon fill="#111111" stroke="none" points="-21.6,21.6 -21.6,-133.441 799.6,-133.441 799.6,21.6 -21.6,21.6"/>
<!-- index.ts -->
<g id="node1" class="node"><title>index.ts</title>
<path fill="none" stroke="#c6c5fe" d="M57.3333,-61C57.3333,-61 7.66667,-61 7.66667,-61 3.83333,-61 0,-57.1667 0,-53.3333 0,-53.3333 0,-45.6667 0,-45.6667 0,-41.8333 3.83333,-38 7.66667,-38 7.66667,-38 57.3333,-38 57.3333,-38 61.1667,-38 65,-41.8333 65,-45.6667 65,-45.6667 65,-53.3333 65,-53.3333 65,-57.1667 61.1667,-61 57.3333,-61"/>
<text text-anchor="middle" x="32.5" y="-45.8" font-family="Arial" font-size="14.00" fill="#c6c5fe">index.ts</text>
</g>
<!-- primitives/Board.ts -->
<g id="node2" class="node"><title>primitives/Board.ts</title>
<path fill="none" stroke="#c6c5fe" d="M427.333,-43C427.333,-43 308.667,-43 308.667,-43 304.833,-43 301,-39.1667 301,-35.3333 301,-35.3333 301,-27.6667 301,-27.6667 301,-23.8333 304.833,-20 308.667,-20 308.667,-20 427.333,-20 427.333,-20 431.167,-20 435,-23.8333 435,-27.6667 435,-27.6667 435,-35.3333 435,-35.3333 435,-39.1667 431.167,-43 427.333,-43"/>
<text text-anchor="middle" x="368" y="-27.8" font-family="Arial" font-size="14.00" fill="#c6c5fe">primitives/Board.ts</text>
</g>
<!-- index.ts&#45;&gt;primitives/Board.ts -->
<g id="edge1" class="edge"><title>index.ts&#45;&gt;primitives/Board.ts</title>
<path fill="none" stroke="#757575" d="M65.1755,-47.7904C116.471,-45.0218 219.148,-39.48 290.41,-35.6338"/>
<polygon fill="#757575" stroke="#757575" points="290.89,-39.1131 300.687,-35.0791 290.513,-32.1233 290.89,-39.1131"/>
</g>
<!-- primitives/Piece.ts -->
<g id="node3" class="node"><title>primitives/Piece.ts</title>
<path fill="none" stroke="#c6c5fe" d="M602.333,-92C602.333,-92 485.667,-92 485.667,-92 481.833,-92 478,-88.1667 478,-84.3333 478,-84.3333 478,-76.6667 478,-76.6667 478,-72.8333 481.833,-69 485.667,-69 485.667,-69 602.333,-69 602.333,-69 606.167,-69 610,-72.8333 610,-76.6667 610,-76.6667 610,-84.3333 610,-84.3333 610,-88.1667 606.167,-92 602.333,-92"/>
<text text-anchor="middle" x="544" y="-76.8" font-family="Arial" font-size="14.00" fill="#c6c5fe">primitives/Piece.ts</text>
</g>
<!-- index.ts&#45;&gt;primitives/Piece.ts -->
<g id="edge2" class="edge"><title>index.ts&#45;&gt;primitives/Piece.ts</title>
<path fill="none" stroke="#757575" d="M47.4242,-61.1292C60.3699,-71.1276 80.6664,-84.8084 101,-90.5 230.224,-126.671 389.089,-108.774 476.842,-93.7883"/>
<polygon fill="#757575" stroke="#757575" points="477.677,-97.1955 486.925,-92.0255 476.472,-90.3001 477.677,-97.1955"/>
</g>
<!-- primitives/Position.ts -->
<g id="node4" class="node"><title>primitives/Position.ts</title>
<path fill="none" stroke="#cfffac" d="M609.333,-23C609.333,-23 478.667,-23 478.667,-23 474.833,-23 471,-19.1667 471,-15.3333 471,-15.3333 471,-7.66667 471,-7.66667 471,-3.83333 474.833,-0 478.667,-0 478.667,-0 609.333,-0 609.333,-0 613.167,-0 617,-3.83333 617,-7.66667 617,-7.66667 617,-15.3333 617,-15.3333 617,-19.1667 613.167,-23 609.333,-23"/>
<text text-anchor="middle" x="544" y="-7.8" font-family="Arial" font-size="14.00" fill="#cfffac">primitives/Position.ts</text>
</g>
<!-- index.ts&#45;&gt;primitives/Position.ts -->
<g id="edge3" class="edge"><title>index.ts&#45;&gt;primitives/Position.ts</title>
<path fill="none" stroke="#757575" d="M65.2725,-41.1518C76.5008,-38.4192 89.2562,-35.5597 101,-33.5 189.13,-18.0434 211.672,-15.6195 301,-10.5 360.458,-7.0924 375.445,-10.2243 435,-10.5 443.356,-10.5387 452.075,-10.5942 460.778,-10.6595"/>
<polygon fill="#757575" stroke="#757575" points="460.937,-14.1608 470.964,-10.7403 460.993,-7.16101 460.937,-14.1608"/>
</g>
<!-- primitives/initialBoard.ts -->
<g id="node5" class="node"><title>primitives/initialBoard.ts</title>
<path fill="none" stroke="#c6c5fe" d="M257.333,-81C257.333,-81 108.667,-81 108.667,-81 104.833,-81 101,-77.1667 101,-73.3333 101,-73.3333 101,-65.6667 101,-65.6667 101,-61.8333 104.833,-58 108.667,-58 108.667,-58 257.333,-58 257.333,-58 261.167,-58 265,-61.8333 265,-65.6667 265,-65.6667 265,-73.3333 265,-73.3333 265,-77.1667 261.167,-81 257.333,-81"/>
<text text-anchor="middle" x="183" y="-65.8" font-family="Arial" font-size="14.00" fill="#c6c5fe">primitives/initialBoard.ts</text>
</g>
<!-- index.ts&#45;&gt;primitives/initialBoard.ts -->
<g id="edge4" class="edge"><title>index.ts&#45;&gt;primitives/initialBoard.ts</title>
<path fill="none" stroke="#757575" d="M65.357,-53.7905C73.1176,-54.8357 81.8074,-56.0061 90.8504,-57.224"/>
<polygon fill="#757575" stroke="#757575" points="90.3967,-60.6944 100.774,-58.5605 91.3311,-53.757 90.3967,-60.6944"/>
</g>
<!-- primitives/Board.ts&#45;&gt;primitives/Piece.ts -->
<g id="edge5" class="edge"><title>primitives/Board.ts&#45;&gt;primitives/Piece.ts</title>
<path fill="none" stroke="#757575" d="M410.236,-43.1123C434.83,-50.0385 466.247,-58.8856 492.344,-66.2349"/>
<polygon fill="#757575" stroke="#757575" points="491.486,-69.6293 502.06,-68.971 493.384,-62.8913 491.486,-69.6293"/>
</g>
<!-- primitives/Board.ts&#45;&gt;primitives/Position.ts -->
<g id="edge6" class="edge"><title>primitives/Board.ts&#45;&gt;primitives/Position.ts</title>
<path fill="none" stroke="#757575" d="M435.278,-23.8818C443.631,-22.9218 452.254,-21.9306 460.814,-20.9466"/>
<polygon fill="#757575" stroke="#757575" points="461.28,-24.4162 470.815,-19.7971 460.481,-17.462 461.28,-24.4162"/>
</g>
<!-- primitives/Side.ts -->
<g id="node6" class="node"><title>primitives/Side.ts</title>
<path fill="none" stroke="#cfffac" d="M770.333,-92C770.333,-92 660.667,-92 660.667,-92 656.833,-92 653,-88.1667 653,-84.3333 653,-84.3333 653,-76.6667 653,-76.6667 653,-72.8333 656.833,-69 660.667,-69 660.667,-69 770.333,-69 770.333,-69 774.167,-69 778,-72.8333 778,-76.6667 778,-76.6667 778,-84.3333 778,-84.3333 778,-88.1667 774.167,-92 770.333,-92"/>
<text text-anchor="middle" x="715.5" y="-76.8" font-family="Arial" font-size="14.00" fill="#cfffac">primitives/Side.ts</text>
</g>
<!-- primitives/Piece.ts&#45;&gt;primitives/Side.ts -->
<g id="edge7" class="edge"><title>primitives/Piece.ts&#45;&gt;primitives/Side.ts</title>
<path fill="none" stroke="#757575" d="M610.048,-80.5C620.731,-80.5 631.857,-80.5 642.693,-80.5"/>
<polygon fill="#757575" stroke="#757575" points="642.97,-84.0001 652.97,-80.5 642.97,-77.0001 642.97,-84.0001"/>
</g>
<!-- primitives/initialBoard.ts&#45;&gt;primitives/Board.ts -->
<g id="edge8" class="edge"><title>primitives/initialBoard.ts&#45;&gt;primitives/Board.ts</title>
<path fill="none" stroke="#757575" d="M239.403,-57.9956C259.021,-53.922 281.275,-49.3008 301.643,-45.0715"/>
<polygon fill="#757575" stroke="#757575" points="302.391,-48.4909 311.47,-43.0308 300.967,-41.6371 302.391,-48.4909"/>
</g>
</g>
</svg>
