<?xml version="1.0" encoding="UTF-8" standalone="no"?>
<!DOCTYPE svg PUBLIC "-//W3C//DTD SVG 1.1//EN"
 "http://www.w3.org/Graphics/SVG/1.1/DTD/svg11.dtd">
<!-- Generated by graphviz version 2.38.0 (20140413.2041)
 -->
<!-- Title: G Pages: 1 -->
<svg width="1094pt" height="650pt"
 viewBox="0.00 0.00 1094.20 650.16" xmlns="http://www.w3.org/2000/svg" xmlns:xlink="http://www.w3.org/1999/xlink">
<g id="graph0" class="graph" transform="scale(1 1) rotate(0) translate(21.6 628.563)">
<title>G</title>
<polygon fill="#111111" stroke="none" points="-21.6,21.6 -21.6,-628.563 1072.6,-628.563 1072.6,21.6 -21.6,21.6"/>
<!-- availableMoves.ts -->
<g id="node1" class="node"><title>availableMoves.ts</title>
<path fill="none" stroke="#c6c5fe" d="M124.833,-251.928C124.833,-251.928 12.1667,-251.928 12.1667,-251.928 8.33333,-251.928 4.5,-248.094 4.5,-244.261 4.5,-244.261 4.5,-236.594 4.5,-236.594 4.5,-232.761 8.33333,-228.928 12.1667,-228.928 12.1667,-228.928 124.833,-228.928 124.833,-228.928 128.667,-228.928 132.5,-232.761 132.5,-236.594 132.5,-236.594 132.5,-244.261 132.5,-244.261 132.5,-248.094 128.667,-251.928 124.833,-251.928"/>
<text text-anchor="middle" x="68.5" y="-236.728" font-family="Arial" font-size="14.00" fill="#c6c5fe">availableMoves.ts</text>
</g>
<!-- cli/showBoard.ts -->
<g id="node2" class="node"><title>cli/showBoard.ts</title>
<path fill="none" stroke="#c6c5fe" d="M508.333,-525.928C508.333,-525.928 403.667,-525.928 403.667,-525.928 399.833,-525.928 396,-522.094 396,-518.261 396,-518.261 396,-510.594 396,-510.594 396,-506.761 399.833,-502.928 403.667,-502.928 403.667,-502.928 508.333,-502.928 508.333,-502.928 512.167,-502.928 516,-506.761 516,-510.594 516,-510.594 516,-518.261 516,-518.261 516,-522.094 512.167,-525.928 508.333,-525.928"/>
<text text-anchor="middle" x="456" y="-510.728" font-family="Arial" font-size="14.00" fill="#c6c5fe">cli/showBoard.ts</text>
</g>
<!-- availableMoves.ts&#45;&gt;cli/showBoard.ts -->
<g id="edge1" class="edge"><title>availableMoves.ts&#45;&gt;cli/showBoard.ts</title>
<path fill="none" stroke="#757575" d="M76.3368,-252.121C89.3834,-274.77 118.204,-326.444 137,-372.428 157.265,-422.003 131.404,-453.692 173,-487.428 204.557,-513.022 312.852,-516.825 385.682,-516.305"/>
<polygon fill="#757575" stroke="#757575" points="385.747,-519.804 395.712,-516.204 385.677,-512.804 385.747,-519.804"/>
</g>
<!-- primitives/Game.ts -->
<g id="node3" class="node"><title>primitives/Game.ts</title>
<path fill="none" stroke="#c6c5fe" d="M515.333,-172.928C515.333,-172.928 396.667,-172.928 396.667,-172.928 392.833,-172.928 389,-169.094 389,-165.261 389,-165.261 389,-157.594 389,-157.594 389,-153.761 392.833,-149.928 396.667,-149.928 396.667,-149.928 515.333,-149.928 515.333,-149.928 519.167,-149.928 523,-153.761 523,-157.594 523,-157.594 523,-165.261 523,-165.261 523,-169.094 519.167,-172.928 515.333,-172.928"/>
<text text-anchor="middle" x="456" y="-157.728" font-family="Arial" font-size="14.00" fill="#c6c5fe">primitives/Game.ts</text>
</g>
<!-- availableMoves.ts&#45;&gt;primitives/Game.ts -->
<g id="edge2" class="edge"><title>availableMoves.ts&#45;&gt;primitives/Game.ts</title>
<path fill="none" stroke="#757575" d="M84.2469,-228.905C103.45,-214.632 138.634,-190.92 173,-180.428 240.405,-159.848 320.94,-156.38 378.656,-157.3"/>
<polygon fill="#757575" stroke="#757575" points="378.727,-160.803 388.797,-157.511 378.872,-153.804 378.727,-160.803"/>
</g>
<!-- primitives/initialBoard.ts -->
<g id="node4" class="node"><title>primitives/initialBoard.ts</title>
<path fill="none" stroke="#c6c5fe" d="M530.333,-328.928C530.333,-328.928 381.667,-328.928 381.667,-328.928 377.833,-328.928 374,-325.094 374,-321.261 374,-321.261 374,-313.594 374,-313.594 374,-309.761 377.833,-305.928 381.667,-305.928 381.667,-305.928 530.333,-305.928 530.333,-305.928 534.167,-305.928 538,-309.761 538,-313.594 538,-313.594 538,-321.261 538,-321.261 538,-325.094 534.167,-328.928 530.333,-328.928"/>
<text text-anchor="middle" x="456" y="-313.728" font-family="Arial" font-size="14.00" fill="#c6c5fe">primitives/initialBoard.ts</text>
</g>
<!-- availableMoves.ts&#45;&gt;primitives/initialBoard.ts -->
<g id="edge3" class="edge"><title>availableMoves.ts&#45;&gt;primitives/initialBoard.ts</title>
<path fill="none" stroke="#757575" d="M127.213,-251.955C196.723,-265.839 313.319,-289.128 387.092,-303.863"/>
<polygon fill="#757575" stroke="#757575" points="386.716,-307.357 397.208,-305.884 388.087,-300.493 386.716,-307.357"/>
</g>
<!-- primitives/initialGame.ts -->
<g id="node5" class="node"><title>primitives/initialGame.ts</title>
<path fill="none" stroke="#c6c5fe" d="M330.333,-212.928C330.333,-212.928 180.667,-212.928 180.667,-212.928 176.833,-212.928 173,-209.094 173,-205.261 173,-205.261 173,-197.594 173,-197.594 173,-193.761 176.833,-189.928 180.667,-189.928 180.667,-189.928 330.333,-189.928 330.333,-189.928 334.167,-189.928 338,-193.761 338,-197.594 338,-197.594 338,-205.261 338,-205.261 338,-209.094 334.167,-212.928 330.333,-212.928"/>
<text text-anchor="middle" x="255.5" y="-197.728" font-family="Arial" font-size="14.00" fill="#c6c5fe">primitives/initialGame.ts</text>
</g>
<!-- availableMoves.ts&#45;&gt;primitives/initialGame.ts -->
<g id="edge4" class="edge"><title>availableMoves.ts&#45;&gt;primitives/initialGame.ts</title>
<path fill="none" stroke="#757575" d="M124.255,-228.885C144.859,-224.541 168.478,-219.562 189.896,-215.047"/>
<polygon fill="#757575" stroke="#757575" points="190.822,-218.428 199.885,-212.941 189.378,-211.579 190.822,-218.428"/>
</g>
<!-- cli/strings.ts -->
<g id="node6" class="node"><title>cli/strings.ts</title>
<path fill="none" stroke="#cfffac" d="M678.833,-485.928C678.833,-485.928 603.167,-485.928 603.167,-485.928 599.333,-485.928 595.5,-482.094 595.5,-478.261 595.5,-478.261 595.5,-470.594 595.5,-470.594 595.5,-466.761 599.333,-462.928 603.167,-462.928 603.167,-462.928 678.833,-462.928 678.833,-462.928 682.667,-462.928 686.5,-466.761 686.5,-470.594 686.5,-470.594 686.5,-478.261 686.5,-478.261 686.5,-482.094 682.667,-485.928 678.833,-485.928"/>
<text text-anchor="middle" x="641" y="-470.728" font-family="Arial" font-size="14.00" fill="#cfffac">cli/strings.ts</text>
</g>
<!-- cli/showBoard.ts&#45;&gt;cli/strings.ts -->
<g id="edge5" class="edge"><title>cli/showBoard.ts&#45;&gt;cli/strings.ts</title>
<path fill="none" stroke="#757575" d="M509.931,-502.858C533.577,-497.689 561.428,-491.602 585.28,-486.388"/>
<polygon fill="#757575" stroke="#757575" points="586.211,-489.767 595.233,-484.213 584.716,-482.929 586.211,-489.767"/>
</g>
<!-- primitives/Board.ts -->
<g id="node7" class="node"><title>primitives/Board.ts</title>
<path fill="none" stroke="#c6c5fe" d="M700.333,-331.928C700.333,-331.928 581.667,-331.928 581.667,-331.928 577.833,-331.928 574,-328.094 574,-324.261 574,-324.261 574,-316.594 574,-316.594 574,-312.761 577.833,-308.928 581.667,-308.928 581.667,-308.928 700.333,-308.928 700.333,-308.928 704.167,-308.928 708,-312.761 708,-316.594 708,-316.594 708,-324.261 708,-324.261 708,-328.094 704.167,-331.928 700.333,-331.928"/>
<text text-anchor="middle" x="641" y="-316.728" font-family="Arial" font-size="14.00" fill="#c6c5fe">primitives/Board.ts</text>
</g>
<!-- cli/showBoard.ts&#45;&gt;primitives/Board.ts -->
<g id="edge6" class="edge"><title>cli/showBoard.ts&#45;&gt;primitives/Board.ts</title>
<path fill="none" stroke="#757575" d="M516.172,-504.968C523.973,-502.083 531.503,-498.324 538,-493.428 565.266,-472.877 610.513,-382.515 630.269,-341.187"/>
<polygon fill="#757575" stroke="#757575" points="633.489,-342.566 634.612,-332.031 627.164,-339.566 633.489,-342.566"/>
</g>
<!-- primitives/Piece.ts -->
<g id="node8" class="node"><title>primitives/Piece.ts</title>
<path fill="none" stroke="#c6c5fe" d="M875.333,-311.928C875.333,-311.928 758.667,-311.928 758.667,-311.928 754.833,-311.928 751,-308.094 751,-304.261 751,-304.261 751,-296.594 751,-296.594 751,-292.761 754.833,-288.928 758.667,-288.928 758.667,-288.928 875.333,-288.928 875.333,-288.928 879.167,-288.928 883,-292.761 883,-296.594 883,-296.594 883,-304.261 883,-304.261 883,-308.094 879.167,-311.928 875.333,-311.928"/>
<text text-anchor="middle" x="817" y="-296.728" font-family="Arial" font-size="14.00" fill="#c6c5fe">primitives/Piece.ts</text>
</g>
<!-- cli/showBoard.ts&#45;&gt;primitives/Piece.ts -->
<g id="edge7" class="edge"><title>cli/showBoard.ts&#45;&gt;primitives/Piece.ts</title>
<path fill="none" stroke="#757575" d="M516.238,-524.592C570.491,-530.66 650.814,-531.176 708,-494.428 770.961,-453.967 800.541,-363.294 811.159,-321.842"/>
<polygon fill="#757575" stroke="#757575" points="814.596,-322.524 813.562,-311.98 807.794,-320.867 814.596,-322.524"/>
</g>
<!-- primitives/Game.ts&#45;&gt;primitives/Board.ts -->
<g id="edge31" class="edge"><title>primitives/Game.ts&#45;&gt;primitives/Board.ts</title>
<path fill="none" stroke="#757575" d="M466.364,-173.208C491.665,-204.929 560.408,-290.37 574,-299.428 576.889,-301.353 579.966,-303.111 583.152,-304.715"/>
<polygon fill="#757575" stroke="#757575" points="581.796,-307.943 592.353,-308.84 584.66,-301.555 581.796,-307.943"/>
</g>
<!-- primitives/Game.ts&#45;&gt;primitives/Piece.ts -->
<g id="edge33" class="edge"><title>primitives/Game.ts&#45;&gt;primitives/Piece.ts</title>
<path fill="none" stroke="#757575" d="M495.112,-173.009C508.721,-177.316 524.118,-182.386 538,-187.428 626.052,-219.403 727.559,-262.208 780.182,-284.854"/>
<polygon fill="#757575" stroke="#757575" points="778.856,-288.094 789.424,-288.841 781.628,-281.667 778.856,-288.094"/>
</g>
<!-- primitives/Move.ts -->
<g id="node11" class="node"><title>primitives/Move.ts</title>
<path fill="none" stroke="#c6c5fe" d="M698.333,-290.928C698.333,-290.928 583.667,-290.928 583.667,-290.928 579.833,-290.928 576,-287.094 576,-283.261 576,-283.261 576,-275.594 576,-275.594 576,-271.761 579.833,-267.928 583.667,-267.928 583.667,-267.928 698.333,-267.928 698.333,-267.928 702.167,-267.928 706,-271.761 706,-275.594 706,-275.594 706,-283.261 706,-283.261 706,-287.094 702.167,-290.928 698.333,-290.928"/>
<text text-anchor="middle" x="641" y="-275.728" font-family="Arial" font-size="14.00" fill="#c6c5fe">primitives/Move.ts</text>
</g>
<!-- primitives/Game.ts&#45;&gt;primitives/Move.ts -->
<g id="edge32" class="edge"><title>primitives/Game.ts&#45;&gt;primitives/Move.ts</title>
<path fill="none" stroke="#757575" d="M504.693,-173.04C516.009,-176.784 527.76,-181.534 538,-187.428 556.091,-197.84 597.135,-237.03 621.282,-260.773"/>
<polygon fill="#757575" stroke="#757575" points="618.904,-263.344 628.477,-267.883 623.824,-258.365 618.904,-263.344"/>
</g>
<!-- primitives/Position.ts -->
<g id="node12" class="node"><title>primitives/Position.ts</title>
<path fill="none" stroke="#cfffac" d="M882.333,-250.928C882.333,-250.928 751.667,-250.928 751.667,-250.928 747.833,-250.928 744,-247.094 744,-243.261 744,-243.261 744,-235.594 744,-235.594 744,-231.761 747.833,-227.928 751.667,-227.928 751.667,-227.928 882.333,-227.928 882.333,-227.928 886.167,-227.928 890,-231.761 890,-235.594 890,-235.594 890,-243.261 890,-243.261 890,-247.094 886.167,-250.928 882.333,-250.928"/>
<text text-anchor="middle" x="817" y="-235.728" font-family="Arial" font-size="14.00" fill="#cfffac">primitives/Position.ts</text>
</g>
<!-- primitives/Game.ts&#45;&gt;primitives/Position.ts -->
<g id="edge34" class="edge"><title>primitives/Game.ts&#45;&gt;primitives/Position.ts</title>
<path fill="none" stroke="#757575" d="M523.173,-162.09C574.473,-164.076 646.88,-170.118 708,-187.428 736.604,-195.528 766.916,-210.781 788.122,-222.681"/>
<polygon fill="#757575" stroke="#757575" points="786.486,-225.778 796.903,-227.71 789.965,-219.703 786.486,-225.778"/>
</g>
<!-- primitives/Side.ts -->
<g id="node15" class="node"><title>primitives/Side.ts</title>
<path fill="none" stroke="#cfffac" d="M1043.33,-202.928C1043.33,-202.928 933.667,-202.928 933.667,-202.928 929.833,-202.928 926,-199.094 926,-195.261 926,-195.261 926,-187.594 926,-187.594 926,-183.761 929.833,-179.928 933.667,-179.928 933.667,-179.928 1043.33,-179.928 1043.33,-179.928 1047.17,-179.928 1051,-183.761 1051,-187.594 1051,-187.594 1051,-195.261 1051,-195.261 1051,-199.094 1047.17,-202.928 1043.33,-202.928"/>
<text text-anchor="middle" x="988.5" y="-187.728" font-family="Arial" font-size="14.00" fill="#cfffac">primitives/Side.ts</text>
</g>
<!-- primitives/Game.ts&#45;&gt;primitives/Side.ts -->
<g id="edge35" class="edge"><title>primitives/Game.ts&#45;&gt;primitives/Side.ts</title>
<path fill="none" stroke="#757575" d="M473.847,-149.715C495.741,-135.277 535.712,-111.535 574,-102.428 716.259,-68.5883 887.4,-141.246 956.413,-175.195"/>
<polygon fill="#757575" stroke="#757575" points="954.949,-178.376 965.459,-179.713 958.077,-172.114 954.949,-178.376"/>
</g>
<!-- utils.ts -->
<g id="node16" class="node"><title>utils.ts</title>
<path fill="none" stroke="#cfffac" d="M661.333,-134.928C661.333,-134.928 620.667,-134.928 620.667,-134.928 616.833,-134.928 613,-131.094 613,-127.261 613,-127.261 613,-119.594 613,-119.594 613,-115.761 616.833,-111.928 620.667,-111.928 620.667,-111.928 661.333,-111.928 661.333,-111.928 665.167,-111.928 669,-115.761 669,-119.594 669,-119.594 669,-127.261 669,-127.261 669,-131.094 665.167,-134.928 661.333,-134.928"/>
<text text-anchor="middle" x="641" y="-119.728" font-family="Arial" font-size="14.00" fill="#cfffac">utils.ts</text>
</g>
<!-- primitives/Game.ts&#45;&gt;utils.ts -->
<g id="edge36" class="edge"><title>primitives/Game.ts&#45;&gt;utils.ts</title>
<path fill="none" stroke="#757575" d="M512.403,-149.923C541.75,-143.829 576.997,-136.51 603.002,-131.11"/>
<polygon fill="#757575" stroke="#757575" points="603.755,-134.529 612.835,-129.068 602.332,-127.675 603.755,-134.529"/>
</g>
<!-- primitives/initialBoard.ts&#45;&gt;primitives/Board.ts -->
<g id="edge40" class="edge"><title>primitives/initialBoard.ts&#45;&gt;primitives/Board.ts</title>
<path fill="none" stroke="#757575" d="M538.066,-318.756C546.562,-318.896 555.179,-319.037 563.62,-319.175"/>
<polygon fill="#757575" stroke="#757575" points="563.753,-322.678 573.809,-319.342 563.868,-315.679 563.753,-322.678"/>
</g>
<!-- primitives/initialGame.ts&#45;&gt;primitives/Game.ts -->
<g id="edge41" class="edge"><title>primitives/initialGame.ts&#45;&gt;primitives/Game.ts</title>
<path fill="none" stroke="#757575" d="M313.648,-189.912C336.901,-185.226 363.94,-179.777 388.105,-174.908"/>
<polygon fill="#757575" stroke="#757575" points="388.8,-178.338 397.912,-172.931 387.417,-171.476 388.8,-178.338"/>
</g>
<!-- primitives/initialGame.ts&#45;&gt;primitives/initialBoard.ts -->
<g id="edge42" class="edge"><title>primitives/initialGame.ts&#45;&gt;primitives/initialBoard.ts</title>
<path fill="none" stroke="#757575" d="M270.999,-212.98C299.894,-235.935 362.844,-285.59 374,-291.428 382.168,-295.702 391.169,-299.438 400.111,-302.644"/>
<polygon fill="#757575" stroke="#757575" points="399.154,-306.015 409.748,-305.914 401.403,-299.386 399.154,-306.015"/>
</g>
<!-- primitives/Board.ts&#45;&gt;primitives/Piece.ts -->
<g id="edge29" class="edge"><title>primitives/Board.ts&#45;&gt;primitives/Piece.ts</title>
<path fill="none" stroke="#757575" d="M708.278,-312.809C718.831,-311.596 729.816,-310.334 740.562,-309.099"/>
<polygon fill="#757575" stroke="#757575" points="741.234,-312.544 750.769,-307.925 740.435,-305.59 741.234,-312.544"/>
</g>
<!-- primitives/Board.ts&#45;&gt;primitives/Position.ts -->
<g id="edge30" class="edge"><title>primitives/Board.ts&#45;&gt;primitives/Position.ts</title>
<path fill="none" stroke="#757575" d="M682.606,-308.91C691.112,-306.11 699.941,-302.907 708,-299.428 708.129,-299.372 754.307,-273.712 786.231,-255.972"/>
<polygon fill="#757575" stroke="#757575" points="788.169,-258.899 795.21,-250.982 784.769,-252.78 788.169,-258.899"/>
</g>
<!-- primitives/Piece.ts&#45;&gt;primitives/Side.ts -->
<g id="edge39" class="edge"><title>primitives/Piece.ts&#45;&gt;primitives/Side.ts</title>
<path fill="none" stroke="#757575" d="M839.409,-288.908C853.889,-280.953 873.338,-269.951 890,-259.428 915.723,-243.181 944.153,-223.096 963.642,-208.981"/>
<polygon fill="#757575" stroke="#757575" points="965.901,-211.666 971.926,-202.951 961.781,-206.007 965.901,-211.666"/>
</g>
<!-- index.ts -->
<g id="node9" class="node"><title>index.ts</title>
<path fill="none" stroke="#c6c5fe" d="M93.3333,-404.928C93.3333,-404.928 43.6667,-404.928 43.6667,-404.928 39.8333,-404.928 36,-401.094 36,-397.261 36,-397.261 36,-389.594 36,-389.594 36,-385.761 39.8333,-381.928 43.6667,-381.928 43.6667,-381.928 93.3333,-381.928 93.3333,-381.928 97.1667,-381.928 101,-385.761 101,-389.594 101,-389.594 101,-397.261 101,-397.261 101,-401.094 97.1667,-404.928 93.3333,-404.928"/>
<text text-anchor="middle" x="68.5" y="-389.728" font-family="Arial" font-size="14.00" fill="#c6c5fe">index.ts</text>
</g>
<!-- index.ts&#45;&gt;cli/showBoard.ts -->
<g id="edge8" class="edge"><title>index.ts&#45;&gt;cli/showBoard.ts</title>
<path fill="none" stroke="#757575" d="M74.3123,-405.134C86.2442,-432.382 120.106,-499.686 173,-525.428 249.263,-562.541 351.331,-544.433 409.434,-528.815"/>
<polygon fill="#757575" stroke="#757575" points="410.713,-532.092 419.41,-526.041 408.838,-525.348 410.713,-532.092"/>
</g>
<!-- index.ts&#45;&gt;primitives/Game.ts -->
<g id="edge11" class="edge"><title>index.ts&#45;&gt;primitives/Game.ts</title>
<path fill="none" stroke="#757575" d="M80.8075,-381.846C99.032,-363.602 136.556,-327.749 173,-303.428 241.115,-257.97 264.898,-258.334 338,-221.428 367.015,-206.779 399.947,-189.865 423.464,-177.736"/>
<polygon fill="#757575" stroke="#757575" points="425.332,-180.711 432.613,-173.014 422.122,-174.49 425.332,-180.711"/>
</g>
<!-- index.ts&#45;&gt;primitives/initialBoard.ts -->
<g id="edge15" class="edge"><title>index.ts&#45;&gt;primitives/initialBoard.ts</title>
<path fill="none" stroke="#757575" d="M101.047,-387.208C163.081,-374.978 302.209,-347.55 386.379,-330.956"/>
<polygon fill="#757575" stroke="#757575" points="387.228,-334.356 396.362,-328.988 385.874,-327.488 387.228,-334.356"/>
</g>
<!-- index.ts&#45;&gt;primitives/initialGame.ts -->
<g id="edge16" class="edge"><title>index.ts&#45;&gt;primitives/initialGame.ts</title>
<path fill="none" stroke="#757575" d="M73.4824,-381.819C84.4093,-351.695 117.775,-270.38 173,-227.428 178.277,-223.323 184.219,-219.858 190.427,-216.934"/>
<polygon fill="#757575" stroke="#757575" points="191.821,-220.145 199.669,-213.027 189.095,-213.698 191.821,-220.145"/>
</g>
<!-- index.ts&#45;&gt;primitives/Board.ts -->
<g id="edge10" class="edge"><title>index.ts&#45;&gt;primitives/Board.ts</title>
<path fill="none" stroke="#757575" d="M72.8844,-404.96C82.5518,-435.511 113.5,-518.386 173,-550.428 315.966,-627.416 405.487,-628.272 538,-534.428 570.15,-511.659 557.24,-489.08 574,-453.428 592.864,-413.298 616.178,-367.045 629.443,-341.018"/>
<polygon fill="#757575" stroke="#757575" points="632.572,-342.586 634.005,-332.089 626.339,-339.402 632.572,-342.586"/>
</g>
<!-- index.ts&#45;&gt;primitives/Piece.ts -->
<g id="edge13" class="edge"><title>index.ts&#45;&gt;primitives/Piece.ts</title>
<path fill="none" stroke="#757575" d="M71.3672,-405.246C77.7618,-441.228 102.429,-549.586 173,-592.428 193.904,-605.118 528.504,-586.224 538,-584.428 616.582,-569.558 648.332,-578.682 708,-525.428 771.476,-468.774 801.116,-366.655 811.482,-322.149"/>
<polygon fill="#757575" stroke="#757575" points="814.954,-322.659 813.71,-312.138 808.121,-321.138 814.954,-322.659"/>
</g>
<!-- play.ts -->
<g id="node10" class="node"><title>play.ts</title>
<path fill="none" stroke="#c6c5fe" d="M276.333,-444.928C276.333,-444.928 234.667,-444.928 234.667,-444.928 230.833,-444.928 227,-441.094 227,-437.261 227,-437.261 227,-429.594 227,-429.594 227,-425.761 230.833,-421.928 234.667,-421.928 234.667,-421.928 276.333,-421.928 276.333,-421.928 280.167,-421.928 284,-425.761 284,-429.594 284,-429.594 284,-437.261 284,-437.261 284,-441.094 280.167,-444.928 276.333,-444.928"/>
<text text-anchor="middle" x="255.5" y="-429.728" font-family="Arial" font-size="14.00" fill="#c6c5fe">play.ts</text>
</g>
<!-- index.ts&#45;&gt;play.ts -->
<g id="edge9" class="edge"><title>index.ts&#45;&gt;play.ts</title>
<path fill="none" stroke="#757575" d="M101.303,-400.304C133.322,-407.227 182.714,-417.906 216.713,-425.257"/>
<polygon fill="#757575" stroke="#757575" points="216.219,-428.731 226.733,-427.424 217.699,-421.89 216.219,-428.731"/>
</g>
<!-- index.ts&#45;&gt;primitives/Move.ts -->
<g id="edge12" class="edge"><title>index.ts&#45;&gt;primitives/Move.ts</title>
<path fill="none" stroke="#757575" d="M101.007,-391.733C151.263,-388.831 252.614,-382.163 338,-371.428 427.46,-360.18 458.462,-379.893 538,-337.428 558.523,-326.47 554.207,-311.653 574,-299.428 576.483,-297.894 579.091,-296.471 581.779,-295.152"/>
<polygon fill="#757575" stroke="#757575" points="583.392,-298.266 591.154,-291.054 580.589,-291.852 583.392,-298.266"/>
</g>
<!-- index.ts&#45;&gt;primitives/Position.ts -->
<g id="edge14" class="edge"><title>index.ts&#45;&gt;primitives/Position.ts</title>
<path fill="none" stroke="#757575" d="M87.4688,-381.85C107.559,-369.398 141.429,-349.853 173,-338.428 365.918,-268.614 608.789,-248.03 733.6,-241.963"/>
<polygon fill="#757575" stroke="#757575" points="734.017,-245.447 743.842,-241.484 733.69,-238.455 734.017,-245.447"/>
</g>
<!-- play.ts&#45;&gt;cli/showBoard.ts -->
<g id="edge24" class="edge"><title>play.ts&#45;&gt;cli/showBoard.ts</title>
<path fill="none" stroke="#757575" d="M284.209,-438.995C300.612,-443.068 321.369,-449.62 338,-459.428 356.957,-470.607 354.742,-482.775 374,-493.428 377.895,-495.582 382.018,-497.522 386.259,-499.267"/>
<polygon fill="#757575" stroke="#757575" points="385.095,-502.568 395.687,-502.785 387.542,-496.01 385.095,-502.568"/>
</g>
<!-- play.ts&#45;&gt;primitives/initialBoard.ts -->
<g id="edge27" class="edge"><title>play.ts&#45;&gt;primitives/initialBoard.ts</title>
<path fill="none" stroke="#757575" d="M276.259,-421.881C311.541,-401.263 385.5,-358.042 426.356,-334.167"/>
<polygon fill="#757575" stroke="#757575" points="428.159,-337.167 435.027,-329.1 424.627,-331.123 428.159,-337.167"/>
</g>
<!-- play.ts&#45;&gt;primitives/Board.ts -->
<g id="edge25" class="edge"><title>play.ts&#45;&gt;primitives/Board.ts</title>
<path fill="none" stroke="#757575" d="M284.229,-436.574C336.309,-441.318 451.306,-446.209 538,-409.428 574.098,-394.112 606.471,-360.954 624.64,-339.717"/>
<polygon fill="#757575" stroke="#757575" points="627.39,-341.884 631.1,-331.96 622.011,-337.405 627.39,-341.884"/>
</g>
<!-- play.ts&#45;&gt;primitives/Move.ts -->
<g id="edge26" class="edge"><title>play.ts&#45;&gt;primitives/Move.ts</title>
<path fill="none" stroke="#757575" d="M284.193,-427.656C354.172,-413.029 532.924,-375.383 538,-371.428 566.22,-349.436 546.652,-322.495 574,-299.428 575.353,-298.286 576.769,-297.211 578.238,-296.196"/>
<polygon fill="#757575" stroke="#757575" points="580.243,-299.079 587.134,-291.03 576.728,-293.025 580.243,-299.079"/>
</g>
<!-- primitives/validators.ts -->
<g id="node14" class="node"><title>primitives/validators.ts</title>
<path fill="none" stroke="#c6c5fe" d="M525.833,-484.928C525.833,-484.928 386.167,-484.928 386.167,-484.928 382.333,-484.928 378.5,-481.094 378.5,-477.261 378.5,-477.261 378.5,-469.594 378.5,-469.594 378.5,-465.761 382.333,-461.928 386.167,-461.928 386.167,-461.928 525.833,-461.928 525.833,-461.928 529.667,-461.928 533.5,-465.761 533.5,-469.594 533.5,-469.594 533.5,-477.261 533.5,-477.261 533.5,-481.094 529.667,-484.928 525.833,-484.928"/>
<text text-anchor="middle" x="456" y="-469.728" font-family="Arial" font-size="14.00" fill="#c6c5fe">primitives/validators.ts</text>
</g>
<!-- play.ts&#45;&gt;primitives/validators.ts -->
<g id="edge28" class="edge"><title>play.ts&#45;&gt;primitives/validators.ts</title>
<path fill="none" stroke="#757575" d="M284.101,-438.989C310.878,-444.385 352.555,-452.784 388.048,-459.936"/>
<polygon fill="#757575" stroke="#757575" points="387.382,-463.372 397.877,-461.917 388.765,-456.51 387.382,-463.372"/>
</g>
<!-- primitives/Move.ts&#45;&gt;primitives/Piece.ts -->
<g id="edge37" class="edge"><title>primitives/Move.ts&#45;&gt;primitives/Piece.ts</title>
<path fill="none" stroke="#757575" d="M706.297,-287.187C717.528,-288.543 729.302,-289.964 740.796,-291.351"/>
<polygon fill="#757575" stroke="#757575" points="740.457,-294.836 750.805,-292.559 741.296,-287.886 740.457,-294.836"/>
</g>
<!-- primitives/Move.ts&#45;&gt;primitives/Position.ts -->
<g id="edge38" class="edge"><title>primitives/Move.ts&#45;&gt;primitives/Position.ts</title>
<path fill="none" stroke="#757575" d="M692.328,-267.858C712.167,-263.297 735.119,-258.021 755.825,-253.261"/>
<polygon fill="#757575" stroke="#757575" points="756.823,-256.623 765.785,-250.971 755.255,-249.801 756.823,-256.623"/>
</g>
<!-- interactiveMoves.ts -->
<g id="node13" class="node"><title>interactiveMoves.ts</title>
<path fill="none" stroke="#c6c5fe" d="M129.333,-96.9275C129.333,-96.9275 7.66667,-96.9275 7.66667,-96.9275 3.83333,-96.9275 0,-93.0942 0,-89.2608 0,-89.2608 0,-81.5942 0,-81.5942 0,-77.7608 3.83333,-73.9275 7.66667,-73.9275 7.66667,-73.9275 129.333,-73.9275 129.333,-73.9275 133.167,-73.9275 137,-77.7608 137,-81.5942 137,-81.5942 137,-89.2608 137,-89.2608 137,-93.0942 133.167,-96.9275 129.333,-96.9275"/>
<text text-anchor="middle" x="68.5" y="-81.7275" font-family="Arial" font-size="14.00" fill="#c6c5fe">interactiveMoves.ts</text>
</g>
<!-- interactiveMoves.ts&#45;&gt;cli/showBoard.ts -->
<g id="edge17" class="edge"><title>interactiveMoves.ts&#45;&gt;cli/showBoard.ts</title>
<path fill="none" stroke="#757575" d="M76.9685,-97.0795C91.0948,-119.698 121.681,-171.544 137,-219.428 169.063,-319.647 100.5,-377.166 173,-453.428 224.589,-507.693 264.85,-471.453 338,-487.428 356.99,-491.575 377.668,-496.283 396.285,-500.593"/>
<polygon fill="#757575" stroke="#757575" points="395.569,-504.019 406.102,-502.873 397.153,-497.201 395.569,-504.019"/>
</g>
<!-- interactiveMoves.ts&#45;&gt;primitives/Game.ts -->
<g id="edge19" class="edge"><title>interactiveMoves.ts&#45;&gt;primitives/Game.ts</title>
<path fill="none" stroke="#757575" d="M86.4822,-73.7517C106.235,-60.9429 140.324,-41.1747 173,-33.4275 244.355,-16.5101 270.895,-3.85132 338,-33.4275 387.967,-55.4504 425.86,-110.517 443.707,-140.751"/>
<polygon fill="#757575" stroke="#757575" points="440.78,-142.683 448.787,-149.621 446.855,-139.204 440.78,-142.683"/>
</g>
<!-- interactiveMoves.ts&#45;&gt;primitives/initialBoard.ts -->
<g id="edge22" class="edge"><title>interactiveMoves.ts&#45;&gt;primitives/initialBoard.ts</title>
<path fill="none" stroke="#757575" d="M137.225,-92.5295C197.658,-102.352 284.614,-125.61 338,-180.428 374.185,-217.582 337.272,-254.81 374,-291.428 377.76,-295.177 382.062,-298.385 386.679,-301.132"/>
<polygon fill="#757575" stroke="#757575" points="385.393,-304.406 395.887,-305.864 388.592,-298.18 385.393,-304.406"/>
</g>
<!-- interactiveMoves.ts&#45;&gt;primitives/initialGame.ts -->
<g id="edge23" class="edge"><title>interactiveMoves.ts&#45;&gt;primitives/initialGame.ts</title>
<path fill="none" stroke="#757575" d="M87.9149,-96.9741C120.659,-117.506 189.148,-160.45 227.322,-184.386"/>
<polygon fill="#757575" stroke="#757575" points="225.553,-187.408 235.885,-189.755 229.272,-181.478 225.553,-187.408"/>
</g>
<!-- interactiveMoves.ts&#45;&gt;primitives/Board.ts -->
<g id="edge18" class="edge"><title>interactiveMoves.ts&#45;&gt;primitives/Board.ts</title>
<path fill="none" stroke="#757575" d="M137.051,-80.2578C206.37,-76.44 308.174,-75.4388 338,-99.4275 385.051,-137.27 332.693,-186.387 374,-230.428 389.111,-246.538 516.131,-284.942 589.044,-306.001"/>
<polygon fill="#757575" stroke="#757575" points="588.378,-309.452 598.956,-308.854 590.314,-302.725 588.378,-309.452"/>
</g>
<!-- interactiveMoves.ts&#45;&gt;primitives/Move.ts -->
<g id="edge20" class="edge"><title>interactiveMoves.ts&#45;&gt;primitives/Move.ts</title>
<path fill="none" stroke="#757575" d="M96.6208,-73.8523C148.893,-53.5412 264.872,-18.4155 338,-71.4275 379.648,-101.619 338.3,-144.392 374,-181.428 403.747,-212.287 516.159,-246.522 584.973,-265.252"/>
<polygon fill="#757575" stroke="#757575" points="584.228,-268.676 594.795,-267.901 586.051,-261.918 584.228,-268.676"/>
</g>
<!-- interactiveMoves.ts&#45;&gt;primitives/Position.ts -->
<g id="edge21" class="edge"><title>interactiveMoves.ts&#45;&gt;primitives/Position.ts</title>
<path fill="none" stroke="#757575" d="M80.8826,-73.6878C98.6344,-56.3189 134.854,-24.5267 173,-12.4275 242.901,9.74375 265.188,-3.69924 338,-12.4275 506.036,-32.5707 565.601,-10.9704 708,-102.428 754.219,-132.112 789.158,-188.501 805.6,-218.856"/>
<polygon fill="#757575" stroke="#757575" points="802.519,-220.516 810.28,-227.729 808.711,-217.251 802.519,-220.516"/>
</g>
<!-- primitives/validators.ts&#45;&gt;primitives/Board.ts -->
<g id="edge43" class="edge"><title>primitives/validators.ts&#45;&gt;primitives/Board.ts</title>
<path fill="none" stroke="#757575" d="M508.803,-461.778C518.997,-458.145 529.238,-453.453 538,-447.428 579.272,-419.048 612.26,-369.146 628.67,-341.088"/>
<polygon fill="#757575" stroke="#757575" points="631.857,-342.566 633.77,-332.145 625.776,-339.098 631.857,-342.566"/>
</g>
</g>
</svg>
