<?xml version="1.0" encoding="UTF-8" standalone="no"?>
<!DOCTYPE svg PUBLIC "-//W3C//DTD SVG 1.1//EN"
 "http://www.w3.org/Graphics/SVG/1.1/DTD/svg11.dtd">
<!-- Generated by graphviz version 2.38.0 (20140413.2041)
 -->
<!-- Title: G Pages: 1 -->
<svg width="1094pt" height="576pt"
 viewBox="0.00 0.00 1094.20 575.74" xmlns="http://www.w3.org/2000/svg" xmlns:xlink="http://www.w3.org/1999/xlink">
<g id="graph0" class="graph" transform="scale(1 1) rotate(0) translate(21.6 554.136)">
<title>G</title>
<polygon fill="#111111" stroke="none" points="-21.6,21.6 -21.6,-554.136 1072.6,-554.136 1072.6,21.6 -21.6,21.6"/>
<!-- availableMoves.ts -->
<g id="node1" class="node"><title>availableMoves.ts</title>
<path fill="none" stroke="#c6c5fe" d="M124.833,-209.642C124.833,-209.642 12.1667,-209.642 12.1667,-209.642 8.33333,-209.642 4.5,-205.809 4.5,-201.975 4.5,-201.975 4.5,-194.309 4.5,-194.309 4.5,-190.475 8.33333,-186.642 12.1667,-186.642 12.1667,-186.642 124.833,-186.642 124.833,-186.642 128.667,-186.642 132.5,-190.475 132.5,-194.309 132.5,-194.309 132.5,-201.975 132.5,-201.975 132.5,-205.809 128.667,-209.642 124.833,-209.642"/>
<text text-anchor="middle" x="68.5" y="-194.442" font-family="Arial" font-size="14.00" fill="#c6c5fe">availableMoves.ts</text>
</g>
<!-- cli/showBoard.ts -->
<g id="node2" class="node"><title>cli/showBoard.ts</title>
<path fill="none" stroke="#c6c5fe" d="M508.333,-443.642C508.333,-443.642 403.667,-443.642 403.667,-443.642 399.833,-443.642 396,-439.809 396,-435.975 396,-435.975 396,-428.309 396,-428.309 396,-424.475 399.833,-420.642 403.667,-420.642 403.667,-420.642 508.333,-420.642 508.333,-420.642 512.167,-420.642 516,-424.475 516,-428.309 516,-428.309 516,-435.975 516,-435.975 516,-439.809 512.167,-443.642 508.333,-443.642"/>
<text text-anchor="middle" x="456" y="-428.442" font-family="Arial" font-size="14.00" fill="#c6c5fe">cli/showBoard.ts</text>
</g>
<!-- availableMoves.ts&#45;&gt;cli/showBoard.ts -->
<g id="edge1" class="edge"><title>availableMoves.ts&#45;&gt;cli/showBoard.ts</title>
<path fill="none" stroke="#757575" d="M79.5353,-209.663C94.0184,-226.805 120.814,-260.518 137,-293.142 160.804,-341.118 131.227,-374.626 173,-408.142 204.662,-433.545 312.926,-436.154 385.722,-434.811"/>
<polygon fill="#757575" stroke="#757575" points="385.823,-438.31 395.746,-434.597 385.674,-431.311 385.823,-438.31"/>
</g>
<!-- primitives/Game.ts -->
<g id="node3" class="node"><title>primitives/Game.ts</title>
<path fill="none" stroke="#c6c5fe" d="M515.333,-164.642C515.333,-164.642 396.667,-164.642 396.667,-164.642 392.833,-164.642 389,-160.809 389,-156.975 389,-156.975 389,-149.309 389,-149.309 389,-145.475 392.833,-141.642 396.667,-141.642 396.667,-141.642 515.333,-141.642 515.333,-141.642 519.167,-141.642 523,-145.475 523,-149.309 523,-149.309 523,-156.975 523,-156.975 523,-160.809 519.167,-164.642 515.333,-164.642"/>
<text text-anchor="middle" x="456" y="-149.442" font-family="Arial" font-size="14.00" fill="#c6c5fe">primitives/Game.ts</text>
</g>
<!-- availableMoves.ts&#45;&gt;primitives/Game.ts -->
<g id="edge2" class="edge"><title>availableMoves.ts&#45;&gt;primitives/Game.ts</title>
<path fill="none" stroke="#757575" d="M120.361,-186.607C137.06,-183.146 155.759,-179.616 173,-177.142 242.397,-167.183 322.038,-160.87 378.947,-157.232"/>
<polygon fill="#757575" stroke="#757575" points="379.183,-160.724 388.944,-156.606 378.745,-153.738 379.183,-160.724"/>
</g>
<!-- primitives/initialGame.ts -->
<g id="node4" class="node"><title>primitives/initialGame.ts</title>
<path fill="none" stroke="#c6c5fe" d="M330.333,-209.642C330.333,-209.642 180.667,-209.642 180.667,-209.642 176.833,-209.642 173,-205.809 173,-201.975 173,-201.975 173,-194.309 173,-194.309 173,-190.475 176.833,-186.642 180.667,-186.642 180.667,-186.642 330.333,-186.642 330.333,-186.642 334.167,-186.642 338,-190.475 338,-194.309 338,-194.309 338,-201.975 338,-201.975 338,-205.809 334.167,-209.642 330.333,-209.642"/>
<text text-anchor="middle" x="255.5" y="-194.442" font-family="Arial" font-size="14.00" fill="#c6c5fe">primitives/initialGame.ts</text>
</g>
<!-- availableMoves.ts&#45;&gt;primitives/initialGame.ts -->
<g id="edge3" class="edge"><title>availableMoves.ts&#45;&gt;primitives/initialGame.ts</title>
<path fill="none" stroke="#757575" d="M132.649,-198.142C142.384,-198.142 152.602,-198.142 162.808,-198.142"/>
<polygon fill="#757575" stroke="#757575" points="162.99,-201.642 172.99,-198.142 162.99,-194.642 162.99,-201.642"/>
</g>
<!-- cli/strings.ts -->
<g id="node5" class="node"><title>cli/strings.ts</title>
<path fill="none" stroke="#cfffac" d="M678.833,-403.642C678.833,-403.642 603.167,-403.642 603.167,-403.642 599.333,-403.642 595.5,-399.809 595.5,-395.975 595.5,-395.975 595.5,-388.309 595.5,-388.309 595.5,-384.475 599.333,-380.642 603.167,-380.642 603.167,-380.642 678.833,-380.642 678.833,-380.642 682.667,-380.642 686.5,-384.475 686.5,-388.309 686.5,-388.309 686.5,-395.975 686.5,-395.975 686.5,-399.809 682.667,-403.642 678.833,-403.642"/>
<text text-anchor="middle" x="641" y="-388.442" font-family="Arial" font-size="14.00" fill="#cfffac">cli/strings.ts</text>
</g>
<!-- cli/showBoard.ts&#45;&gt;cli/strings.ts -->
<g id="edge4" class="edge"><title>cli/showBoard.ts&#45;&gt;cli/strings.ts</title>
<path fill="none" stroke="#757575" d="M509.931,-420.572C533.577,-415.404 561.428,-409.316 585.28,-404.103"/>
<polygon fill="#757575" stroke="#757575" points="586.211,-407.482 595.233,-401.927 584.716,-400.643 586.211,-407.482"/>
</g>
<!-- primitives/Board.ts -->
<g id="node6" class="node"><title>primitives/Board.ts</title>
<path fill="none" stroke="#c6c5fe" d="M700.333,-285.642C700.333,-285.642 581.667,-285.642 581.667,-285.642 577.833,-285.642 574,-281.809 574,-277.975 574,-277.975 574,-270.309 574,-270.309 574,-266.475 577.833,-262.642 581.667,-262.642 581.667,-262.642 700.333,-262.642 700.333,-262.642 704.167,-262.642 708,-266.475 708,-270.309 708,-270.309 708,-277.975 708,-277.975 708,-281.809 704.167,-285.642 700.333,-285.642"/>
<text text-anchor="middle" x="641" y="-270.442" font-family="Arial" font-size="14.00" fill="#c6c5fe">primitives/Board.ts</text>
</g>
<!-- cli/showBoard.ts&#45;&gt;primitives/Board.ts -->
<g id="edge5" class="edge"><title>cli/showBoard.ts&#45;&gt;primitives/Board.ts</title>
<path fill="none" stroke="#757575" d="M516.13,-421.882C523.851,-419.115 531.371,-415.602 538,-411.142 549.794,-403.207 601.146,-330.297 626.179,-294.199"/>
<polygon fill="#757575" stroke="#757575" points="629.125,-296.092 631.936,-285.877 623.369,-292.11 629.125,-296.092"/>
</g>
<!-- primitives/Piece.ts -->
<g id="node7" class="node"><title>primitives/Piece.ts</title>
<path fill="none" stroke="#c6c5fe" d="M875.333,-264.642C875.333,-264.642 758.667,-264.642 758.667,-264.642 754.833,-264.642 751,-260.809 751,-256.975 751,-256.975 751,-249.309 751,-249.309 751,-245.475 754.833,-241.642 758.667,-241.642 758.667,-241.642 875.333,-241.642 875.333,-241.642 879.167,-241.642 883,-245.475 883,-249.309 883,-249.309 883,-256.975 883,-256.975 883,-260.809 879.167,-264.642 875.333,-264.642"/>
<text text-anchor="middle" x="817" y="-249.442" font-family="Arial" font-size="14.00" fill="#c6c5fe">primitives/Piece.ts</text>
</g>
<!-- cli/showBoard.ts&#45;&gt;primitives/Piece.ts -->
<g id="edge6" class="edge"><title>cli/showBoard.ts&#45;&gt;primitives/Piece.ts</title>
<path fill="none" stroke="#757575" d="M516.03,-441.168C569.77,-446.356 649.43,-446.21 708,-412.142 762.083,-380.684 794.877,-310.018 808.556,-274.449"/>
<polygon fill="#757575" stroke="#757575" points="811.859,-275.607 812.05,-265.013 805.295,-273.176 811.859,-275.607"/>
</g>
<!-- primitives/Game.ts&#45;&gt;primitives/Board.ts -->
<g id="edge29" class="edge"><title>primitives/Game.ts&#45;&gt;primitives/Board.ts</title>
<path fill="none" stroke="#757575" d="M513.711,-164.8C522.494,-168.377 530.97,-173.047 538,-179.142 565.634,-203.102 546.336,-229.218 574,-253.142 575.774,-254.676 577.66,-256.098 579.631,-257.416"/>
<polygon fill="#757575" stroke="#757575" points="578.308,-260.688 588.737,-262.557 581.75,-254.593 578.308,-260.688"/>
</g>
<!-- primitives/Game.ts&#45;&gt;primitives/Piece.ts -->
<g id="edge31" class="edge"><title>primitives/Game.ts&#45;&gt;primitives/Piece.ts</title>
<path fill="none" stroke="#757575" d="M515.908,-164.693C567.149,-175.284 643.149,-192.305 708,-212.142 732.007,-219.485 758.358,-229.45 779.022,-237.717"/>
<polygon fill="#757575" stroke="#757575" points="777.796,-240.997 788.379,-241.5 780.42,-234.507 777.796,-240.997"/>
</g>
<!-- primitives/Move.ts -->
<g id="node10" class="node"><title>primitives/Move.ts</title>
<path fill="none" stroke="#c6c5fe" d="M698.333,-244.642C698.333,-244.642 583.667,-244.642 583.667,-244.642 579.833,-244.642 576,-240.809 576,-236.975 576,-236.975 576,-229.309 576,-229.309 576,-225.475 579.833,-221.642 583.667,-221.642 583.667,-221.642 698.333,-221.642 698.333,-221.642 702.167,-221.642 706,-225.475 706,-229.309 706,-229.309 706,-236.975 706,-236.975 706,-240.809 702.167,-244.642 698.333,-244.642"/>
<text text-anchor="middle" x="641" y="-229.442" font-family="Arial" font-size="14.00" fill="#c6c5fe">primitives/Move.ts</text>
</g>
<!-- primitives/Game.ts&#45;&gt;primitives/Move.ts -->
<g id="edge30" class="edge"><title>primitives/Game.ts&#45;&gt;primitives/Move.ts</title>
<path fill="none" stroke="#757575" d="M502.703,-164.736C514.537,-168.559 527.029,-173.349 538,-179.142 555.924,-188.607 556.391,-197.103 574,-207.142 580.846,-211.045 588.392,-214.621 595.862,-217.79"/>
<polygon fill="#757575" stroke="#757575" points="594.641,-221.071 605.223,-221.58 597.268,-214.583 594.641,-221.071"/>
</g>
<!-- primitives/Position.ts -->
<g id="node11" class="node"><title>primitives/Position.ts</title>
<path fill="none" stroke="#cfffac" d="M882.333,-124.642C882.333,-124.642 751.667,-124.642 751.667,-124.642 747.833,-124.642 744,-120.809 744,-116.975 744,-116.975 744,-109.309 744,-109.309 744,-105.475 747.833,-101.642 751.667,-101.642 751.667,-101.642 882.333,-101.642 882.333,-101.642 886.167,-101.642 890,-105.475 890,-109.309 890,-109.309 890,-116.975 890,-116.975 890,-120.809 886.167,-124.642 882.333,-124.642"/>
<text text-anchor="middle" x="817" y="-109.442" font-family="Arial" font-size="14.00" fill="#cfffac">primitives/Position.ts</text>
</g>
<!-- primitives/Game.ts&#45;&gt;primitives/Position.ts -->
<g id="edge32" class="edge"><title>primitives/Game.ts&#45;&gt;primitives/Position.ts</title>
<path fill="none" stroke="#757575" d="M514.549,-141.64C533.43,-138.181 554.555,-134.644 574,-132.142 626.96,-125.327 686.777,-120.604 733.69,-117.571"/>
<polygon fill="#757575" stroke="#757575" points="734.042,-121.056 743.801,-116.931 733.599,-114.07 734.042,-121.056"/>
</g>
<!-- primitives/Side.ts -->
<g id="node15" class="node"><title>primitives/Side.ts</title>
<path fill="none" stroke="#cfffac" d="M1043.33,-92.642C1043.33,-92.642 933.667,-92.642 933.667,-92.642 929.833,-92.642 926,-88.8087 926,-84.9753 926,-84.9753 926,-77.3087 926,-77.3087 926,-73.4753 929.833,-69.642 933.667,-69.642 933.667,-69.642 1043.33,-69.642 1043.33,-69.642 1047.17,-69.642 1051,-73.4753 1051,-77.3087 1051,-77.3087 1051,-84.9753 1051,-84.9753 1051,-88.8087 1047.17,-92.642 1043.33,-92.642"/>
<text text-anchor="middle" x="988.5" y="-77.442" font-family="Arial" font-size="14.00" fill="#cfffac">primitives/Side.ts</text>
</g>
<!-- primitives/Game.ts&#45;&gt;primitives/Side.ts -->
<g id="edge33" class="edge"><title>primitives/Game.ts&#45;&gt;primitives/Side.ts</title>
<path fill="none" stroke="#757575" d="M488.885,-141.477C512.189,-133.342 544.707,-122.793 574,-116.142 691.689,-89.4202 832.408,-82.6831 915.626,-81.2183"/>
<polygon fill="#757575" stroke="#757575" points="915.789,-84.7163 925.733,-81.0615 915.68,-77.7172 915.789,-84.7163"/>
</g>
<!-- utils.ts -->
<g id="node16" class="node"><title>utils.ts</title>
<path fill="none" stroke="#cfffac" d="M661.333,-164.642C661.333,-164.642 620.667,-164.642 620.667,-164.642 616.833,-164.642 613,-160.809 613,-156.975 613,-156.975 613,-149.309 613,-149.309 613,-145.475 616.833,-141.642 620.667,-141.642 620.667,-141.642 661.333,-141.642 661.333,-141.642 665.167,-141.642 669,-145.475 669,-149.309 669,-149.309 669,-156.975 669,-156.975 669,-160.809 665.167,-164.642 661.333,-164.642"/>
<text text-anchor="middle" x="641" y="-149.442" font-family="Arial" font-size="14.00" fill="#cfffac">utils.ts</text>
</g>
<!-- primitives/Game.ts&#45;&gt;utils.ts -->
<g id="edge34" class="edge"><title>primitives/Game.ts&#45;&gt;utils.ts</title>
<path fill="none" stroke="#757575" d="M523.067,-153.142C549.759,-153.142 579.586,-153.142 602.436,-153.142"/>
<polygon fill="#757575" stroke="#757575" points="602.727,-156.642 612.727,-153.142 602.727,-149.642 602.727,-156.642"/>
</g>
<!-- primitives/initialGame.ts&#45;&gt;primitives/Game.ts -->
<g id="edge39" class="edge"><title>primitives/initialGame.ts&#45;&gt;primitives/Game.ts</title>
<path fill="none" stroke="#757575" d="M307.361,-186.612C333.858,-180.605 366.447,-173.217 394.26,-166.912"/>
<polygon fill="#757575" stroke="#757575" points="395.293,-170.267 404.271,-164.642 393.745,-163.44 395.293,-170.267"/>
</g>
<!-- primitives/initialBoard.ts -->
<g id="node12" class="node"><title>primitives/initialBoard.ts</title>
<path fill="none" stroke="#c6c5fe" d="M530.333,-284.642C530.333,-284.642 381.667,-284.642 381.667,-284.642 377.833,-284.642 374,-280.809 374,-276.975 374,-276.975 374,-269.309 374,-269.309 374,-265.475 377.833,-261.642 381.667,-261.642 381.667,-261.642 530.333,-261.642 530.333,-261.642 534.167,-261.642 538,-265.475 538,-269.309 538,-269.309 538,-276.975 538,-276.975 538,-280.809 534.167,-284.642 530.333,-284.642"/>
<text text-anchor="middle" x="456" y="-269.442" font-family="Arial" font-size="14.00" fill="#c6c5fe">primitives/initialBoard.ts</text>
</g>
<!-- primitives/initialGame.ts&#45;&gt;primitives/initialBoard.ts -->
<g id="edge40" class="edge"><title>primitives/initialGame.ts&#45;&gt;primitives/initialBoard.ts</title>
<path fill="none" stroke="#757575" d="M287.081,-209.696C321.323,-222.634 376.954,-243.653 414.717,-257.922"/>
<polygon fill="#757575" stroke="#757575" points="413.793,-261.314 424.385,-261.574 416.267,-254.766 413.793,-261.314"/>
</g>
<!-- primitives/Board.ts&#45;&gt;primitives/Piece.ts -->
<g id="edge27" class="edge"><title>primitives/Board.ts&#45;&gt;primitives/Piece.ts</title>
<path fill="none" stroke="#757575" d="M708.278,-266.143C718.831,-264.869 729.816,-263.543 740.562,-262.247"/>
<polygon fill="#757575" stroke="#757575" points="741.26,-265.688 750.769,-261.015 740.422,-258.738 741.26,-265.688"/>
</g>
<!-- primitives/Board.ts&#45;&gt;primitives/Position.ts -->
<g id="edge28" class="edge"><title>primitives/Board.ts&#45;&gt;primitives/Position.ts</title>
<path fill="none" stroke="#757575" d="M690.494,-262.508C696.67,-259.954 702.681,-256.866 708,-253.142 753.606,-221.207 788.8,-164.25 805.444,-133.756"/>
<polygon fill="#757575" stroke="#757575" points="808.575,-135.323 810.186,-124.851 802.396,-132.033 808.575,-135.323"/>
</g>
<!-- primitives/Piece.ts&#45;&gt;primitives/Side.ts -->
<g id="edge37" class="edge"><title>primitives/Piece.ts&#45;&gt;primitives/Side.ts</title>
<path fill="none" stroke="#757575" d="M829.385,-241.59C858.092,-212.459 933.648,-135.788 968.897,-100.02"/>
<polygon fill="#757575" stroke="#757575" points="971.639,-102.224 976.165,-92.6442 966.653,-97.3102 971.639,-102.224"/>
</g>
<!-- index.ts -->
<g id="node8" class="node"><title>index.ts</title>
<path fill="none" stroke="#c6c5fe" d="M93.3333,-325.642C93.3333,-325.642 43.6667,-325.642 43.6667,-325.642 39.8333,-325.642 36,-321.809 36,-317.975 36,-317.975 36,-310.309 36,-310.309 36,-306.475 39.8333,-302.642 43.6667,-302.642 43.6667,-302.642 93.3333,-302.642 93.3333,-302.642 97.1667,-302.642 101,-306.475 101,-310.309 101,-310.309 101,-317.975 101,-317.975 101,-321.809 97.1667,-325.642 93.3333,-325.642"/>
<text text-anchor="middle" x="68.5" y="-310.442" font-family="Arial" font-size="14.00" fill="#c6c5fe">index.ts</text>
</g>
<!-- index.ts&#45;&gt;cli/showBoard.ts -->
<g id="edge7" class="edge"><title>index.ts&#45;&gt;cli/showBoard.ts</title>
<path fill="none" stroke="#757575" d="M74.3123,-325.848C86.2442,-353.097 120.106,-420.401 173,-446.142 250.338,-483.779 354.14,-463.246 411.795,-446.601"/>
<polygon fill="#757575" stroke="#757575" points="413.082,-449.87 421.666,-443.659 411.083,-443.162 413.082,-449.87"/>
</g>
<!-- index.ts&#45;&gt;primitives/Game.ts -->
<g id="edge10" class="edge"><title>index.ts&#45;&gt;primitives/Game.ts</title>
<path fill="none" stroke="#757575" d="M89.5593,-302.51C110.013,-291.025 142.923,-273.569 173,-262.142 243.948,-235.186 267.627,-246.565 338,-218.142 370.716,-204.929 405.784,-184.522 428.904,-170.104"/>
<polygon fill="#757575" stroke="#757575" points="430.859,-173.009 437.446,-164.71 427.122,-167.09 430.859,-173.009"/>
</g>
<!-- index.ts&#45;&gt;primitives/initialGame.ts -->
<g id="edge15" class="edge"><title>index.ts&#45;&gt;primitives/initialGame.ts</title>
<path fill="none" stroke="#757575" d="M79.8242,-302.504C97.251,-283.525 134.395,-245.852 173,-224.142 180.619,-219.858 189.041,-216.169 197.496,-213.029"/>
<polygon fill="#757575" stroke="#757575" points="198.722,-216.308 207.014,-209.714 196.419,-209.698 198.722,-216.308"/>
</g>
<!-- index.ts&#45;&gt;primitives/Board.ts -->
<g id="edge9" class="edge"><title>index.ts&#45;&gt;primitives/Board.ts</title>
<path fill="none" stroke="#757575" d="M72.8844,-325.674C82.5518,-356.226 113.5,-439.101 173,-471.142 237.567,-505.912 264.749,-474.614 338,-471.142 427.189,-466.915 465.519,-504.287 538,-452.142 569.979,-429.135 554.842,-405.566 574,-371.142 589.563,-343.178 610.883,-313.002 625.032,-293.862"/>
<polygon fill="#757575" stroke="#757575" points="627.984,-295.758 631.163,-285.651 622.375,-291.57 627.984,-295.758"/>
</g>
<!-- index.ts&#45;&gt;primitives/Piece.ts -->
<g id="edge12" class="edge"><title>index.ts&#45;&gt;primitives/Piece.ts</title>
<path fill="none" stroke="#757575" d="M71.9774,-325.817C79.8055,-359.395 107.475,-456.234 173,-494.142 313.506,-575.429 377.383,-504.63 538,-481.142 614.702,-469.925 645.757,-488.347 708,-442.142 766.372,-398.81 798,-313.884 810.118,-274.339"/>
<polygon fill="#757575" stroke="#757575" points="813.497,-275.255 812.964,-264.674 806.782,-273.278 813.497,-275.255"/>
</g>
<!-- play.ts -->
<g id="node9" class="node"><title>play.ts</title>
<path fill="none" stroke="#c6c5fe" d="M276.333,-365.642C276.333,-365.642 234.667,-365.642 234.667,-365.642 230.833,-365.642 227,-361.809 227,-357.975 227,-357.975 227,-350.309 227,-350.309 227,-346.475 230.833,-342.642 234.667,-342.642 234.667,-342.642 276.333,-342.642 276.333,-342.642 280.167,-342.642 284,-346.475 284,-350.309 284,-350.309 284,-357.975 284,-357.975 284,-361.809 280.167,-365.642 276.333,-365.642"/>
<text text-anchor="middle" x="255.5" y="-350.442" font-family="Arial" font-size="14.00" fill="#c6c5fe">play.ts</text>
</g>
<!-- index.ts&#45;&gt;play.ts -->
<g id="edge8" class="edge"><title>index.ts&#45;&gt;play.ts</title>
<path fill="none" stroke="#757575" d="M101.303,-321.018C133.322,-327.941 182.714,-338.621 216.713,-345.972"/>
<polygon fill="#757575" stroke="#757575" points="216.219,-349.446 226.733,-348.138 217.699,-342.604 216.219,-349.446"/>
</g>
<!-- index.ts&#45;&gt;primitives/Move.ts -->
<g id="edge11" class="edge"><title>index.ts&#45;&gt;primitives/Move.ts</title>
<path fill="none" stroke="#757575" d="M101.134,-306.452C121.589,-301.568 148.812,-295.231 173,-290.142 261.968,-271.425 283.841,-263.845 374,-252.142 438.484,-243.772 512.276,-238.867 565.754,-236.145"/>
<polygon fill="#757575" stroke="#757575" points="566.019,-239.636 575.833,-235.645 565.672,-232.645 566.019,-239.636"/>
</g>
<!-- index.ts&#45;&gt;primitives/Position.ts -->
<g id="edge13" class="edge"><title>index.ts&#45;&gt;primitives/Position.ts</title>
<path fill="none" stroke="#757575" d="M77.6769,-302.384C99.7864,-270.73 159.967,-185.533 173,-177.142 350.476,-62.8777 614.414,-82.0047 741.848,-100.168"/>
<polygon fill="#757575" stroke="#757575" points="741.495,-103.654 751.896,-101.639 742.509,-96.7276 741.495,-103.654"/>
</g>
<!-- index.ts&#45;&gt;primitives/initialBoard.ts -->
<g id="edge14" class="edge"><title>index.ts&#45;&gt;primitives/initialBoard.ts</title>
<path fill="none" stroke="#757575" d="M101.384,-311.864C151.734,-308.138 252.706,-300.143 338,-290.142 348.274,-288.937 359.036,-287.548 369.697,-286.094"/>
<polygon fill="#757575" stroke="#757575" points="370.444,-289.524 379.868,-284.684 369.482,-282.59 370.444,-289.524"/>
</g>
<!-- play.ts&#45;&gt;cli/showBoard.ts -->
<g id="edge22" class="edge"><title>play.ts&#45;&gt;cli/showBoard.ts</title>
<path fill="none" stroke="#757575" d="M284.048,-359.989C300.395,-364.161 321.148,-370.719 338,-380.142 356.429,-390.447 355.294,-401.349 374,-411.142 378.279,-413.382 382.814,-415.395 387.464,-417.201"/>
<polygon fill="#757575" stroke="#757575" points="386.535,-420.585 397.129,-420.626 388.873,-413.987 386.535,-420.585"/>
</g>
<!-- play.ts&#45;&gt;primitives/Board.ts -->
<g id="edge23" class="edge"><title>play.ts&#45;&gt;primitives/Board.ts</title>
<path fill="none" stroke="#757575" d="M284.336,-354.945C335.636,-355.671 448.074,-353.724 538,-327.142 565.549,-318.998 594.368,-303.255 614.318,-291.033"/>
<polygon fill="#757575" stroke="#757575" points="616.206,-293.98 622.823,-285.706 612.49,-288.048 616.206,-293.98"/>
</g>
<!-- play.ts&#45;&gt;primitives/Move.ts -->
<g id="edge24" class="edge"><title>play.ts&#45;&gt;primitives/Move.ts</title>
<path fill="none" stroke="#757575" d="M284.002,-347.647C307.791,-342.071 343.123,-333.889 374,-327.142 446.723,-311.25 473.445,-330.207 538,-293.142 558.742,-281.233 553.814,-265.97 574,-253.142 576.416,-251.607 578.956,-250.184 581.576,-248.866"/>
<polygon fill="#757575" stroke="#757575" points="583.026,-252.051 590.729,-244.777 580.171,-245.66 583.026,-252.051"/>
</g>
<!-- play.ts&#45;&gt;primitives/initialBoard.ts -->
<g id="edge25" class="edge"><title>play.ts&#45;&gt;primitives/initialBoard.ts</title>
<path fill="none" stroke="#757575" d="M284.315,-347.995C300.564,-343.748 321.127,-337.217 338,-328.142 356.094,-318.41 355.914,-308.89 374,-299.142 381.84,-294.916 390.481,-291.238 399.111,-288.085"/>
<polygon fill="#757575" stroke="#757575" points="400.491,-291.312 408.806,-284.747 398.212,-284.693 400.491,-291.312"/>
</g>
<!-- primitives/validators.ts -->
<g id="node14" class="node"><title>primitives/validators.ts</title>
<path fill="none" stroke="#c6c5fe" d="M525.833,-402.642C525.833,-402.642 386.167,-402.642 386.167,-402.642 382.333,-402.642 378.5,-398.809 378.5,-394.975 378.5,-394.975 378.5,-387.309 378.5,-387.309 378.5,-383.475 382.333,-379.642 386.167,-379.642 386.167,-379.642 525.833,-379.642 525.833,-379.642 529.667,-379.642 533.5,-383.475 533.5,-387.309 533.5,-387.309 533.5,-394.975 533.5,-394.975 533.5,-398.809 529.667,-402.642 525.833,-402.642"/>
<text text-anchor="middle" x="456" y="-387.442" font-family="Arial" font-size="14.00" fill="#c6c5fe">primitives/validators.ts</text>
</g>
<!-- play.ts&#45;&gt;primitives/validators.ts -->
<g id="edge26" class="edge"><title>play.ts&#45;&gt;primitives/validators.ts</title>
<path fill="none" stroke="#757575" d="M284.101,-359.287C309.6,-364.04 348.611,-371.311 382.926,-377.708"/>
<polygon fill="#757575" stroke="#757575" points="382.461,-381.181 392.933,-379.573 383.744,-374.3 382.461,-381.181"/>
</g>
<!-- primitives/Move.ts&#45;&gt;primitives/Piece.ts -->
<g id="edge35" class="edge"><title>primitives/Move.ts&#45;&gt;primitives/Piece.ts</title>
<path fill="none" stroke="#757575" d="M706.297,-240.532C717.528,-241.823 729.302,-243.177 740.796,-244.498"/>
<polygon fill="#757575" stroke="#757575" points="740.47,-247.983 750.805,-245.648 741.27,-241.029 740.47,-247.983"/>
</g>
<!-- primitives/Move.ts&#45;&gt;primitives/Position.ts -->
<g id="edge36" class="edge"><title>primitives/Move.ts&#45;&gt;primitives/Position.ts</title>
<path fill="none" stroke="#757575" d="M658.684,-221.636C689.266,-200.545 754.47,-155.576 790.593,-130.664"/>
<polygon fill="#757575" stroke="#757575" points="792.866,-133.348 799.111,-124.79 788.892,-127.586 792.866,-133.348"/>
</g>
<!-- primitives/initialBoard.ts&#45;&gt;primitives/Board.ts -->
<g id="edge38" class="edge"><title>primitives/initialBoard.ts&#45;&gt;primitives/Board.ts</title>
<path fill="none" stroke="#757575" d="M538.066,-273.585C546.562,-273.631 555.179,-273.679 563.62,-273.725"/>
<polygon fill="#757575" stroke="#757575" points="563.79,-277.226 573.809,-273.78 563.828,-270.226 563.79,-277.226"/>
</g>
<!-- interactiveMoves.ts -->
<g id="node13" class="node"><title>interactiveMoves.ts</title>
<path fill="none" stroke="#c6c5fe" d="M129.333,-74.642C129.333,-74.642 7.66667,-74.642 7.66667,-74.642 3.83333,-74.642 0,-70.8087 0,-66.9753 0,-66.9753 0,-59.3087 0,-59.3087 0,-55.4753 3.83333,-51.642 7.66667,-51.642 7.66667,-51.642 129.333,-51.642 129.333,-51.642 133.167,-51.642 137,-55.4753 137,-59.3087 137,-59.3087 137,-66.9753 137,-66.9753 137,-70.8087 133.167,-74.642 129.333,-74.642"/>
<text text-anchor="middle" x="68.5" y="-59.442" font-family="Arial" font-size="14.00" fill="#c6c5fe">interactiveMoves.ts</text>
</g>
<!-- interactiveMoves.ts&#45;&gt;cli/showBoard.ts -->
<g id="edge16" class="edge"><title>interactiveMoves.ts&#45;&gt;cli/showBoard.ts</title>
<path fill="none" stroke="#757575" d="M78.2859,-74.7422C92.8658,-94.5947 121.942,-136.852 137,-177.142 168.16,-260.515 110.763,-310.514 173,-374.142 173.12,-374.264 305.414,-401.438 388.735,-418.542"/>
<polygon fill="#757575" stroke="#757575" points="388.142,-421.993 398.642,-420.576 389.55,-415.136 388.142,-421.993"/>
</g>
<!-- interactiveMoves.ts&#45;&gt;primitives/Game.ts -->
<g id="edge18" class="edge"><title>interactiveMoves.ts&#45;&gt;primitives/Game.ts</title>
<path fill="none" stroke="#757575" d="M114.296,-51.6194C170.58,-39.768 268.237,-28.1267 338,-68.142 364.646,-83.4259 349.861,-108.144 374,-127.142 379.103,-131.158 384.843,-134.562 390.849,-137.445"/>
<polygon fill="#757575" stroke="#757575" points="389.885,-140.839 400.456,-141.559 392.642,-134.405 389.885,-140.839"/>
</g>
<!-- interactiveMoves.ts&#45;&gt;primitives/initialGame.ts -->
<g id="edge21" class="edge"><title>interactiveMoves.ts&#45;&gt;primitives/initialGame.ts</title>
<path fill="none" stroke="#757575" d="M85.273,-74.652C117.686,-98.3047 191.96,-152.505 230.425,-180.574"/>
<polygon fill="#757575" stroke="#757575" points="228.363,-183.402 238.504,-186.469 232.489,-177.747 228.363,-183.402"/>
</g>
<!-- interactiveMoves.ts&#45;&gt;primitives/Board.ts -->
<g id="edge17" class="edge"><title>interactiveMoves.ts&#45;&gt;primitives/Board.ts</title>
<path fill="none" stroke="#757575" d="M98.5929,-74.7078C175.654,-105.21 391.641,-189.839 574,-253.142 580.038,-255.238 586.414,-257.369 592.728,-259.43"/>
<polygon fill="#757575" stroke="#757575" points="591.949,-262.856 602.54,-262.596 594.098,-256.195 591.949,-262.856"/>
</g>
<!-- interactiveMoves.ts&#45;&gt;primitives/Move.ts -->
<g id="edge19" class="edge"><title>interactiveMoves.ts&#45;&gt;primitives/Move.ts</title>
<path fill="none" stroke="#757575" d="M106.448,-51.5091C126.01,-45.9514 150.568,-39.9165 173,-37.142 245.779,-28.1405 266.462,-21.0151 338,-37.142 433.998,-58.7829 459.472,-72.8348 538,-132.142 557.351,-146.757 557.001,-155.848 574,-173.142 588.383,-187.775 605.558,-203.334 618.782,-214.94"/>
<polygon fill="#757575" stroke="#757575" points="616.604,-217.685 626.444,-221.612 621.201,-212.406 616.604,-217.685"/>
</g>
<!-- interactiveMoves.ts&#45;&gt;primitives/Position.ts -->
<g id="edge20" class="edge"><title>interactiveMoves.ts&#45;&gt;primitives/Position.ts</title>
<path fill="none" stroke="#757575" d="M93.0554,-51.4637C113.591,-41.9731 144.474,-29.3381 173,-24.142 407.487,18.5709 478.558,3.3956 708,-61.142 736.793,-69.241 767.299,-84.6372 788.518,-96.5837"/>
<polygon fill="#757575" stroke="#757575" points="786.878,-99.678 797.292,-101.626 790.365,-93.6088 786.878,-99.678"/>
</g>
<!-- primitives/validators.ts&#45;&gt;primitives/Board.ts -->
<g id="edge41" class="edge"><title>primitives/validators.ts&#45;&gt;primitives/Board.ts</title>
<path fill="none" stroke="#757575" d="M504.246,-379.63C515.693,-375.865 527.615,-371.081 538,-365.142 571.826,-345.796 604.223,-313.828 623.108,-293.39"/>
<polygon fill="#757575" stroke="#757575" points="625.76,-295.676 629.886,-285.917 620.575,-290.973 625.76,-295.676"/>
</g>
</g>
</svg>
