<?xml version="1.0" encoding="UTF-8" standalone="no"?>
<!DOCTYPE svg PUBLIC "-//W3C//DTD SVG 1.1//EN"
 "http://www.w3.org/Graphics/SVG/1.1/DTD/svg11.dtd">
<!-- Generated by graphviz version 2.38.0 (20140413.2041)
 -->
<!-- Title: G Pages: 1 -->
<svg width="821pt" height="191pt"
 viewBox="0.00 0.00 821.20 191.31" xmlns="http://www.w3.org/2000/svg" xmlns:xlink="http://www.w3.org/1999/xlink">
<g id="graph0" class="graph" transform="scale(1 1) rotate(0) translate(21.6 169.712)">
<title>G</title>
<polygon fill="#111111" stroke="none" points="-21.6,21.6 -21.6,-169.712 799.6,-169.712 799.6,21.6 -21.6,21.6"/>
<!-- index.ts -->
<g id="node1" class="node"><title>index.ts</title>
<path fill="none" stroke="#c6c5fe" d="M57.3333,-76.5966C57.3333,-76.5966 7.66667,-76.5966 7.66667,-76.5966 3.83333,-76.5966 0,-72.7633 0,-68.9299 0,-68.9299 0,-61.2633 0,-61.2633 0,-57.4299 3.83333,-53.5966 7.66667,-53.5966 7.66667,-53.5966 57.3333,-53.5966 57.3333,-53.5966 61.1667,-53.5966 65,-57.4299 65,-61.2633 65,-61.2633 65,-68.9299 65,-68.9299 65,-72.7633 61.1667,-76.5966 57.3333,-76.5966"/>
<text text-anchor="middle" x="32.5" y="-61.3966" font-family="Arial" font-size="14.00" fill="#c6c5fe">index.ts</text>
</g>
<!-- primitives/Board.ts -->
<g id="node2" class="node"><title>primitives/Board.ts</title>
<path fill="none" stroke="#c6c5fe" d="M427.333,-81.5966C427.333,-81.5966 308.667,-81.5966 308.667,-81.5966 304.833,-81.5966 301,-77.7633 301,-73.9299 301,-73.9299 301,-66.2633 301,-66.2633 301,-62.4299 304.833,-58.5966 308.667,-58.5966 308.667,-58.5966 427.333,-58.5966 427.333,-58.5966 431.167,-58.5966 435,-62.4299 435,-66.2633 435,-66.2633 435,-73.9299 435,-73.9299 435,-77.7633 431.167,-81.5966 427.333,-81.5966"/>
<text text-anchor="middle" x="368" y="-66.3966" font-family="Arial" font-size="14.00" fill="#c6c5fe">primitives/Board.ts</text>
</g>
<!-- index.ts&#45;&gt;primitives/Board.ts -->
<g id="edge1" class="edge"><title>index.ts&#45;&gt;primitives/Board.ts</title>
<path fill="none" stroke="#757575" d="M65.1755,-65.5715C116.471,-66.3405 219.148,-67.8799 290.41,-68.9483"/>
<polygon fill="#757575" stroke="#757575" points="290.635,-72.452 300.687,-69.1024 290.74,-65.4528 290.635,-72.452"/>
</g>
<!-- primitives/Move.ts -->
<g id="node3" class="node"><title>primitives/Move.ts</title>
<path fill="none" stroke="#c6c5fe" d="M425.333,-40.5966C425.333,-40.5966 310.667,-40.5966 310.667,-40.5966 306.833,-40.5966 303,-36.7633 303,-32.9299 303,-32.9299 303,-25.2633 303,-25.2633 303,-21.4299 306.833,-17.5966 310.667,-17.5966 310.667,-17.5966 425.333,-17.5966 425.333,-17.5966 429.167,-17.5966 433,-21.4299 433,-25.2633 433,-25.2633 433,-32.9299 433,-32.9299 433,-36.7633 429.167,-40.5966 425.333,-40.5966"/>
<text text-anchor="middle" x="368" y="-25.3966" font-family="Arial" font-size="14.00" fill="#c6c5fe">primitives/Move.ts</text>
</g>
<!-- index.ts&#45;&gt;primitives/Move.ts -->
<g id="edge2" class="edge"><title>index.ts&#45;&gt;primitives/Move.ts</title>
<path fill="none" stroke="#757575" d="M65.1755,-61.6774C117.013,-56.0817 221.325,-44.8216 292.66,-37.1213"/>
<polygon fill="#757575" stroke="#757575" points="293.369,-40.5652 302.936,-36.0121 292.618,-33.6056 293.369,-40.5652"/>
</g>
<!-- primitives/Piece.ts -->
<g id="node4" class="node"><title>primitives/Piece.ts</title>
<path fill="none" stroke="#c6c5fe" d="M602.333,-81.5966C602.333,-81.5966 485.667,-81.5966 485.667,-81.5966 481.833,-81.5966 478,-77.7633 478,-73.9299 478,-73.9299 478,-66.2633 478,-66.2633 478,-62.4299 481.833,-58.5966 485.667,-58.5966 485.667,-58.5966 602.333,-58.5966 602.333,-58.5966 606.167,-58.5966 610,-62.4299 610,-66.2633 610,-66.2633 610,-73.9299 610,-73.9299 610,-77.7633 606.167,-81.5966 602.333,-81.5966"/>
<text text-anchor="middle" x="544" y="-66.3966" font-family="Arial" font-size="14.00" fill="#c6c5fe">primitives/Piece.ts</text>
</g>
<!-- index.ts&#45;&gt;primitives/Piece.ts -->
<g id="edge3" class="edge"><title>index.ts&#45;&gt;primitives/Piece.ts</title>
<path fill="none" stroke="#757575" d="M41.9451,-76.8242C53.3853,-91.5916 75.351,-116.224 101,-126.097 244.179,-181.207 430.821,-117.304 507.628,-85.7245"/>
<polygon fill="#757575" stroke="#757575" points="509.421,-88.7684 517.295,-81.6801 506.719,-82.3108 509.421,-88.7684"/>
</g>
<!-- primitives/Position.ts -->
<g id="node5" class="node"><title>primitives/Position.ts</title>
<path fill="none" stroke="#cfffac" d="M609.333,-40.5966C609.333,-40.5966 478.667,-40.5966 478.667,-40.5966 474.833,-40.5966 471,-36.7633 471,-32.9299 471,-32.9299 471,-25.2633 471,-25.2633 471,-21.4299 474.833,-17.5966 478.667,-17.5966 478.667,-17.5966 609.333,-17.5966 609.333,-17.5966 613.167,-17.5966 617,-21.4299 617,-25.2633 617,-25.2633 617,-32.9299 617,-32.9299 617,-36.7633 613.167,-40.5966 609.333,-40.5966"/>
<text text-anchor="middle" x="544" y="-25.3966" font-family="Arial" font-size="14.00" fill="#cfffac">primitives/Position.ts</text>
</g>
<!-- index.ts&#45;&gt;primitives/Position.ts -->
<g id="edge4" class="edge"><title>index.ts&#45;&gt;primitives/Position.ts</title>
<path fill="none" stroke="#757575" d="M57.3551,-53.4893C70.0473,-47.756 86.0769,-41.2043 101,-37.0966 244.66,2.4467 286.683,6.18928 435,-8.0966 451.065,-9.64395 468.29,-12.4575 484.159,-15.5328"/>
<polygon fill="#757575" stroke="#757575" points="483.873,-19.0451 494.366,-17.5809 485.25,-12.1819 483.873,-19.0451"/>
</g>
<!-- primitives/initialBoard.ts -->
<g id="node6" class="node"><title>primitives/initialBoard.ts</title>
<path fill="none" stroke="#c6c5fe" d="M257.333,-116.597C257.333,-116.597 108.667,-116.597 108.667,-116.597 104.833,-116.597 101,-112.763 101,-108.93 101,-108.93 101,-101.263 101,-101.263 101,-97.4299 104.833,-93.5966 108.667,-93.5966 108.667,-93.5966 257.333,-93.5966 257.333,-93.5966 261.167,-93.5966 265,-97.4299 265,-101.263 265,-101.263 265,-108.93 265,-108.93 265,-112.763 261.167,-116.597 257.333,-116.597"/>
<text text-anchor="middle" x="183" y="-101.397" font-family="Arial" font-size="14.00" fill="#c6c5fe">primitives/initialBoard.ts</text>
</g>
<!-- index.ts&#45;&gt;primitives/initialBoard.ts -->
<g id="edge5" class="edge"><title>index.ts&#45;&gt;primitives/initialBoard.ts</title>
<path fill="none" stroke="#757575" d="M65.357,-73.6776C83.9705,-78.6914 107.93,-85.145 129.286,-90.8976"/>
<polygon fill="#757575" stroke="#757575" points="128.639,-94.3481 139.206,-93.5695 130.46,-87.589 128.639,-94.3481"/>
</g>
<!-- primitives/Board.ts&#45;&gt;primitives/Piece.ts -->
<g id="edge6" class="edge"><title>primitives/Board.ts&#45;&gt;primitives/Piece.ts</title>
<path fill="none" stroke="#757575" d="M435.278,-70.0966C445.831,-70.0966 456.816,-70.0966 467.562,-70.0966"/>
<polygon fill="#757575" stroke="#757575" points="467.769,-73.5967 477.769,-70.0966 467.769,-66.5967 467.769,-73.5967"/>
</g>
<!-- primitives/Board.ts&#45;&gt;primitives/Position.ts -->
<g id="edge7" class="edge"><title>primitives/Board.ts&#45;&gt;primitives/Position.ts</title>
<path fill="none" stroke="#757575" d="M417.932,-58.5667C438.497,-53.7208 462.598,-48.0419 484.125,-42.9695"/>
<polygon fill="#757575" stroke="#757575" points="485.204,-46.3112 494.134,-40.6109 483.598,-39.4978 485.204,-46.3112"/>
</g>
<!-- primitives/Move.ts&#45;&gt;primitives/Piece.ts -->
<g id="edge8" class="edge"><title>primitives/Move.ts&#45;&gt;primitives/Piece.ts</title>
<path fill="none" stroke="#757575" d="M417.932,-40.6265C438.497,-45.4724 462.598,-51.1513 484.125,-56.2237"/>
<polygon fill="#757575" stroke="#757575" points="483.598,-59.6954 494.134,-58.5823 485.204,-52.882 483.598,-59.6954"/>
</g>
<!-- primitives/Move.ts&#45;&gt;primitives/Position.ts -->
<g id="edge9" class="edge"><title>primitives/Move.ts&#45;&gt;primitives/Position.ts</title>
<path fill="none" stroke="#757575" d="M433.297,-29.0966C442.159,-29.0966 451.36,-29.0966 460.494,-29.0966"/>
<polygon fill="#757575" stroke="#757575" points="460.757,-32.5967 470.757,-29.0966 460.757,-25.5967 460.757,-32.5967"/>
</g>
<!-- primitives/Side.ts -->
<g id="node7" class="node"><title>primitives/Side.ts</title>
<path fill="none" stroke="#cfffac" d="M770.333,-81.5966C770.333,-81.5966 660.667,-81.5966 660.667,-81.5966 656.833,-81.5966 653,-77.7633 653,-73.9299 653,-73.9299 653,-66.2633 653,-66.2633 653,-62.4299 656.833,-58.5966 660.667,-58.5966 660.667,-58.5966 770.333,-58.5966 770.333,-58.5966 774.167,-58.5966 778,-62.4299 778,-66.2633 778,-66.2633 778,-73.9299 778,-73.9299 778,-77.7633 774.167,-81.5966 770.333,-81.5966"/>
<text text-anchor="middle" x="715.5" y="-66.3966" font-family="Arial" font-size="14.00" fill="#cfffac">primitives/Side.ts</text>
</g>
<!-- primitives/Piece.ts&#45;&gt;primitives/Side.ts -->
<g id="edge10" class="edge"><title>primitives/Piece.ts&#45;&gt;primitives/Side.ts</title>
<path fill="none" stroke="#757575" d="M610.048,-70.0966C620.731,-70.0966 631.857,-70.0966 642.693,-70.0966"/>
<polygon fill="#757575" stroke="#757575" points="642.97,-73.5967 652.97,-70.0966 642.97,-66.5967 642.97,-73.5967"/>
</g>
<!-- primitives/initialBoard.ts&#45;&gt;primitives/Board.ts -->
<g id="edge11" class="edge"><title>primitives/initialBoard.ts&#45;&gt;primitives/Board.ts</title>
<path fill="none" stroke="#757575" d="M244.175,-93.5878C260.982,-90.3733 279.392,-86.8522 296.727,-83.5367"/>
<polygon fill="#757575" stroke="#757575" points="297.625,-86.9286 306.789,-81.6123 296.31,-80.0532 297.625,-86.9286"/>
</g>
</g>
</svg>
