<?xml version="1.0" encoding="UTF-8" standalone="no"?>
<!DOCTYPE svg PUBLIC "-//W3C//DTD SVG 1.1//EN"
 "http://www.w3.org/Graphics/SVG/1.1/DTD/svg11.dtd">
<!-- Generated by graphviz version 2.38.0 (20140413.2041)
 -->
<!-- Title: G Pages: 1 -->
<svg width="1094pt" height="671pt"
 viewBox="0.00 0.00 1094.20 670.70" xmlns="http://www.w3.org/2000/svg" xmlns:xlink="http://www.w3.org/1999/xlink">
<g id="graph0" class="graph" transform="scale(1 1) rotate(0) translate(21.6 649.1)">
<title>G</title>
<polygon fill="#111111" stroke="none" points="-21.6,21.6 -21.6,-649.1 1072.6,-649.1 1072.6,21.6 -21.6,21.6"/>
<!-- cli/showBoard.ts -->
<g id="node1" class="node"><title>cli/showBoard.ts</title>
<path fill="none" stroke="#c6c5fe" d="M508.333,-121.375C508.333,-121.375 403.667,-121.375 403.667,-121.375 399.833,-121.375 396,-117.542 396,-113.708 396,-113.708 396,-106.042 396,-106.042 396,-102.208 399.833,-98.375 403.667,-98.375 403.667,-98.375 508.333,-98.375 508.333,-98.375 512.167,-98.375 516,-102.208 516,-106.042 516,-106.042 516,-113.708 516,-113.708 516,-117.542 512.167,-121.375 508.333,-121.375"/>
<text text-anchor="middle" x="456" y="-106.175" font-family="Arial" font-size="14.00" fill="#c6c5fe">cli/showBoard.ts</text>
</g>
<!-- cli/strings.ts -->
<g id="node2" class="node"><title>cli/strings.ts</title>
<path fill="none" stroke="#cfffac" d="M678.833,-161.375C678.833,-161.375 603.167,-161.375 603.167,-161.375 599.333,-161.375 595.5,-157.542 595.5,-153.708 595.5,-153.708 595.5,-146.042 595.5,-146.042 595.5,-142.208 599.333,-138.375 603.167,-138.375 603.167,-138.375 678.833,-138.375 678.833,-138.375 682.667,-138.375 686.5,-142.208 686.5,-146.042 686.5,-146.042 686.5,-153.708 686.5,-153.708 686.5,-157.542 682.667,-161.375 678.833,-161.375"/>
<text text-anchor="middle" x="641" y="-146.175" font-family="Arial" font-size="14.00" fill="#cfffac">cli/strings.ts</text>
</g>
<!-- cli/showBoard.ts&#45;&gt;cli/strings.ts -->
<g id="edge1" class="edge"><title>cli/showBoard.ts&#45;&gt;cli/strings.ts</title>
<path fill="none" stroke="#757575" d="M509.931,-121.445C533.577,-126.613 561.428,-132.701 585.28,-137.914"/>
<polygon fill="#757575" stroke="#757575" points="584.716,-141.374 595.233,-140.09 586.211,-134.535 584.716,-141.374"/>
</g>
<!-- primitives/Board.ts -->
<g id="node3" class="node"><title>primitives/Board.ts</title>
<path fill="none" stroke="#c6c5fe" d="M700.333,-319.375C700.333,-319.375 581.667,-319.375 581.667,-319.375 577.833,-319.375 574,-315.542 574,-311.708 574,-311.708 574,-304.042 574,-304.042 574,-300.208 577.833,-296.375 581.667,-296.375 581.667,-296.375 700.333,-296.375 700.333,-296.375 704.167,-296.375 708,-300.208 708,-304.042 708,-304.042 708,-311.708 708,-311.708 708,-315.542 704.167,-319.375 700.333,-319.375"/>
<text text-anchor="middle" x="641" y="-304.175" font-family="Arial" font-size="14.00" fill="#c6c5fe">primitives/Board.ts</text>
</g>
<!-- cli/showBoard.ts&#45;&gt;primitives/Board.ts -->
<g id="edge2" class="edge"><title>cli/showBoard.ts&#45;&gt;primitives/Board.ts</title>
<path fill="none" stroke="#757575" d="M511.608,-121.378C521.027,-124.986 530.263,-129.706 538,-135.875 589.143,-176.649 620.254,-250.566 633.118,-286.76"/>
<polygon fill="#757575" stroke="#757575" points="629.838,-287.985 636.396,-296.307 636.459,-285.712 629.838,-287.985"/>
</g>
<!-- primitives/Piece.ts -->
<g id="node4" class="node"><title>primitives/Piece.ts</title>
<path fill="none" stroke="#c6c5fe" d="M875.333,-339.375C875.333,-339.375 758.667,-339.375 758.667,-339.375 754.833,-339.375 751,-335.542 751,-331.708 751,-331.708 751,-324.042 751,-324.042 751,-320.208 754.833,-316.375 758.667,-316.375 758.667,-316.375 875.333,-316.375 875.333,-316.375 879.167,-316.375 883,-320.208 883,-324.042 883,-324.042 883,-331.708 883,-331.708 883,-335.542 879.167,-339.375 875.333,-339.375"/>
<text text-anchor="middle" x="817" y="-324.175" font-family="Arial" font-size="14.00" fill="#c6c5fe">primitives/Piece.ts</text>
</g>
<!-- cli/showBoard.ts&#45;&gt;primitives/Piece.ts -->
<g id="edge3" class="edge"><title>cli/showBoard.ts&#45;&gt;primitives/Piece.ts</title>
<path fill="none" stroke="#757575" d="M516.042,-99.3164C570.344,-92.8711 650.865,-91.8845 708,-128.875 772.352,-170.538 801.334,-264.213 811.49,-306.474"/>
<polygon fill="#757575" stroke="#757575" points="808.089,-307.302 813.725,-316.274 814.914,-305.746 808.089,-307.302"/>
</g>
<!-- primitives/Board.ts&#45;&gt;primitives/Piece.ts -->
<g id="edge24" class="edge"><title>primitives/Board.ts&#45;&gt;primitives/Piece.ts</title>
<path fill="none" stroke="#757575" d="M708.278,-315.493C718.831,-316.706 729.816,-317.969 740.562,-319.204"/>
<polygon fill="#757575" stroke="#757575" points="740.435,-322.712 750.769,-320.377 741.234,-315.758 740.435,-322.712"/>
</g>
<!-- primitives/Position.ts -->
<g id="node9" class="node"><title>primitives/Position.ts</title>
<path fill="none" stroke="#cfffac" d="M882.333,-438.375C882.333,-438.375 751.667,-438.375 751.667,-438.375 747.833,-438.375 744,-434.542 744,-430.708 744,-430.708 744,-423.042 744,-423.042 744,-419.208 747.833,-415.375 751.667,-415.375 751.667,-415.375 882.333,-415.375 882.333,-415.375 886.167,-415.375 890,-419.208 890,-423.042 890,-423.042 890,-430.708 890,-430.708 890,-434.542 886.167,-438.375 882.333,-438.375"/>
<text text-anchor="middle" x="817" y="-423.175" font-family="Arial" font-size="14.00" fill="#cfffac">primitives/Position.ts</text>
</g>
<!-- primitives/Board.ts&#45;&gt;primitives/Position.ts -->
<g id="edge25" class="edge"><title>primitives/Board.ts&#45;&gt;primitives/Position.ts</title>
<path fill="none" stroke="#757575" d="M689.589,-319.471C695.97,-321.831 702.279,-324.614 708,-327.875 745.229,-349.097 780.233,-385.264 799.815,-407.514"/>
<polygon fill="#757575" stroke="#757575" points="797.353,-410.018 806.538,-415.299 802.652,-405.443 797.353,-410.018"/>
</g>
<!-- primitives/Side.ts -->
<g id="node14" class="node"><title>primitives/Side.ts</title>
<path fill="none" stroke="#cfffac" d="M1043.33,-482.375C1043.33,-482.375 933.667,-482.375 933.667,-482.375 929.833,-482.375 926,-478.542 926,-474.708 926,-474.708 926,-467.042 926,-467.042 926,-463.208 929.833,-459.375 933.667,-459.375 933.667,-459.375 1043.33,-459.375 1043.33,-459.375 1047.17,-459.375 1051,-463.208 1051,-467.042 1051,-467.042 1051,-474.708 1051,-474.708 1051,-478.542 1047.17,-482.375 1043.33,-482.375"/>
<text text-anchor="middle" x="988.5" y="-467.175" font-family="Arial" font-size="14.00" fill="#cfffac">primitives/Side.ts</text>
</g>
<!-- primitives/Piece.ts&#45;&gt;primitives/Side.ts -->
<g id="edge33" class="edge"><title>primitives/Piece.ts&#45;&gt;primitives/Side.ts</title>
<path fill="none" stroke="#757575" d="M831.871,-339.577C861.296,-364.402 930.172,-422.51 965.599,-452.398"/>
<polygon fill="#757575" stroke="#757575" points="963.537,-455.238 973.437,-459.011 968.051,-449.888 963.537,-455.238"/>
</g>
<!-- index.ts -->
<g id="node5" class="node"><title>index.ts</title>
<path fill="none" stroke="#c6c5fe" d="M93.3333,-279.375C93.3333,-279.375 43.6667,-279.375 43.6667,-279.375 39.8333,-279.375 36,-275.542 36,-271.708 36,-271.708 36,-264.042 36,-264.042 36,-260.208 39.8333,-256.375 43.6667,-256.375 43.6667,-256.375 93.3333,-256.375 93.3333,-256.375 97.1667,-256.375 101,-260.208 101,-264.042 101,-264.042 101,-271.708 101,-271.708 101,-275.542 97.1667,-279.375 93.3333,-279.375"/>
<text text-anchor="middle" x="68.5" y="-264.175" font-family="Arial" font-size="14.00" fill="#c6c5fe">index.ts</text>
</g>
<!-- index.ts&#45;&gt;cli/showBoard.ts -->
<g id="edge4" class="edge"><title>index.ts&#45;&gt;cli/showBoard.ts</title>
<path fill="none" stroke="#757575" d="M74.6618,-256.093C87.1096,-229.283 121.601,-163.88 173,-135.875 238.606,-100.129 325.688,-97.6591 385.634,-101.555"/>
<polygon fill="#757575" stroke="#757575" points="385.529,-105.057 395.756,-102.29 386.036,-98.0752 385.529,-105.057"/>
</g>
<!-- index.ts&#45;&gt;primitives/Board.ts -->
<g id="edge6" class="edge"><title>index.ts&#45;&gt;primitives/Board.ts</title>
<path fill="none" stroke="#757575" d="M85.1128,-256.318C104.651,-242.429 139.617,-219.43 173,-206.875 325.661,-149.464 392.503,-95.1744 538,-168.875 586.911,-193.651 618.05,-254.137 631.808,-286.545"/>
<polygon fill="#757575" stroke="#757575" points="628.647,-288.062 635.664,-295.999 635.128,-285.418 628.647,-288.062"/>
</g>
<!-- index.ts&#45;&gt;primitives/Piece.ts -->
<g id="edge9" class="edge"><title>index.ts&#45;&gt;primitives/Piece.ts</title>
<path fill="none" stroke="#757575" d="M72.4953,-255.963C81.363,-223.519 110.838,-133.56 173,-96.875 377.783,23.9781 509.333,37.7878 708,-92.875 783.175,-142.318 806.835,-258.349 813.567,-306.425"/>
<polygon fill="#757575" stroke="#757575" points="810.098,-306.889 814.849,-316.359 817.041,-305.994 810.098,-306.889"/>
</g>
<!-- play.ts -->
<g id="node6" class="node"><title>play.ts</title>
<path fill="none" stroke="#c6c5fe" d="M276.333,-239.375C276.333,-239.375 234.667,-239.375 234.667,-239.375 230.833,-239.375 227,-235.542 227,-231.708 227,-231.708 227,-224.042 227,-224.042 227,-220.208 230.833,-216.375 234.667,-216.375 234.667,-216.375 276.333,-216.375 276.333,-216.375 280.167,-216.375 284,-220.208 284,-224.042 284,-224.042 284,-231.708 284,-231.708 284,-235.542 280.167,-239.375 276.333,-239.375"/>
<text text-anchor="middle" x="255.5" y="-224.175" font-family="Arial" font-size="14.00" fill="#c6c5fe">play.ts</text>
</g>
<!-- index.ts&#45;&gt;play.ts -->
<g id="edge5" class="edge"><title>index.ts&#45;&gt;play.ts</title>
<path fill="none" stroke="#757575" d="M101.303,-260.999C133.322,-254.076 182.714,-243.396 216.713,-236.045"/>
<polygon fill="#757575" stroke="#757575" points="217.699,-239.413 226.733,-233.879 216.219,-232.571 217.699,-239.413"/>
</g>
<!-- primitives/Game.ts -->
<g id="node7" class="node"><title>primitives/Game.ts</title>
<path fill="none" stroke="#c6c5fe" d="M515.333,-437.375C515.333,-437.375 396.667,-437.375 396.667,-437.375 392.833,-437.375 389,-433.542 389,-429.708 389,-429.708 389,-422.042 389,-422.042 389,-418.208 392.833,-414.375 396.667,-414.375 396.667,-414.375 515.333,-414.375 515.333,-414.375 519.167,-414.375 523,-418.208 523,-422.042 523,-422.042 523,-429.708 523,-429.708 523,-433.542 519.167,-437.375 515.333,-437.375"/>
<text text-anchor="middle" x="456" y="-422.175" font-family="Arial" font-size="14.00" fill="#c6c5fe">primitives/Game.ts</text>
</g>
<!-- index.ts&#45;&gt;primitives/Game.ts -->
<g id="edge7" class="edge"><title>index.ts&#45;&gt;primitives/Game.ts</title>
<path fill="none" stroke="#757575" d="M78.292,-279.696C94.5279,-300.614 131.381,-344.002 173,-365.875 237.503,-399.774 319.838,-414.522 378.865,-420.937"/>
<polygon fill="#757575" stroke="#757575" points="378.561,-424.424 388.867,-421.969 379.279,-417.461 378.561,-424.424"/>
</g>
<!-- primitives/Move.ts -->
<g id="node8" class="node"><title>primitives/Move.ts</title>
<path fill="none" stroke="#c6c5fe" d="M698.333,-360.375C698.333,-360.375 583.667,-360.375 583.667,-360.375 579.833,-360.375 576,-356.542 576,-352.708 576,-352.708 576,-345.042 576,-345.042 576,-341.208 579.833,-337.375 583.667,-337.375 583.667,-337.375 698.333,-337.375 698.333,-337.375 702.167,-337.375 706,-341.208 706,-345.042 706,-345.042 706,-352.708 706,-352.708 706,-356.542 702.167,-360.375 698.333,-360.375"/>
<text text-anchor="middle" x="641" y="-345.175" font-family="Arial" font-size="14.00" fill="#c6c5fe">primitives/Move.ts</text>
</g>
<!-- index.ts&#45;&gt;primitives/Move.ts -->
<g id="edge8" class="edge"><title>index.ts&#45;&gt;primitives/Move.ts</title>
<path fill="none" stroke="#757575" d="M101.118,-275.644C121.566,-280.56 148.788,-286.903 173,-291.875 261.9,-310.131 283.988,-316.29 374,-327.875 438.529,-336.181 512.317,-341.694 565.782,-344.978"/>
<polygon fill="#757575" stroke="#757575" points="565.665,-348.478 575.858,-345.586 566.087,-341.49 565.665,-348.478"/>
</g>
<!-- index.ts&#45;&gt;primitives/Position.ts -->
<g id="edge10" class="edge"><title>index.ts&#45;&gt;primitives/Position.ts</title>
<path fill="none" stroke="#757575" d="M74.7608,-279.704C87.4168,-306.688 122.315,-372.921 173,-404.875 362.628,-524.427 650.116,-470.053 765.485,-440.978"/>
<polygon fill="#757575" stroke="#757575" points="766.637,-444.296 775.453,-438.42 764.897,-437.516 766.637,-444.296"/>
</g>
<!-- primitives/initialBoard.ts -->
<g id="node10" class="node"><title>primitives/initialBoard.ts</title>
<path fill="none" stroke="#c6c5fe" d="M530.333,-319.375C530.333,-319.375 381.667,-319.375 381.667,-319.375 377.833,-319.375 374,-315.542 374,-311.708 374,-311.708 374,-304.042 374,-304.042 374,-300.208 377.833,-296.375 381.667,-296.375 381.667,-296.375 530.333,-296.375 530.333,-296.375 534.167,-296.375 538,-300.208 538,-304.042 538,-304.042 538,-311.708 538,-311.708 538,-315.542 534.167,-319.375 530.333,-319.375"/>
<text text-anchor="middle" x="456" y="-304.175" font-family="Arial" font-size="14.00" fill="#c6c5fe">primitives/initialBoard.ts</text>
</g>
<!-- index.ts&#45;&gt;primitives/initialBoard.ts -->
<g id="edge11" class="edge"><title>index.ts&#45;&gt;primitives/initialBoard.ts</title>
<path fill="none" stroke="#757575" d="M101.374,-270.239C151.711,-274.082 252.664,-282.232 338,-291.875 346.585,-292.845 355.514,-293.929 364.441,-295.064"/>
<polygon fill="#757575" stroke="#757575" points="364.134,-298.554 374.5,-296.363 365.031,-291.611 364.134,-298.554"/>
</g>
<!-- primitives/initialGame.ts -->
<g id="node11" class="node"><title>primitives/initialGame.ts</title>
<path fill="none" stroke="#c6c5fe" d="M330.333,-357.375C330.333,-357.375 180.667,-357.375 180.667,-357.375 176.833,-357.375 173,-353.542 173,-349.708 173,-349.708 173,-342.042 173,-342.042 173,-338.208 176.833,-334.375 180.667,-334.375 180.667,-334.375 330.333,-334.375 330.333,-334.375 334.167,-334.375 338,-338.208 338,-342.042 338,-342.042 338,-349.708 338,-349.708 338,-353.542 334.167,-357.375 330.333,-357.375"/>
<text text-anchor="middle" x="255.5" y="-342.175" font-family="Arial" font-size="14.00" fill="#c6c5fe">primitives/initialGame.ts</text>
</g>
<!-- index.ts&#45;&gt;primitives/initialGame.ts -->
<g id="edge12" class="edge"><title>index.ts&#45;&gt;primitives/initialGame.ts</title>
<path fill="none" stroke="#757575" d="M90.0659,-279.414C110.638,-290.667 143.393,-307.802 173,-319.875 182.901,-323.912 193.678,-327.735 204.056,-331.145"/>
<polygon fill="#757575" stroke="#757575" points="203.252,-334.562 213.843,-334.281 205.388,-327.896 203.252,-334.562"/>
</g>
<!-- play.ts&#45;&gt;cli/showBoard.ts -->
<g id="edge19" class="edge"><title>play.ts&#45;&gt;cli/showBoard.ts</title>
<path fill="none" stroke="#757575" d="M284.156,-222.217C300.541,-218.112 321.296,-211.559 338,-201.875 356.778,-190.989 357.201,-182.62 374,-168.875 391.95,-154.188 413.171,-138.798 429.388,-127.42"/>
<polygon fill="#757575" stroke="#757575" points="431.624,-130.128 437.831,-121.541 427.624,-124.383 431.624,-130.128"/>
</g>
<!-- play.ts&#45;&gt;primitives/Board.ts -->
<g id="edge20" class="edge"><title>play.ts&#45;&gt;primitives/Board.ts</title>
<path fill="none" stroke="#757575" d="M284.352,-226.877C335.679,-225.813 448.159,-227.114 538,-253.875 565.81,-262.159 594.798,-278.351 614.731,-290.854"/>
<polygon fill="#757575" stroke="#757575" points="612.909,-293.843 623.215,-296.297 616.688,-287.951 612.909,-293.843"/>
</g>
<!-- play.ts&#45;&gt;primitives/Move.ts -->
<g id="edge21" class="edge"><title>play.ts&#45;&gt;primitives/Move.ts</title>
<path fill="none" stroke="#757575" d="M284.007,-234.118C307.799,-239.481 343.133,-247.355 374,-253.875 446.745,-269.241 473.641,-249.648 538,-286.875 558.991,-299.017 553.705,-314.603 574,-327.875 576.958,-329.809 580.106,-331.576 583.363,-333.189"/>
<polygon fill="#757575" stroke="#757575" points="582.196,-336.499 592.758,-337.335 585.022,-330.095 582.196,-336.499"/>
</g>
<!-- play.ts&#45;&gt;primitives/initialBoard.ts -->
<g id="edge22" class="edge"><title>play.ts&#45;&gt;primitives/initialBoard.ts</title>
<path fill="none" stroke="#757575" d="M284.258,-234.129C300.488,-238.412 321.05,-244.944 338,-253.875 355.933,-263.324 356.076,-272.41 374,-281.875 382.057,-286.129 390.934,-289.843 399.768,-293.029"/>
<polygon fill="#757575" stroke="#757575" points="398.702,-296.364 409.297,-296.281 400.963,-289.739 398.702,-296.364"/>
</g>
<!-- primitives/validators.ts -->
<g id="node13" class="node"><title>primitives/validators.ts</title>
<path fill="none" stroke="#c6c5fe" d="M525.833,-201.375C525.833,-201.375 386.167,-201.375 386.167,-201.375 382.333,-201.375 378.5,-197.542 378.5,-193.708 378.5,-193.708 378.5,-186.042 378.5,-186.042 378.5,-182.208 382.333,-178.375 386.167,-178.375 386.167,-178.375 525.833,-178.375 525.833,-178.375 529.667,-178.375 533.5,-182.208 533.5,-186.042 533.5,-186.042 533.5,-193.708 533.5,-193.708 533.5,-197.542 529.667,-201.375 525.833,-201.375"/>
<text text-anchor="middle" x="456" y="-186.175" font-family="Arial" font-size="14.00" fill="#c6c5fe">primitives/validators.ts</text>
</g>
<!-- play.ts&#45;&gt;primitives/validators.ts -->
<g id="edge23" class="edge"><title>play.ts&#45;&gt;primitives/validators.ts</title>
<path fill="none" stroke="#757575" d="M284.101,-222.591C309.988,-217.636 349.801,-210.014 384.489,-203.373"/>
<polygon fill="#757575" stroke="#757575" points="385.429,-206.757 394.593,-201.439 384.113,-199.882 385.429,-206.757"/>
</g>
<!-- primitives/Game.ts&#45;&gt;primitives/Board.ts -->
<g id="edge26" class="edge"><title>primitives/Game.ts&#45;&gt;primitives/Board.ts</title>
<path fill="none" stroke="#757575" d="M513.236,-414.321C522.175,-410.73 530.825,-406.028 538,-399.875 565.158,-376.585 546.652,-350.942 574,-327.875 575.353,-326.734 576.769,-325.658 578.238,-324.643"/>
<polygon fill="#757575" stroke="#757575" points="580.243,-327.526 587.134,-319.478 576.728,-321.473 580.243,-327.526"/>
</g>
<!-- primitives/Game.ts&#45;&gt;primitives/Piece.ts -->
<g id="edge28" class="edge"><title>primitives/Game.ts&#45;&gt;primitives/Piece.ts</title>
<path fill="none" stroke="#757575" d="M518.743,-414.355C569.936,-404.209 644.364,-388.077 708,-368.875 732.2,-361.573 758.75,-351.522 779.47,-343.2"/>
<polygon fill="#757575" stroke="#757575" points="780.894,-346.399 788.843,-339.394 778.261,-339.914 780.894,-346.399"/>
</g>
<!-- primitives/Game.ts&#45;&gt;primitives/Move.ts -->
<g id="edge27" class="edge"><title>primitives/Game.ts&#45;&gt;primitives/Move.ts</title>
<path fill="none" stroke="#757575" d="M501.231,-414.282C513.434,-410.391 526.48,-405.566 538,-399.875 555.465,-391.248 556.823,-384.062 574,-374.875 581.18,-371.035 589.054,-367.444 596.784,-364.23"/>
<polygon fill="#757575" stroke="#757575" points="598.104,-367.472 606.086,-360.505 595.501,-360.973 598.104,-367.472"/>
</g>
<!-- primitives/Game.ts&#45;&gt;primitives/Position.ts -->
<g id="edge29" class="edge"><title>primitives/Game.ts&#45;&gt;primitives/Position.ts</title>
<path fill="none" stroke="#757575" d="M523.265,-426.06C582.689,-426.225 670.098,-426.469 733.927,-426.646"/>
<polygon fill="#757575" stroke="#757575" points="733.951,-430.146 743.961,-426.674 733.97,-423.146 733.951,-430.146"/>
</g>
<!-- primitives/Game.ts&#45;&gt;primitives/Side.ts -->
<g id="edge30" class="edge"><title>primitives/Game.ts&#45;&gt;primitives/Side.ts</title>
<path fill="none" stroke="#757575" d="M523.134,-434.999C539.721,-437.11 557.495,-439.22 574,-440.875 693.625,-452.874 833.182,-461.986 915.733,-466.871"/>
<polygon fill="#757575" stroke="#757575" points="915.571,-470.367 925.76,-467.46 915.982,-463.38 915.571,-470.367"/>
</g>
<!-- primitives/Move.ts&#45;&gt;primitives/Piece.ts -->
<g id="edge31" class="edge"><title>primitives/Move.ts&#45;&gt;primitives/Piece.ts</title>
<path fill="none" stroke="#757575" d="M706.297,-341.115C717.528,-339.76 729.302,-338.339 740.796,-336.951"/>
<polygon fill="#757575" stroke="#757575" points="741.296,-340.417 750.805,-335.743 740.457,-333.467 741.296,-340.417"/>
</g>
<!-- primitives/Move.ts&#45;&gt;primitives/Position.ts -->
<g id="edge32" class="edge"><title>primitives/Move.ts&#45;&gt;primitives/Position.ts</title>
<path fill="none" stroke="#757575" d="M667.674,-360.384C697.616,-373.806 747.276,-396.068 780.799,-411.095"/>
<polygon fill="#757575" stroke="#757575" points="779.664,-414.422 790.22,-415.319 782.527,-408.034 779.664,-414.422"/>
</g>
<!-- primitives/initialBoard.ts&#45;&gt;primitives/Board.ts -->
<g id="edge34" class="edge"><title>primitives/initialBoard.ts&#45;&gt;primitives/Board.ts</title>
<path fill="none" stroke="#757575" d="M538.066,-307.875C546.562,-307.875 555.179,-307.875 563.62,-307.875"/>
<polygon fill="#757575" stroke="#757575" points="563.809,-311.375 573.809,-307.875 563.809,-304.375 563.809,-311.375"/>
</g>
<!-- primitives/initialGame.ts&#45;&gt;primitives/Game.ts -->
<g id="edge35" class="edge"><title>primitives/initialGame.ts&#45;&gt;primitives/Game.ts</title>
<path fill="none" stroke="#757575" d="M285.364,-357.508C320.157,-371.53 378.727,-395.135 417.123,-410.61"/>
<polygon fill="#757575" stroke="#757575" points="415.84,-413.866 426.424,-414.358 418.457,-407.374 415.84,-413.866"/>
</g>
<!-- primitives/initialGame.ts&#45;&gt;primitives/initialBoard.ts -->
<g id="edge36" class="edge"><title>primitives/initialGame.ts&#45;&gt;primitives/initialBoard.ts</title>
<path fill="none" stroke="#757575" d="M316.595,-334.371C338.068,-330.26 362.453,-325.592 384.709,-321.331"/>
<polygon fill="#757575" stroke="#757575" points="385.603,-324.724 394.767,-319.406 384.287,-317.849 385.603,-324.724"/>
</g>
<!-- interactiveMoves.ts -->
<g id="node12" class="node"><title>interactiveMoves.ts</title>
<path fill="none" stroke="#c6c5fe" d="M129.333,-435.375C129.333,-435.375 7.66667,-435.375 7.66667,-435.375 3.83333,-435.375 0,-431.542 0,-427.708 0,-427.708 0,-420.042 0,-420.042 0,-416.208 3.83333,-412.375 7.66667,-412.375 7.66667,-412.375 129.333,-412.375 129.333,-412.375 133.167,-412.375 137,-416.208 137,-420.042 137,-420.042 137,-427.708 137,-427.708 137,-431.542 133.167,-435.375 129.333,-435.375"/>
<text text-anchor="middle" x="68.5" y="-420.175" font-family="Arial" font-size="14.00" fill="#c6c5fe">interactiveMoves.ts</text>
</g>
<!-- interactiveMoves.ts&#45;&gt;cli/showBoard.ts -->
<g id="edge13" class="edge"><title>interactiveMoves.ts&#45;&gt;cli/showBoard.ts</title>
<path fill="none" stroke="#757575" d="M75.4461,-412.313C87.4137,-388.952 115.131,-334.392 137,-287.875 153.761,-252.223 143.959,-233.495 173,-206.875 206.262,-176.386 324.959,-142.448 397.332,-123.891"/>
<polygon fill="#757575" stroke="#757575" points="398.394,-127.233 407.223,-121.377 396.669,-120.449 398.394,-127.233"/>
</g>
<!-- interactiveMoves.ts&#45;&gt;primitives/Board.ts -->
<g id="edge14" class="edge"><title>interactiveMoves.ts&#45;&gt;primitives/Board.ts</title>
<path fill="none" stroke="#757575" d="M126.287,-412.328C232.3,-390.773 459.812,-344.513 573.082,-321.481"/>
<polygon fill="#757575" stroke="#757575" points="573.917,-324.883 583.02,-319.461 572.523,-318.024 573.917,-324.883"/>
</g>
<!-- interactiveMoves.ts&#45;&gt;primitives/Game.ts -->
<g id="edge15" class="edge"><title>interactiveMoves.ts&#45;&gt;primitives/Game.ts</title>
<path fill="none" stroke="#757575" d="M137.011,-434.338C148.972,-435.811 161.331,-437.089 173,-437.875 246.168,-442.801 264.762,-441.621 338,-437.875 351.163,-437.202 365.126,-436.105 378.649,-434.841"/>
<polygon fill="#757575" stroke="#757575" points="379.269,-438.298 388.884,-433.847 378.592,-431.331 379.269,-438.298"/>
</g>
<!-- interactiveMoves.ts&#45;&gt;primitives/Move.ts -->
<g id="edge16" class="edge"><title>interactiveMoves.ts&#45;&gt;primitives/Move.ts</title>
<path fill="none" stroke="#757575" d="M100.703,-435.42C120.986,-442.296 148.18,-450.35 173,-453.875 333.649,-476.688 388.556,-509.082 538,-445.875 576.318,-429.669 608.782,-392.117 626.232,-368.779"/>
<polygon fill="#757575" stroke="#757575" points="629.123,-370.753 632.165,-360.604 623.458,-366.641 629.123,-370.753"/>
</g>
<!-- interactiveMoves.ts&#45;&gt;primitives/Position.ts -->
<g id="edge17" class="edge"><title>interactiveMoves.ts&#45;&gt;primitives/Position.ts</title>
<path fill="none" stroke="#757575" d="M74.6012,-435.634C86.9215,-462.333 121.163,-527.127 173,-551.875 387.578,-654.318 491.781,-650.806 708,-551.875 755.095,-530.327 789.489,-476.978 805.666,-447.417"/>
<polygon fill="#757575" stroke="#757575" points="808.862,-448.86 810.446,-438.384 802.675,-445.586 808.862,-448.86"/>
</g>
<!-- interactiveMoves.ts&#45;&gt;primitives/initialGame.ts -->
<g id="edge18" class="edge"><title>interactiveMoves.ts&#45;&gt;primitives/initialGame.ts</title>
<path fill="none" stroke="#757575" d="M90.0659,-412.336C110.638,-401.083 143.393,-383.948 173,-371.875 182.901,-367.838 193.678,-364.015 204.056,-360.605"/>
<polygon fill="#757575" stroke="#757575" points="205.388,-363.854 213.843,-357.469 203.252,-357.188 205.388,-363.854"/>
</g>
<!-- primitives/validators.ts&#45;&gt;primitives/Board.ts -->
<g id="edge37" class="edge"><title>primitives/validators.ts&#45;&gt;primitives/Board.ts</title>
<path fill="none" stroke="#757575" d="M504.693,-201.487C516.009,-205.232 527.76,-209.981 538,-215.875 572.121,-235.513 604.652,-268.082 623.454,-288.738"/>
<polygon fill="#757575" stroke="#757575" points="620.916,-291.149 630.188,-296.275 626.136,-286.486 620.916,-291.149"/>
</g>
</g>
</svg>
