<?xml version="1.0" encoding="UTF-8" standalone="no"?>
<!DOCTYPE svg PUBLIC "-//W3C//DTD SVG 1.1//EN"
 "http://www.w3.org/Graphics/SVG/1.1/DTD/svg11.dtd">
<!-- Generated by graphviz version 2.38.0 (20140413.2041)
 -->
<!-- Title: G Pages: 1 -->
<svg width="1094pt" height="649pt"
 viewBox="0.00 0.00 1094.20 648.80" xmlns="http://www.w3.org/2000/svg" xmlns:xlink="http://www.w3.org/1999/xlink">
<g id="graph0" class="graph" transform="scale(1 1) rotate(0) translate(21.6 627.203)">
<title>G</title>
<polygon fill="#111111" stroke="none" points="-21.6,21.6 -21.6,-627.203 1072.6,-627.203 1072.6,21.6 -21.6,21.6"/>
<!-- cli/showBoard.ts -->
<g id="node1" class="node"><title>cli/showBoard.ts</title>
<path fill="none" stroke="#c6c5fe" d="M508.333,-122.668C508.333,-122.668 403.667,-122.668 403.667,-122.668 399.833,-122.668 396,-118.834 396,-115.001 396,-115.001 396,-107.334 396,-107.334 396,-103.501 399.833,-99.6677 403.667,-99.6677 403.667,-99.6677 508.333,-99.6677 508.333,-99.6677 512.167,-99.6677 516,-103.501 516,-107.334 516,-107.334 516,-115.001 516,-115.001 516,-118.834 512.167,-122.668 508.333,-122.668"/>
<text text-anchor="middle" x="456" y="-107.468" font-family="Arial" font-size="14.00" fill="#c6c5fe">cli/showBoard.ts</text>
</g>
<!-- cli/strings.ts -->
<g id="node2" class="node"><title>cli/strings.ts</title>
<path fill="none" stroke="#cfffac" d="M678.833,-162.668C678.833,-162.668 603.167,-162.668 603.167,-162.668 599.333,-162.668 595.5,-158.834 595.5,-155.001 595.5,-155.001 595.5,-147.334 595.5,-147.334 595.5,-143.501 599.333,-139.668 603.167,-139.668 603.167,-139.668 678.833,-139.668 678.833,-139.668 682.667,-139.668 686.5,-143.501 686.5,-147.334 686.5,-147.334 686.5,-155.001 686.5,-155.001 686.5,-158.834 682.667,-162.668 678.833,-162.668"/>
<text text-anchor="middle" x="641" y="-147.468" font-family="Arial" font-size="14.00" fill="#cfffac">cli/strings.ts</text>
</g>
<!-- cli/showBoard.ts&#45;&gt;cli/strings.ts -->
<g id="edge1" class="edge"><title>cli/showBoard.ts&#45;&gt;cli/strings.ts</title>
<path fill="none" stroke="#757575" d="M509.931,-122.737C533.577,-127.906 561.428,-133.994 585.28,-139.207"/>
<polygon fill="#757575" stroke="#757575" points="584.716,-142.666 595.233,-141.383 586.211,-135.828 584.716,-142.666"/>
</g>
<!-- primitives/Board.ts -->
<g id="node3" class="node"><title>primitives/Board.ts</title>
<path fill="none" stroke="#c6c5fe" d="M700.333,-320.668C700.333,-320.668 581.667,-320.668 581.667,-320.668 577.833,-320.668 574,-316.834 574,-313.001 574,-313.001 574,-305.334 574,-305.334 574,-301.501 577.833,-297.668 581.667,-297.668 581.667,-297.668 700.333,-297.668 700.333,-297.668 704.167,-297.668 708,-301.501 708,-305.334 708,-305.334 708,-313.001 708,-313.001 708,-316.834 704.167,-320.668 700.333,-320.668"/>
<text text-anchor="middle" x="641" y="-305.468" font-family="Arial" font-size="14.00" fill="#c6c5fe">primitives/Board.ts</text>
</g>
<!-- cli/showBoard.ts&#45;&gt;primitives/Board.ts -->
<g id="edge2" class="edge"><title>cli/showBoard.ts&#45;&gt;primitives/Board.ts</title>
<path fill="none" stroke="#757575" d="M511.608,-122.67C521.027,-126.278 530.263,-130.999 538,-137.168 589.143,-177.942 620.254,-251.859 633.118,-288.052"/>
<polygon fill="#757575" stroke="#757575" points="629.838,-289.278 636.396,-297.599 636.459,-287.005 629.838,-289.278"/>
</g>
<!-- primitives/Piece.ts -->
<g id="node4" class="node"><title>primitives/Piece.ts</title>
<path fill="none" stroke="#c6c5fe" d="M875.333,-354.668C875.333,-354.668 758.667,-354.668 758.667,-354.668 754.833,-354.668 751,-350.834 751,-347.001 751,-347.001 751,-339.334 751,-339.334 751,-335.501 754.833,-331.668 758.667,-331.668 758.667,-331.668 875.333,-331.668 875.333,-331.668 879.167,-331.668 883,-335.501 883,-339.334 883,-339.334 883,-347.001 883,-347.001 883,-350.834 879.167,-354.668 875.333,-354.668"/>
<text text-anchor="middle" x="817" y="-339.468" font-family="Arial" font-size="14.00" fill="#c6c5fe">primitives/Piece.ts</text>
</g>
<!-- cli/showBoard.ts&#45;&gt;primitives/Piece.ts -->
<g id="edge3" class="edge"><title>cli/showBoard.ts&#45;&gt;primitives/Piece.ts</title>
<path fill="none" stroke="#757575" d="M516.02,-100.275C570.495,-93.5446 651.296,-92.3211 708,-130.168 775.874,-175.47 803.22,-277.017 812.235,-321.545"/>
<polygon fill="#757575" stroke="#757575" points="808.835,-322.401 814.146,-331.568 815.712,-321.09 808.835,-322.401"/>
</g>
<!-- primitives/Board.ts&#45;&gt;primitives/Piece.ts -->
<g id="edge24" class="edge"><title>primitives/Board.ts&#45;&gt;primitives/Piece.ts</title>
<path fill="none" stroke="#757575" d="M700.908,-320.679C715.709,-323.571 731.724,-326.7 746.97,-329.679"/>
<polygon fill="#757575" stroke="#757575" points="746.371,-333.128 756.856,-331.611 747.713,-326.258 746.371,-333.128"/>
</g>
<!-- primitives/Position.ts -->
<g id="node9" class="node"><title>primitives/Position.ts</title>
<path fill="none" stroke="#cfffac" d="M882.333,-508.668C882.333,-508.668 751.667,-508.668 751.667,-508.668 747.833,-508.668 744,-504.834 744,-501.001 744,-501.001 744,-493.334 744,-493.334 744,-489.501 747.833,-485.668 751.667,-485.668 751.667,-485.668 882.333,-485.668 882.333,-485.668 886.167,-485.668 890,-489.501 890,-493.334 890,-493.334 890,-501.001 890,-501.001 890,-504.834 886.167,-508.668 882.333,-508.668"/>
<text text-anchor="middle" x="817" y="-493.468" font-family="Arial" font-size="14.00" fill="#cfffac">primitives/Position.ts</text>
</g>
<!-- primitives/Board.ts&#45;&gt;primitives/Position.ts -->
<g id="edge25" class="edge"><title>primitives/Board.ts&#45;&gt;primitives/Position.ts</title>
<path fill="none" stroke="#757575" d="M661.353,-320.758C675.16,-329.531 693.733,-342.389 708,-356.168 747.655,-394.466 784.598,-448.043 803.275,-476.877"/>
<polygon fill="#757575" stroke="#757575" points="800.549,-479.112 808.886,-485.65 806.446,-475.34 800.549,-479.112"/>
</g>
<!-- primitives/Side.ts -->
<g id="node14" class="node"><title>primitives/Side.ts</title>
<path fill="none" stroke="#cfffac" d="M1043.33,-469.668C1043.33,-469.668 933.667,-469.668 933.667,-469.668 929.833,-469.668 926,-465.834 926,-462.001 926,-462.001 926,-454.334 926,-454.334 926,-450.501 929.833,-446.668 933.667,-446.668 933.667,-446.668 1043.33,-446.668 1043.33,-446.668 1047.17,-446.668 1051,-450.501 1051,-454.334 1051,-454.334 1051,-462.001 1051,-462.001 1051,-465.834 1047.17,-469.668 1043.33,-469.668"/>
<text text-anchor="middle" x="988.5" y="-454.468" font-family="Arial" font-size="14.00" fill="#cfffac">primitives/Side.ts</text>
</g>
<!-- primitives/Piece.ts&#45;&gt;primitives/Side.ts -->
<g id="edge34" class="edge"><title>primitives/Piece.ts&#45;&gt;primitives/Side.ts</title>
<path fill="none" stroke="#757575" d="M835.185,-354.827C865.085,-375.113 926.822,-417 961.821,-440.745"/>
<polygon fill="#757575" stroke="#757575" points="960.281,-443.93 970.521,-446.648 964.211,-438.137 960.281,-443.93"/>
</g>
<!-- index.ts -->
<g id="node5" class="node"><title>index.ts</title>
<path fill="none" stroke="#c6c5fe" d="M93.3333,-276.668C93.3333,-276.668 43.6667,-276.668 43.6667,-276.668 39.8333,-276.668 36,-272.834 36,-269.001 36,-269.001 36,-261.334 36,-261.334 36,-257.501 39.8333,-253.668 43.6667,-253.668 43.6667,-253.668 93.3333,-253.668 93.3333,-253.668 97.1667,-253.668 101,-257.501 101,-261.334 101,-261.334 101,-269.001 101,-269.001 101,-272.834 97.1667,-276.668 93.3333,-276.668"/>
<text text-anchor="middle" x="68.5" y="-261.468" font-family="Arial" font-size="14.00" fill="#c6c5fe">index.ts</text>
</g>
<!-- index.ts&#45;&gt;cli/showBoard.ts -->
<g id="edge4" class="edge"><title>index.ts&#45;&gt;cli/showBoard.ts</title>
<path fill="none" stroke="#757575" d="M74.6347,-253.335C87.0254,-226.419 121.405,-160.81 173,-133.168 238.777,-97.927 325.827,-96.7716 385.719,-101.653"/>
<polygon fill="#757575" stroke="#757575" points="385.56,-105.153 395.832,-102.556 386.182,-98.1806 385.56,-105.153"/>
</g>
<!-- index.ts&#45;&gt;primitives/Board.ts -->
<g id="edge6" class="edge"><title>index.ts&#45;&gt;primitives/Board.ts</title>
<path fill="none" stroke="#757575" d="M84.2424,-253.544C103.44,-239.129 138.62,-215.123 173,-204.168 327.733,-154.863 390.879,-118.404 538,-187.168 582.746,-208.082 614.767,-259.348 629.994,-288.329"/>
<polygon fill="#757575" stroke="#757575" points="627.032,-290.226 634.674,-297.564 633.276,-287.062 627.032,-290.226"/>
</g>
<!-- index.ts&#45;&gt;primitives/Piece.ts -->
<g id="edge9" class="edge"><title>index.ts&#45;&gt;primitives/Piece.ts</title>
<path fill="none" stroke="#757575" d="M72.5225,-253.358C81.4595,-221.198 111.095,-132.071 173,-96.1677 378.691,23.128 510.461,39.1896 708,-93.1677 787.24,-146.261 808.66,-270.931 814.181,-321.393"/>
<polygon fill="#757575" stroke="#757575" points="810.713,-321.897 815.179,-331.505 817.68,-321.21 810.713,-321.897"/>
</g>
<!-- play.ts -->
<g id="node6" class="node"><title>play.ts</title>
<path fill="none" stroke="#c6c5fe" d="M276.333,-236.668C276.333,-236.668 234.667,-236.668 234.667,-236.668 230.833,-236.668 227,-232.834 227,-229.001 227,-229.001 227,-221.334 227,-221.334 227,-217.501 230.833,-213.668 234.667,-213.668 234.667,-213.668 276.333,-213.668 276.333,-213.668 280.167,-213.668 284,-217.501 284,-221.334 284,-221.334 284,-229.001 284,-229.001 284,-232.834 280.167,-236.668 276.333,-236.668"/>
<text text-anchor="middle" x="255.5" y="-221.468" font-family="Arial" font-size="14.00" fill="#c6c5fe">play.ts</text>
</g>
<!-- index.ts&#45;&gt;play.ts -->
<g id="edge5" class="edge"><title>index.ts&#45;&gt;play.ts</title>
<path fill="none" stroke="#757575" d="M101.303,-258.291C133.322,-251.368 182.714,-240.689 216.713,-233.338"/>
<polygon fill="#757575" stroke="#757575" points="217.699,-236.706 226.733,-231.171 216.219,-229.864 217.699,-236.706"/>
</g>
<!-- primitives/Game.ts -->
<g id="node7" class="node"><title>primitives/Game.ts</title>
<path fill="none" stroke="#c6c5fe" d="M515.333,-491.668C515.333,-491.668 396.667,-491.668 396.667,-491.668 392.833,-491.668 389,-487.834 389,-484.001 389,-484.001 389,-476.334 389,-476.334 389,-472.501 392.833,-468.668 396.667,-468.668 396.667,-468.668 515.333,-468.668 515.333,-468.668 519.167,-468.668 523,-472.501 523,-476.334 523,-476.334 523,-484.001 523,-484.001 523,-487.834 519.167,-491.668 515.333,-491.668"/>
<text text-anchor="middle" x="456" y="-476.468" font-family="Arial" font-size="14.00" fill="#c6c5fe">primitives/Game.ts</text>
</g>
<!-- index.ts&#45;&gt;primitives/Game.ts -->
<g id="edge7" class="edge"><title>index.ts&#45;&gt;primitives/Game.ts</title>
<path fill="none" stroke="#757575" d="M79.2683,-276.877C96.4507,-296.86 133.977,-337.84 173,-363.168 248.023,-411.86 346.663,-447.194 405.192,-465.625"/>
<polygon fill="#757575" stroke="#757575" points="404.346,-469.028 414.934,-468.654 406.424,-462.343 404.346,-469.028"/>
</g>
<!-- primitives/Move.ts -->
<g id="node8" class="node"><title>primitives/Move.ts</title>
<path fill="none" stroke="#c6c5fe" d="M698.333,-388.668C698.333,-388.668 583.667,-388.668 583.667,-388.668 579.833,-388.668 576,-384.834 576,-381.001 576,-381.001 576,-373.334 576,-373.334 576,-369.501 579.833,-365.668 583.667,-365.668 583.667,-365.668 698.333,-365.668 698.333,-365.668 702.167,-365.668 706,-369.501 706,-373.334 706,-373.334 706,-381.001 706,-381.001 706,-384.834 702.167,-388.668 698.333,-388.668"/>
<text text-anchor="middle" x="641" y="-373.468" font-family="Arial" font-size="14.00" fill="#c6c5fe">primitives/Move.ts</text>
</g>
<!-- index.ts&#45;&gt;primitives/Move.ts -->
<g id="edge8" class="edge"><title>index.ts&#45;&gt;primitives/Move.ts</title>
<path fill="none" stroke="#757575" d="M101.151,-272.779C121.612,-277.632 148.837,-283.963 173,-289.168 195.261,-293.962 351.628,-324.923 374,-329.168 438.752,-341.452 512.519,-354.705 565.918,-364.166"/>
<polygon fill="#757575" stroke="#757575" points="565.524,-367.651 575.981,-365.947 566.744,-360.758 565.524,-367.651"/>
</g>
<!-- index.ts&#45;&gt;primitives/Position.ts -->
<g id="edge10" class="edge"><title>index.ts&#45;&gt;primitives/Position.ts</title>
<path fill="none" stroke="#757575" d="M74.5039,-276.76C87.0919,-304.669 122.7,-376.3 173,-417.168 248.013,-478.113 279.34,-480.653 374,-500.168 497.388,-525.604 644.298,-517.182 733.816,-507.867"/>
<polygon fill="#757575" stroke="#757575" points="734.334,-511.332 743.905,-506.788 733.59,-504.371 734.334,-511.332"/>
</g>
<!-- primitives/initialBoard.ts -->
<g id="node10" class="node"><title>primitives/initialBoard.ts</title>
<path fill="none" stroke="#c6c5fe" d="M530.333,-320.668C530.333,-320.668 381.667,-320.668 381.667,-320.668 377.833,-320.668 374,-316.834 374,-313.001 374,-313.001 374,-305.334 374,-305.334 374,-301.501 377.833,-297.668 381.667,-297.668 381.667,-297.668 530.333,-297.668 530.333,-297.668 534.167,-297.668 538,-301.501 538,-305.334 538,-305.334 538,-313.001 538,-313.001 538,-316.834 534.167,-320.668 530.333,-320.668"/>
<text text-anchor="middle" x="456" y="-305.468" font-family="Arial" font-size="14.00" fill="#c6c5fe">primitives/initialBoard.ts</text>
</g>
<!-- index.ts&#45;&gt;primitives/initialBoard.ts -->
<g id="edge11" class="edge"><title>index.ts&#45;&gt;primitives/initialBoard.ts</title>
<path fill="none" stroke="#757575" d="M101.005,-267.162C151.258,-270.527 252.605,-278.071 338,-289.168 352.611,-291.066 368.188,-293.465 383.05,-295.935"/>
<polygon fill="#757575" stroke="#757575" points="382.761,-299.436 393.205,-297.652 383.928,-292.534 382.761,-299.436"/>
</g>
<!-- primitives/initialGame.ts -->
<g id="node11" class="node"><title>primitives/initialGame.ts</title>
<path fill="none" stroke="#c6c5fe" d="M330.333,-354.668C330.333,-354.668 180.667,-354.668 180.667,-354.668 176.833,-354.668 173,-350.834 173,-347.001 173,-347.001 173,-339.334 173,-339.334 173,-335.501 176.833,-331.668 180.667,-331.668 180.667,-331.668 330.333,-331.668 330.333,-331.668 334.167,-331.668 338,-335.501 338,-339.334 338,-339.334 338,-347.001 338,-347.001 338,-350.834 334.167,-354.668 330.333,-354.668"/>
<text text-anchor="middle" x="255.5" y="-339.468" font-family="Arial" font-size="14.00" fill="#c6c5fe">primitives/initialGame.ts</text>
</g>
<!-- index.ts&#45;&gt;primitives/initialGame.ts -->
<g id="edge12" class="edge"><title>index.ts&#45;&gt;primitives/initialGame.ts</title>
<path fill="none" stroke="#757575" d="M90.0659,-276.707C110.638,-287.959 143.393,-305.095 173,-317.168 182.901,-321.205 193.678,-325.028 204.056,-328.437"/>
<polygon fill="#757575" stroke="#757575" points="203.252,-331.855 213.843,-331.573 205.388,-325.189 203.252,-331.855"/>
</g>
<!-- play.ts&#45;&gt;cli/showBoard.ts -->
<g id="edge19" class="edge"><title>play.ts&#45;&gt;cli/showBoard.ts</title>
<path fill="none" stroke="#757575" d="M284.205,-218.812C300.417,-214.494 320.978,-207.961 338,-199.168 357.646,-189.019 404.637,-152.012 432.725,-129.346"/>
<polygon fill="#757575" stroke="#757575" points="435.216,-131.832 440.783,-122.818 430.81,-126.393 435.216,-131.832"/>
</g>
<!-- play.ts&#45;&gt;primitives/Board.ts -->
<g id="edge20" class="edge"><title>play.ts&#45;&gt;primitives/Board.ts</title>
<path fill="none" stroke="#757575" d="M284.184,-215.806C336.188,-199.85 451.063,-172.408 538,-208.168 577.647,-224.476 610.068,-264.472 627.072,-288.958"/>
<polygon fill="#757575" stroke="#757575" points="624.332,-291.156 632.817,-297.501 630.141,-287.25 624.332,-291.156"/>
</g>
<!-- play.ts&#45;&gt;primitives/Move.ts -->
<g id="edge21" class="edge"><title>play.ts&#45;&gt;primitives/Move.ts</title>
<path fill="none" stroke="#757575" d="M284.251,-230.893C353.09,-245.161 526.961,-281.623 538,-288.168 558.859,-300.536 556.084,-312.825 574,-329.168 586.129,-340.232 600.8,-351.114 613.227,-359.712"/>
<polygon fill="#757575" stroke="#757575" points="611.571,-362.819 621.81,-365.54 615.503,-357.027 611.571,-362.819"/>
</g>
<!-- play.ts&#45;&gt;primitives/initialBoard.ts -->
<g id="edge22" class="edge"><title>play.ts&#45;&gt;primitives/initialBoard.ts</title>
<path fill="none" stroke="#757575" d="M284.102,-230.919C300.468,-235.057 321.223,-241.612 338,-251.168 356.602,-261.762 355.408,-272.556 374,-283.168 381.549,-287.476 389.908,-291.178 398.305,-294.324"/>
<polygon fill="#757575" stroke="#757575" points="397.167,-297.633 407.762,-297.642 399.485,-291.028 397.167,-297.633"/>
</g>
<!-- primitives/validators.ts -->
<g id="node13" class="node"><title>primitives/validators.ts</title>
<path fill="none" stroke="#c6c5fe" d="M525.833,-240.668C525.833,-240.668 386.167,-240.668 386.167,-240.668 382.333,-240.668 378.5,-236.834 378.5,-233.001 378.5,-233.001 378.5,-225.334 378.5,-225.334 378.5,-221.501 382.333,-217.668 386.167,-217.668 386.167,-217.668 525.833,-217.668 525.833,-217.668 529.667,-217.668 533.5,-221.501 533.5,-225.334 533.5,-225.334 533.5,-233.001 533.5,-233.001 533.5,-236.834 529.667,-240.668 525.833,-240.668"/>
<text text-anchor="middle" x="456" y="-225.468" font-family="Arial" font-size="14.00" fill="#c6c5fe">primitives/validators.ts</text>
</g>
<!-- play.ts&#45;&gt;primitives/validators.ts -->
<g id="edge23" class="edge"><title>play.ts&#45;&gt;primitives/validators.ts</title>
<path fill="none" stroke="#757575" d="M284.101,-225.724C306.018,-226.166 337.917,-226.808 368.236,-227.419"/>
<polygon fill="#757575" stroke="#757575" points="368.373,-230.923 378.441,-227.625 368.514,-223.924 368.373,-230.923"/>
</g>
<!-- primitives/Game.ts&#45;&gt;primitives/Board.ts -->
<g id="edge26" class="edge"><title>primitives/Game.ts&#45;&gt;primitives/Board.ts</title>
<path fill="none" stroke="#757575" d="M466.645,-468.508C485.838,-445.647 530.704,-393.884 574,-356.168 586.205,-345.536 600.773,-334.965 613.113,-326.55"/>
<polygon fill="#757575" stroke="#757575" points="615.283,-329.309 621.64,-320.833 611.385,-323.495 615.283,-329.309"/>
</g>
<!-- primitives/Game.ts&#45;&gt;primitives/Piece.ts -->
<g id="edge28" class="edge"><title>primitives/Game.ts&#45;&gt;primitives/Piece.ts</title>
<path fill="none" stroke="#757575" d="M496.985,-468.667C510.198,-464.515 524.871,-459.52 538,-454.168 554.565,-447.414 557.344,-442.694 574,-436.168 631.752,-413.539 650.248,-419.796 708,-397.168 735.374,-386.442 765.168,-371.262 786.516,-359.726"/>
<polygon fill="#757575" stroke="#757575" points="788.305,-362.737 795.403,-354.871 784.949,-356.594 788.305,-362.737"/>
</g>
<!-- primitives/Game.ts&#45;&gt;primitives/Move.ts -->
<g id="edge27" class="edge"><title>primitives/Game.ts&#45;&gt;primitives/Move.ts</title>
<path fill="none" stroke="#757575" d="M509.946,-468.627C519.835,-465.003 529.667,-460.287 538,-454.168 560.363,-437.747 552.179,-420.303 574,-403.168 578.958,-399.274 584.572,-395.898 590.381,-392.989"/>
<polygon fill="#757575" stroke="#757575" points="591.952,-396.119 599.605,-388.793 589.053,-389.748 591.952,-396.119"/>
</g>
<!-- primitives/Game.ts&#45;&gt;primitives/Position.ts -->
<g id="edge29" class="edge"><title>primitives/Game.ts&#45;&gt;primitives/Position.ts</title>
<path fill="none" stroke="#757575" d="M523.265,-483.306C582.689,-486.119 670.098,-490.259 733.927,-493.281"/>
<polygon fill="#757575" stroke="#757575" points="733.806,-496.779 743.961,-493.756 734.137,-489.787 733.806,-496.779"/>
</g>
<!-- primitives/Game.ts&#45;&gt;primitives/Side.ts -->
<g id="edge30" class="edge"><title>primitives/Game.ts&#45;&gt;primitives/Side.ts</title>
<path fill="none" stroke="#757575" d="M493.157,-491.692C568.507,-513.889 747.2,-557.01 890,-517.168 918.59,-509.191 947.155,-490.301 965.906,-476.028"/>
<polygon fill="#757575" stroke="#757575" points="968.08,-478.772 973.796,-469.851 963.764,-473.26 968.08,-478.772"/>
</g>
<!-- utils.ts -->
<g id="node15" class="node"><title>utils.ts</title>
<path fill="none" stroke="#cfffac" d="M661.333,-468.668C661.333,-468.668 620.667,-468.668 620.667,-468.668 616.833,-468.668 613,-464.834 613,-461.001 613,-461.001 613,-453.334 613,-453.334 613,-449.501 616.833,-445.668 620.667,-445.668 620.667,-445.668 661.333,-445.668 661.333,-445.668 665.167,-445.668 669,-449.501 669,-453.334 669,-453.334 669,-461.001 669,-461.001 669,-464.834 665.167,-468.668 661.333,-468.668"/>
<text text-anchor="middle" x="641" y="-453.468" font-family="Arial" font-size="14.00" fill="#cfffac">utils.ts</text>
</g>
<!-- primitives/Game.ts&#45;&gt;utils.ts -->
<g id="edge31" class="edge"><title>primitives/Game.ts&#45;&gt;utils.ts</title>
<path fill="none" stroke="#757575" d="M523.067,-471.864C549.879,-468.494 579.856,-464.727 602.746,-461.85"/>
<polygon fill="#757575" stroke="#757575" points="603.241,-465.315 612.727,-460.595 602.368,-458.37 603.241,-465.315"/>
</g>
<!-- primitives/Move.ts&#45;&gt;primitives/Piece.ts -->
<g id="edge32" class="edge"><title>primitives/Move.ts&#45;&gt;primitives/Piece.ts</title>
<path fill="none" stroke="#757575" d="M700.908,-365.657C715.709,-362.765 731.724,-359.635 746.97,-356.656"/>
<polygon fill="#757575" stroke="#757575" points="747.713,-360.077 756.856,-354.724 746.371,-353.207 747.713,-360.077"/>
</g>
<!-- primitives/Move.ts&#45;&gt;primitives/Position.ts -->
<g id="edge33" class="edge"><title>primitives/Move.ts&#45;&gt;primitives/Position.ts</title>
<path fill="none" stroke="#757575" d="M658.684,-388.674C689.266,-409.765 754.47,-454.733 790.593,-479.645"/>
<polygon fill="#757575" stroke="#757575" points="788.892,-482.724 799.111,-485.52 792.866,-476.961 788.892,-482.724"/>
</g>
<!-- primitives/initialBoard.ts&#45;&gt;primitives/Board.ts -->
<g id="edge35" class="edge"><title>primitives/initialBoard.ts&#45;&gt;primitives/Board.ts</title>
<path fill="none" stroke="#757575" d="M538.066,-309.168C546.562,-309.168 555.179,-309.168 563.62,-309.168"/>
<polygon fill="#757575" stroke="#757575" points="563.809,-312.668 573.809,-309.168 563.809,-305.668 563.809,-312.668"/>
</g>
<!-- primitives/initialGame.ts&#45;&gt;primitives/Game.ts -->
<g id="edge36" class="edge"><title>primitives/initialGame.ts&#45;&gt;primitives/Game.ts</title>
<path fill="none" stroke="#757575" d="M305.022,-354.704C316.273,-358.434 327.9,-363.196 338,-369.168 343.638,-372.501 403.556,-430.278 435.382,-461.119"/>
<polygon fill="#757575" stroke="#757575" points="433.203,-463.881 442.818,-468.33 438.076,-458.855 433.203,-463.881"/>
</g>
<!-- primitives/initialGame.ts&#45;&gt;primitives/initialBoard.ts -->
<g id="edge37" class="edge"><title>primitives/initialGame.ts&#45;&gt;primitives/initialBoard.ts</title>
<path fill="none" stroke="#757575" d="M323.703,-331.657C340.909,-328.71 359.554,-325.516 377.243,-322.486"/>
<polygon fill="#757575" stroke="#757575" points="378.263,-325.863 387.529,-320.724 377.081,-318.963 378.263,-325.863"/>
</g>
<!-- interactiveMoves.ts -->
<g id="node12" class="node"><title>interactiveMoves.ts</title>
<path fill="none" stroke="#c6c5fe" d="M129.333,-451.668C129.333,-451.668 7.66667,-451.668 7.66667,-451.668 3.83333,-451.668 0,-447.834 0,-444.001 0,-444.001 0,-436.334 0,-436.334 0,-432.501 3.83333,-428.668 7.66667,-428.668 7.66667,-428.668 129.333,-428.668 129.333,-428.668 133.167,-428.668 137,-432.501 137,-436.334 137,-436.334 137,-444.001 137,-444.001 137,-447.834 133.167,-451.668 129.333,-451.668"/>
<text text-anchor="middle" x="68.5" y="-436.468" font-family="Arial" font-size="14.00" fill="#c6c5fe">interactiveMoves.ts</text>
</g>
<!-- interactiveMoves.ts&#45;&gt;cli/showBoard.ts -->
<g id="edge13" class="edge"><title>interactiveMoves.ts&#45;&gt;cli/showBoard.ts</title>
<path fill="none" stroke="#757575" d="M74.5702,-428.521C95.208,-381.125 171.854,-205.209 173,-204.168 205.737,-174.394 321.386,-142.73 394.022,-125.1"/>
<polygon fill="#757575" stroke="#757575" points="395.068,-128.449 403.972,-122.708 393.431,-121.643 395.068,-128.449"/>
</g>
<!-- interactiveMoves.ts&#45;&gt;primitives/Board.ts -->
<g id="edge14" class="edge"><title>interactiveMoves.ts&#45;&gt;primitives/Board.ts</title>
<path fill="none" stroke="#757575" d="M119.628,-428.657C224.542,-404.567 466.868,-348.923 579.907,-322.966"/>
<polygon fill="#757575" stroke="#757575" points="580.819,-326.348 589.782,-320.699 579.252,-319.526 580.819,-326.348"/>
</g>
<!-- interactiveMoves.ts&#45;&gt;primitives/Game.ts -->
<g id="edge15" class="edge"><title>interactiveMoves.ts&#45;&gt;primitives/Game.ts</title>
<path fill="none" stroke="#757575" d="M98.3959,-451.82C118.856,-459.462 147.148,-468.817 173,-473.168 242.022,-484.784 321.869,-485.612 378.942,-484.076"/>
<polygon fill="#757575" stroke="#757575" points="379.078,-487.574 388.969,-483.776 378.868,-480.577 379.078,-487.574"/>
</g>
<!-- interactiveMoves.ts&#45;&gt;primitives/Move.ts -->
<g id="edge16" class="edge"><title>interactiveMoves.ts&#45;&gt;primitives/Move.ts</title>
<path fill="none" stroke="#757575" d="M137.244,-441.703C191.628,-442.263 269.88,-441.556 338,-435.168 427.77,-426.749 449.628,-419.058 538,-401.168 546.876,-399.371 564.276,-395.341 582.227,-391.088"/>
<polygon fill="#757575" stroke="#757575" points="583.288,-394.433 592.206,-388.715 581.668,-387.623 583.288,-394.433"/>
</g>
<!-- interactiveMoves.ts&#45;&gt;primitives/Position.ts -->
<g id="edge17" class="edge"><title>interactiveMoves.ts&#45;&gt;primitives/Position.ts</title>
<path fill="none" stroke="#757575" d="M76.1464,-451.998C90.3005,-475.813 126.003,-528.985 173,-549.168 391.482,-642.996 476.182,-602.069 708,-549.168 737.514,-542.432 768.36,-526.56 789.493,-514.111"/>
<polygon fill="#757575" stroke="#757575" points="791.452,-517.016 798.201,-508.849 787.832,-511.025 791.452,-517.016"/>
</g>
<!-- interactiveMoves.ts&#45;&gt;primitives/initialGame.ts -->
<g id="edge18" class="edge"><title>interactiveMoves.ts&#45;&gt;primitives/initialGame.ts</title>
<path fill="none" stroke="#757575" d="M91.4484,-428.66C124.183,-411.496 185.942,-379.114 223.341,-359.505"/>
<polygon fill="#757575" stroke="#757575" points="225.061,-362.555 232.292,-354.812 221.811,-356.356 225.061,-362.555"/>
</g>
<!-- primitives/validators.ts&#45;&gt;primitives/Board.ts -->
<g id="edge38" class="edge"><title>primitives/validators.ts&#45;&gt;primitives/Board.ts</title>
<path fill="none" stroke="#757575" d="M497.887,-240.75C510.887,-244.84 525.206,-249.777 538,-255.168 563.664,-265.98 591.527,-280.97 611.636,-292.413"/>
<polygon fill="#757575" stroke="#757575" points="610.154,-295.598 620.567,-297.552 613.646,-289.531 610.154,-295.598"/>
</g>
</g>
</svg>
