<?xml version="1.0" encoding="UTF-8" standalone="no"?>
<!DOCTYPE svg PUBLIC "-//W3C//DTD SVG 1.1//EN"
 "http://www.w3.org/Graphics/SVG/1.1/DTD/svg11.dtd">
<!-- Generated by graphviz version 2.38.0 (20140413.2041)
 -->
<!-- Title: G Pages: 1 -->
<svg width="914pt" height="296pt"
 viewBox="0.00 0.00 914.20 295.50" xmlns="http://www.w3.org/2000/svg" xmlns:xlink="http://www.w3.org/1999/xlink">
<g id="graph0" class="graph" transform="scale(1 1) rotate(0) translate(21.6 273.902)">
<title>G</title>
<polygon fill="#111111" stroke="none" points="-21.6,21.6 -21.6,-273.902 892.6,-273.902 892.6,21.6 -21.6,21.6"/>
<!-- cli/strings.ts -->
<g id="node1" class="node"><title>cli/strings.ts</title>
<path fill="none" stroke="#cfffac" d="M313.833,-92.7455C313.833,-92.7455 238.167,-92.7455 238.167,-92.7455 234.333,-92.7455 230.5,-88.9121 230.5,-85.0788 230.5,-85.0788 230.5,-77.4121 230.5,-77.4121 230.5,-73.5788 234.333,-69.7455 238.167,-69.7455 238.167,-69.7455 313.833,-69.7455 313.833,-69.7455 317.667,-69.7455 321.5,-73.5788 321.5,-77.4121 321.5,-77.4121 321.5,-85.0788 321.5,-85.0788 321.5,-88.9121 317.667,-92.7455 313.833,-92.7455"/>
<text text-anchor="middle" x="276" y="-77.5455" font-family="Arial" font-size="14.00" fill="#cfffac">cli/strings.ts</text>
</g>
<!-- index.ts -->
<g id="node2" class="node"><title>index.ts</title>
<path fill="none" stroke="#c6c5fe" d="M57.3333,-168.745C57.3333,-168.745 7.66667,-168.745 7.66667,-168.745 3.83333,-168.745 0,-164.912 0,-161.079 0,-161.079 0,-153.412 0,-153.412 0,-149.579 3.83333,-145.745 7.66667,-145.745 7.66667,-145.745 57.3333,-145.745 57.3333,-145.745 61.1667,-145.745 65,-149.579 65,-153.412 65,-153.412 65,-161.079 65,-161.079 65,-164.912 61.1667,-168.745 57.3333,-168.745"/>
<text text-anchor="middle" x="32.5" y="-153.545" font-family="Arial" font-size="14.00" fill="#c6c5fe">index.ts</text>
</g>
<!-- play.ts -->
<g id="node3" class="node"><title>play.ts</title>
<path fill="none" stroke="#c6c5fe" d="M150.333,-143.745C150.333,-143.745 108.667,-143.745 108.667,-143.745 104.833,-143.745 101,-139.912 101,-136.079 101,-136.079 101,-128.412 101,-128.412 101,-124.579 104.833,-120.745 108.667,-120.745 108.667,-120.745 150.333,-120.745 150.333,-120.745 154.167,-120.745 158,-124.579 158,-128.412 158,-128.412 158,-136.079 158,-136.079 158,-139.912 154.167,-143.745 150.333,-143.745"/>
<text text-anchor="middle" x="129.5" y="-128.545" font-family="Arial" font-size="14.00" fill="#c6c5fe">play.ts</text>
</g>
<!-- index.ts&#45;&gt;play.ts -->
<g id="edge1" class="edge"><title>index.ts&#45;&gt;play.ts</title>
<path fill="none" stroke="#757575" d="M65.1336,-148.921C73.4358,-146.736 82.4685,-144.359 91.0436,-142.102"/>
<polygon fill="#757575" stroke="#757575" points="92.0486,-145.457 100.829,-139.527 90.2671,-138.688 92.0486,-145.457"/>
</g>
<!-- primitives/Board.ts -->
<g id="node4" class="node"><title>primitives/Board.ts</title>
<path fill="none" stroke="#c6c5fe" d="M520.333,-173.745C520.333,-173.745 401.667,-173.745 401.667,-173.745 397.833,-173.745 394,-169.912 394,-166.079 394,-166.079 394,-158.412 394,-158.412 394,-154.579 397.833,-150.745 401.667,-150.745 401.667,-150.745 520.333,-150.745 520.333,-150.745 524.167,-150.745 528,-154.579 528,-158.412 528,-158.412 528,-166.079 528,-166.079 528,-169.912 524.167,-173.745 520.333,-173.745"/>
<text text-anchor="middle" x="461" y="-158.545" font-family="Arial" font-size="14.00" fill="#c6c5fe">primitives/Board.ts</text>
</g>
<!-- index.ts&#45;&gt;primitives/Board.ts -->
<g id="edge2" class="edge"><title>index.ts&#45;&gt;primitives/Board.ts</title>
<path fill="none" stroke="#757575" d="M56.3574,-168.793C69.3099,-175.156 85.8976,-183.005 101,-189.245 207.432,-233.223 246.886,-252.503 358,-222.245 388.046,-214.064 418.269,-194.537 437.927,-179.968"/>
<polygon fill="#757575" stroke="#757575" points="440.089,-182.721 445.925,-173.879 435.849,-177.152 440.089,-182.721"/>
</g>
<!-- primitives/Move.ts -->
<g id="node5" class="node"><title>primitives/Move.ts</title>
<path fill="none" stroke="#c6c5fe" d="M518.333,-52.7455C518.333,-52.7455 403.667,-52.7455 403.667,-52.7455 399.833,-52.7455 396,-48.9121 396,-45.0788 396,-45.0788 396,-37.4121 396,-37.4121 396,-33.5788 399.833,-29.7455 403.667,-29.7455 403.667,-29.7455 518.333,-29.7455 518.333,-29.7455 522.167,-29.7455 526,-33.5788 526,-37.4121 526,-37.4121 526,-45.0788 526,-45.0788 526,-48.9121 522.167,-52.7455 518.333,-52.7455"/>
<text text-anchor="middle" x="461" y="-37.5455" font-family="Arial" font-size="14.00" fill="#c6c5fe">primitives/Move.ts</text>
</g>
<!-- index.ts&#45;&gt;primitives/Move.ts -->
<g id="edge3" class="edge"><title>index.ts&#45;&gt;primitives/Move.ts</title>
<path fill="none" stroke="#757575" d="M42.7974,-145.561C65.2649,-118.388 125.722,-51.4281 194,-27.2455 265.609,-1.88274 354.849,-14.8355 409.604,-27.3734"/>
<polygon fill="#757575" stroke="#757575" points="408.877,-30.798 419.415,-29.7004 410.493,-23.987 408.877,-30.798"/>
</g>
<!-- primitives/Piece.ts -->
<g id="node6" class="node"><title>primitives/Piece.ts</title>
<path fill="none" stroke="#c6c5fe" d="M695.333,-173.745C695.333,-173.745 578.667,-173.745 578.667,-173.745 574.833,-173.745 571,-169.912 571,-166.079 571,-166.079 571,-158.412 571,-158.412 571,-154.579 574.833,-150.745 578.667,-150.745 578.667,-150.745 695.333,-150.745 695.333,-150.745 699.167,-150.745 703,-154.579 703,-158.412 703,-158.412 703,-166.079 703,-166.079 703,-169.912 699.167,-173.745 695.333,-173.745"/>
<text text-anchor="middle" x="637" y="-158.545" font-family="Arial" font-size="14.00" fill="#c6c5fe">primitives/Piece.ts</text>
</g>
<!-- index.ts&#45;&gt;primitives/Piece.ts -->
<g id="edge4" class="edge"><title>index.ts&#45;&gt;primitives/Piece.ts</title>
<path fill="none" stroke="#757575" d="M44.3442,-169.101C56.8447,-182.117 78.5666,-202.813 101,-215.245 138.87,-236.233 151.197,-237.727 194,-244.245 266.058,-255.22 285.859,-254.663 358,-244.245 445.727,-231.577 544.347,-197.52 597.335,-177.505"/>
<polygon fill="#757575" stroke="#757575" points="598.901,-180.654 606.997,-173.82 596.406,-174.114 598.901,-180.654"/>
</g>
<!-- primitives/Position.ts -->
<g id="node7" class="node"><title>primitives/Position.ts</title>
<path fill="none" stroke="#cfffac" d="M702.333,-52.7455C702.333,-52.7455 571.667,-52.7455 571.667,-52.7455 567.833,-52.7455 564,-48.9121 564,-45.0788 564,-45.0788 564,-37.4121 564,-37.4121 564,-33.5788 567.833,-29.7455 571.667,-29.7455 571.667,-29.7455 702.333,-29.7455 702.333,-29.7455 706.167,-29.7455 710,-33.5788 710,-37.4121 710,-37.4121 710,-45.0788 710,-45.0788 710,-48.9121 706.167,-52.7455 702.333,-52.7455"/>
<text text-anchor="middle" x="637" y="-37.5455" font-family="Arial" font-size="14.00" fill="#cfffac">primitives/Position.ts</text>
</g>
<!-- index.ts&#45;&gt;primitives/Position.ts -->
<g id="edge5" class="edge"><title>index.ts&#45;&gt;primitives/Position.ts</title>
<path fill="none" stroke="#757575" d="M37.1373,-145.408C44.9539,-121.912 65.5764,-69.1637 101,-40.2455 134.751,-12.6928 150.993,-16.2245 194,-9.24547 328.414,12.5669 488.243,-11.0778 574.094,-27.7501"/>
<polygon fill="#757575" stroke="#757575" points="573.449,-31.1902 583.938,-29.6944 574.806,-24.3229 573.449,-31.1902"/>
</g>
<!-- primitives/initialBoard.ts -->
<g id="node8" class="node"><title>primitives/initialBoard.ts</title>
<path fill="none" stroke="#c6c5fe" d="M350.333,-213.745C350.333,-213.745 201.667,-213.745 201.667,-213.745 197.833,-213.745 194,-209.912 194,-206.079 194,-206.079 194,-198.412 194,-198.412 194,-194.579 197.833,-190.745 201.667,-190.745 201.667,-190.745 350.333,-190.745 350.333,-190.745 354.167,-190.745 358,-194.579 358,-198.412 358,-198.412 358,-206.079 358,-206.079 358,-209.912 354.167,-213.745 350.333,-213.745"/>
<text text-anchor="middle" x="276" y="-198.545" font-family="Arial" font-size="14.00" fill="#c6c5fe">primitives/initialBoard.ts</text>
</g>
<!-- index.ts&#45;&gt;primitives/initialBoard.ts -->
<g id="edge6" class="edge"><title>index.ts&#45;&gt;primitives/initialBoard.ts</title>
<path fill="none" stroke="#757575" d="M65.0719,-163.128C99.9724,-169.632 157.33,-180.319 203.278,-188.881"/>
<polygon fill="#757575" stroke="#757575" points="202.723,-192.338 213.195,-190.729 204.005,-185.456 202.723,-192.338"/>
</g>
<!-- play.ts&#45;&gt;cli/strings.ts -->
<g id="edge7" class="edge"><title>play.ts&#45;&gt;cli/strings.ts</title>
<path fill="none" stroke="#757575" d="M151.466,-120.612C163.612,-114.231 179.354,-106.56 194,-101.245 202.409,-98.1939 211.475,-95.4508 220.391,-93.0448"/>
<polygon fill="#757575" stroke="#757575" points="221.544,-96.362 230.351,-90.4731 219.794,-89.5842 221.544,-96.362"/>
</g>
<!-- play.ts&#45;&gt;primitives/Board.ts -->
<g id="edge8" class="edge"><title>play.ts&#45;&gt;primitives/Board.ts</title>
<path fill="none" stroke="#757575" d="M158.252,-137.116C169.343,-138.932 182.249,-140.881 194,-142.245 257.852,-149.661 330.663,-154.915 383.945,-158.171"/>
<polygon fill="#757575" stroke="#757575" points="383.804,-161.669 393.996,-158.776 384.225,-154.682 383.804,-161.669"/>
</g>
<!-- play.ts&#45;&gt;primitives/Move.ts -->
<g id="edge9" class="edge"><title>play.ts&#45;&gt;primitives/Move.ts</title>
<path fill="none" stroke="#757575" d="M136.858,-120.495C146.643,-103.744 167.114,-73.5554 194,-60.2455 253.568,-30.7565 329.981,-28.3668 385.611,-31.9561"/>
<polygon fill="#757575" stroke="#757575" points="385.521,-35.4587 395.748,-32.6907 386.027,-28.477 385.521,-35.4587"/>
</g>
<!-- play.ts&#45;&gt;primitives/initialBoard.ts -->
<g id="edge10" class="edge"><title>play.ts&#45;&gt;primitives/initialBoard.ts</title>
<path fill="none" stroke="#757575" d="M144.865,-144.052C157.258,-153.769 175.958,-167.345 194,-176.245 202.553,-180.464 211.944,-184.209 221.207,-187.451"/>
<polygon fill="#757575" stroke="#757575" points="220.179,-190.797 230.772,-190.645 222.396,-184.158 220.179,-190.797"/>
</g>
<!-- primitives/validators.ts -->
<g id="node9" class="node"><title>primitives/validators.ts</title>
<path fill="none" stroke="#c6c5fe" d="M345.833,-133.745C345.833,-133.745 206.167,-133.745 206.167,-133.745 202.333,-133.745 198.5,-129.912 198.5,-126.079 198.5,-126.079 198.5,-118.412 198.5,-118.412 198.5,-114.579 202.333,-110.745 206.167,-110.745 206.167,-110.745 345.833,-110.745 345.833,-110.745 349.667,-110.745 353.5,-114.579 353.5,-118.412 353.5,-118.412 353.5,-126.079 353.5,-126.079 353.5,-129.912 349.667,-133.745 345.833,-133.745"/>
<text text-anchor="middle" x="276" y="-118.545" font-family="Arial" font-size="14.00" fill="#c6c5fe">primitives/validators.ts</text>
</g>
<!-- play.ts&#45;&gt;primitives/validators.ts -->
<g id="edge11" class="edge"><title>play.ts&#45;&gt;primitives/validators.ts</title>
<path fill="none" stroke="#757575" d="M158.019,-130.341C166.922,-129.725 177.318,-129.005 188.172,-128.254"/>
<polygon fill="#757575" stroke="#757575" points="188.505,-131.74 198.24,-127.558 188.022,-124.756 188.505,-131.74"/>
</g>
<!-- primitives/Board.ts&#45;&gt;primitives/Piece.ts -->
<g id="edge12" class="edge"><title>primitives/Board.ts&#45;&gt;primitives/Piece.ts</title>
<path fill="none" stroke="#757575" d="M528.278,-162.245C538.831,-162.245 549.816,-162.245 560.562,-162.245"/>
<polygon fill="#757575" stroke="#757575" points="560.769,-165.746 570.769,-162.245 560.769,-158.746 560.769,-165.746"/>
</g>
<!-- primitives/Board.ts&#45;&gt;primitives/Position.ts -->
<g id="edge13" class="edge"><title>primitives/Board.ts&#45;&gt;primitives/Position.ts</title>
<path fill="none" stroke="#757575" d="M478.684,-150.643C509.344,-129.322 574.805,-83.8008 610.87,-58.721"/>
<polygon fill="#757575" stroke="#757575" points="613.155,-61.3951 619.367,-52.8123 609.158,-55.6481 613.155,-61.3951"/>
</g>
<!-- primitives/Move.ts&#45;&gt;primitives/Piece.ts -->
<g id="edge14" class="edge"><title>primitives/Move.ts&#45;&gt;primitives/Piece.ts</title>
<path fill="none" stroke="#757575" d="M478.684,-52.8475C509.344,-74.1686 574.805,-119.69 610.87,-144.77"/>
<polygon fill="#757575" stroke="#757575" points="609.158,-147.843 619.367,-150.679 613.155,-142.096 609.158,-147.843"/>
</g>
<!-- primitives/Move.ts&#45;&gt;primitives/Position.ts -->
<g id="edge15" class="edge"><title>primitives/Move.ts&#45;&gt;primitives/Position.ts</title>
<path fill="none" stroke="#757575" d="M526.297,-41.2455C535.159,-41.2455 544.36,-41.2455 553.494,-41.2455"/>
<polygon fill="#757575" stroke="#757575" points="553.757,-44.7456 563.757,-41.2455 553.757,-37.7456 553.757,-44.7456"/>
</g>
<!-- primitives/Side.ts -->
<g id="node10" class="node"><title>primitives/Side.ts</title>
<path fill="none" stroke="#cfffac" d="M863.333,-173.745C863.333,-173.745 753.667,-173.745 753.667,-173.745 749.833,-173.745 746,-169.912 746,-166.079 746,-166.079 746,-158.412 746,-158.412 746,-154.579 749.833,-150.745 753.667,-150.745 753.667,-150.745 863.333,-150.745 863.333,-150.745 867.167,-150.745 871,-154.579 871,-158.412 871,-158.412 871,-166.079 871,-166.079 871,-169.912 867.167,-173.745 863.333,-173.745"/>
<text text-anchor="middle" x="808.5" y="-158.545" font-family="Arial" font-size="14.00" fill="#cfffac">primitives/Side.ts</text>
</g>
<!-- primitives/Piece.ts&#45;&gt;primitives/Side.ts -->
<g id="edge16" class="edge"><title>primitives/Piece.ts&#45;&gt;primitives/Side.ts</title>
<path fill="none" stroke="#757575" d="M703.048,-162.245C713.731,-162.245 724.857,-162.245 735.693,-162.245"/>
<polygon fill="#757575" stroke="#757575" points="735.97,-165.746 745.97,-162.245 735.97,-158.746 735.97,-165.746"/>
</g>
<!-- primitives/initialBoard.ts&#45;&gt;primitives/Board.ts -->
<g id="edge17" class="edge"><title>primitives/initialBoard.ts&#45;&gt;primitives/Board.ts</title>
<path fill="none" stroke="#757575" d="M329.931,-190.676C350.986,-186.074 375.375,-180.743 397.305,-175.949"/>
<polygon fill="#757575" stroke="#757575" points="398.166,-179.344 407.188,-173.789 396.671,-172.505 398.166,-179.344"/>
</g>
<!-- primitives/validators.ts&#45;&gt;primitives/Board.ts -->
<g id="edge18" class="edge"><title>primitives/validators.ts&#45;&gt;primitives/Board.ts</title>
<path fill="none" stroke="#757575" d="M329.931,-133.815C350.986,-138.417 375.375,-143.748 397.305,-148.542"/>
<polygon fill="#757575" stroke="#757575" points="396.671,-151.986 407.188,-150.702 398.166,-145.147 396.671,-151.986"/>
</g>
</g>
</svg>
