<?xml version="1.0" encoding="UTF-8" standalone="no"?>
<!DOCTYPE svg PUBLIC "-//W3C//DTD SVG 1.1//EN"
 "http://www.w3.org/Graphics/SVG/1.1/DTD/svg11.dtd">
<!-- Generated by graphviz version 2.38.0 (20140413.2041)
 -->
<!-- Title: G Pages: 1 -->
<svg width="1022pt" height="454pt"
 viewBox="0.00 0.00 1022.20 454.33" xmlns="http://www.w3.org/2000/svg" xmlns:xlink="http://www.w3.org/1999/xlink">
<g id="graph0" class="graph" transform="scale(1 1) rotate(0) translate(21.6 432.732)">
<title>G</title>
<polygon fill="#111111" stroke="none" points="-21.6,21.6 -21.6,-432.732 1000.6,-432.732 1000.6,21.6 -21.6,21.6"/>
<!-- cli/showBoard.ts -->
<g id="node1" class="node"><title>cli/showBoard.ts</title>
<path fill="none" stroke="#c6c5fe" d="M436.333,-369.268C436.333,-369.268 331.667,-369.268 331.667,-369.268 327.833,-369.268 324,-365.435 324,-361.601 324,-361.601 324,-353.935 324,-353.935 324,-350.101 327.833,-346.268 331.667,-346.268 331.667,-346.268 436.333,-346.268 436.333,-346.268 440.167,-346.268 444,-350.101 444,-353.935 444,-353.935 444,-361.601 444,-361.601 444,-365.435 440.167,-369.268 436.333,-369.268"/>
<text text-anchor="middle" x="384" y="-354.068" font-family="Arial" font-size="14.00" fill="#c6c5fe">cli/showBoard.ts</text>
</g>
<!-- cli/strings.ts -->
<g id="node2" class="node"><title>cli/strings.ts</title>
<path fill="none" stroke="#cfffac" d="M606.833,-369.268C606.833,-369.268 531.167,-369.268 531.167,-369.268 527.333,-369.268 523.5,-365.435 523.5,-361.601 523.5,-361.601 523.5,-353.935 523.5,-353.935 523.5,-350.101 527.333,-346.268 531.167,-346.268 531.167,-346.268 606.833,-346.268 606.833,-346.268 610.667,-346.268 614.5,-350.101 614.5,-353.935 614.5,-353.935 614.5,-361.601 614.5,-361.601 614.5,-365.435 610.667,-369.268 606.833,-369.268"/>
<text text-anchor="middle" x="569" y="-354.068" font-family="Arial" font-size="14.00" fill="#cfffac">cli/strings.ts</text>
</g>
<!-- cli/showBoard.ts&#45;&gt;cli/strings.ts -->
<g id="edge1" class="edge"><title>cli/showBoard.ts&#45;&gt;cli/strings.ts</title>
<path fill="none" stroke="#757575" d="M444.162,-357.768C466.339,-357.768 491.424,-357.768 513.189,-357.768"/>
<polygon fill="#757575" stroke="#757575" points="513.256,-361.268 523.256,-357.768 513.256,-354.268 513.256,-361.268"/>
</g>
<!-- primitives/Board.ts -->
<g id="node3" class="node"><title>primitives/Board.ts</title>
<path fill="none" stroke="#c6c5fe" d="M628.333,-251.268C628.333,-251.268 509.667,-251.268 509.667,-251.268 505.833,-251.268 502,-247.435 502,-243.601 502,-243.601 502,-235.935 502,-235.935 502,-232.101 505.833,-228.268 509.667,-228.268 509.667,-228.268 628.333,-228.268 628.333,-228.268 632.167,-228.268 636,-232.101 636,-235.935 636,-235.935 636,-243.601 636,-243.601 636,-247.435 632.167,-251.268 628.333,-251.268"/>
<text text-anchor="middle" x="569" y="-236.068" font-family="Arial" font-size="14.00" fill="#c6c5fe">primitives/Board.ts</text>
</g>
<!-- cli/showBoard.ts&#45;&gt;primitives/Board.ts -->
<g id="edge2" class="edge"><title>cli/showBoard.ts&#45;&gt;primitives/Board.ts</title>
<path fill="none" stroke="#757575" d="M432.693,-346.156C444.009,-342.411 455.76,-337.662 466,-331.768 500.121,-312.13 532.652,-279.561 551.454,-258.906"/>
<polygon fill="#757575" stroke="#757575" points="554.136,-261.157 558.188,-251.368 548.916,-256.494 554.136,-261.157"/>
</g>
<!-- primitives/Piece.ts -->
<g id="node8" class="node"><title>primitives/Piece.ts</title>
<path fill="none" stroke="#c6c5fe" d="M803.333,-132.268C803.333,-132.268 686.667,-132.268 686.667,-132.268 682.833,-132.268 679,-128.435 679,-124.601 679,-124.601 679,-116.935 679,-116.935 679,-113.101 682.833,-109.268 686.667,-109.268 686.667,-109.268 803.333,-109.268 803.333,-109.268 807.167,-109.268 811,-113.101 811,-116.935 811,-116.935 811,-124.601 811,-124.601 811,-128.435 807.167,-132.268 803.333,-132.268"/>
<text text-anchor="middle" x="745" y="-117.068" font-family="Arial" font-size="14.00" fill="#c6c5fe">primitives/Piece.ts</text>
</g>
<!-- primitives/Board.ts&#45;&gt;primitives/Piece.ts -->
<g id="edge17" class="edge"><title>primitives/Board.ts&#45;&gt;primitives/Piece.ts</title>
<path fill="none" stroke="#757575" d="M587.001,-228.141C617.667,-207.168 682.395,-162.9 718.426,-138.258"/>
<polygon fill="#757575" stroke="#757575" points="720.652,-140.976 726.93,-132.442 716.7,-135.198 720.652,-140.976"/>
</g>
<!-- primitives/Position.ts -->
<g id="node9" class="node"><title>primitives/Position.ts</title>
<path fill="none" stroke="#cfffac" d="M810.333,-230.268C810.333,-230.268 679.667,-230.268 679.667,-230.268 675.833,-230.268 672,-226.435 672,-222.601 672,-222.601 672,-214.935 672,-214.935 672,-211.101 675.833,-207.268 679.667,-207.268 679.667,-207.268 810.333,-207.268 810.333,-207.268 814.167,-207.268 818,-211.101 818,-214.935 818,-214.935 818,-222.601 818,-222.601 818,-226.435 814.167,-230.268 810.333,-230.268"/>
<text text-anchor="middle" x="745" y="-215.068" font-family="Arial" font-size="14.00" fill="#cfffac">primitives/Position.ts</text>
</g>
<!-- primitives/Board.ts&#45;&gt;primitives/Position.ts -->
<g id="edge18" class="edge"><title>primitives/Board.ts&#45;&gt;primitives/Position.ts</title>
<path fill="none" stroke="#757575" d="M636.278,-231.769C644.631,-230.761 653.254,-229.72 661.814,-228.687"/>
<polygon fill="#757575" stroke="#757575" points="662.307,-232.153 671.815,-227.48 661.468,-225.203 662.307,-232.153"/>
</g>
<!-- index.ts -->
<g id="node4" class="node"><title>index.ts</title>
<path fill="none" stroke="#c6c5fe" d="M57.3333,-210.268C57.3333,-210.268 7.66667,-210.268 7.66667,-210.268 3.83333,-210.268 0,-206.435 0,-202.601 0,-202.601 0,-194.935 0,-194.935 0,-191.101 3.83333,-187.268 7.66667,-187.268 7.66667,-187.268 57.3333,-187.268 57.3333,-187.268 61.1667,-187.268 65,-191.101 65,-194.935 65,-194.935 65,-202.601 65,-202.601 65,-206.435 61.1667,-210.268 57.3333,-210.268"/>
<text text-anchor="middle" x="32.5" y="-195.068" font-family="Arial" font-size="14.00" fill="#c6c5fe">index.ts</text>
</g>
<!-- index.ts&#45;&gt;cli/showBoard.ts -->
<g id="edge3" class="edge"><title>index.ts&#45;&gt;cli/showBoard.ts</title>
<path fill="none" stroke="#757575" d="M35.5459,-210.498C40.8871,-237.214 57.9428,-302.529 101,-331.768 163.514,-374.22 252.609,-375.07 313.836,-368.969"/>
<polygon fill="#757575" stroke="#757575" points="314.228,-372.447 323.793,-367.892 313.475,-365.488 314.228,-372.447"/>
</g>
<!-- index.ts&#45;&gt;primitives/Board.ts -->
<g id="edge5" class="edge"><title>index.ts&#45;&gt;primitives/Board.ts</title>
<path fill="none" stroke="#757575" d="M42.2811,-210.415C53.9211,-224.854 75.9351,-248.885 101,-259.768 249.963,-324.444 306.054,-304.882 466,-276.768 489.49,-272.639 514.694,-263.544 534.171,-255.405"/>
<polygon fill="#757575" stroke="#757575" points="535.71,-258.553 543.517,-251.39 532.947,-252.122 535.71,-258.553"/>
</g>
<!-- play.ts -->
<g id="node5" class="node"><title>play.ts</title>
<path fill="none" stroke="#c6c5fe" d="M204.333,-251.268C204.333,-251.268 162.667,-251.268 162.667,-251.268 158.833,-251.268 155,-247.435 155,-243.601 155,-243.601 155,-235.935 155,-235.935 155,-232.101 158.833,-228.268 162.667,-228.268 162.667,-228.268 204.333,-228.268 204.333,-228.268 208.167,-228.268 212,-232.101 212,-235.935 212,-235.935 212,-243.601 212,-243.601 212,-247.435 208.167,-251.268 204.333,-251.268"/>
<text text-anchor="middle" x="183.5" y="-236.068" font-family="Arial" font-size="14.00" fill="#c6c5fe">play.ts</text>
</g>
<!-- index.ts&#45;&gt;play.ts -->
<g id="edge4" class="edge"><title>index.ts&#45;&gt;play.ts</title>
<path fill="none" stroke="#757575" d="M65.0991,-207.463C88.5242,-213.909 120.534,-222.717 145.212,-229.508"/>
<polygon fill="#757575" stroke="#757575" points="144.384,-232.91 154.954,-232.188 146.241,-226.161 144.384,-232.91"/>
</g>
<!-- primitives/Game.ts -->
<g id="node6" class="node"><title>primitives/Game.ts</title>
<path fill="none" stroke="#c6c5fe" d="M443.333,-130.268C443.333,-130.268 324.667,-130.268 324.667,-130.268 320.833,-130.268 317,-126.435 317,-122.601 317,-122.601 317,-114.935 317,-114.935 317,-111.101 320.833,-107.268 324.667,-107.268 324.667,-107.268 443.333,-107.268 443.333,-107.268 447.167,-107.268 451,-111.101 451,-114.935 451,-114.935 451,-122.601 451,-122.601 451,-126.435 447.167,-130.268 443.333,-130.268"/>
<text text-anchor="middle" x="384" y="-115.068" font-family="Arial" font-size="14.00" fill="#c6c5fe">primitives/Game.ts</text>
</g>
<!-- index.ts&#45;&gt;primitives/Game.ts -->
<g id="edge6" class="edge"><title>index.ts&#45;&gt;primitives/Game.ts</title>
<path fill="none" stroke="#757575" d="M42.252,-187.054C53.8613,-172.543 75.843,-148.436 101,-137.768 166.417,-110.028 248.056,-107.591 306.634,-110.707"/>
<polygon fill="#757575" stroke="#757575" points="306.736,-114.22 316.928,-111.325 307.155,-107.232 306.736,-114.22"/>
</g>
<!-- primitives/Move.ts -->
<g id="node7" class="node"><title>primitives/Move.ts</title>
<path fill="none" stroke="#c6c5fe" d="M626.333,-170.268C626.333,-170.268 511.667,-170.268 511.667,-170.268 507.833,-170.268 504,-166.435 504,-162.601 504,-162.601 504,-154.935 504,-154.935 504,-151.101 507.833,-147.268 511.667,-147.268 511.667,-147.268 626.333,-147.268 626.333,-147.268 630.167,-147.268 634,-151.101 634,-154.935 634,-154.935 634,-162.601 634,-162.601 634,-166.435 630.167,-170.268 626.333,-170.268"/>
<text text-anchor="middle" x="569" y="-155.068" font-family="Arial" font-size="14.00" fill="#c6c5fe">primitives/Move.ts</text>
</g>
<!-- index.ts&#45;&gt;primitives/Move.ts -->
<g id="edge7" class="edge"><title>index.ts&#45;&gt;primitives/Move.ts</title>
<path fill="none" stroke="#757575" d="M37.982,-186.977C46.5855,-166.218 67.579,-123.653 101,-105.768 244.064,-29.2077 309.595,-54.5679 466,-97.768 496.319,-106.142 526.697,-126.173 546.314,-141.009"/>
<polygon fill="#757575" stroke="#757575" points="544.237,-143.827 554.281,-147.199 548.532,-138.3 544.237,-143.827"/>
</g>
<!-- index.ts&#45;&gt;primitives/Piece.ts -->
<g id="edge8" class="edge"><title>index.ts&#45;&gt;primitives/Piece.ts</title>
<path fill="none" stroke="#757575" d="M34.8399,-187.098C38.826,-158.485 53.4656,-84.9838 101,-54.768 302.406,73.2584 612.93,-56.9753 712.281,-104.731"/>
<polygon fill="#757575" stroke="#757575" points="710.968,-107.985 721.492,-109.215 714.032,-101.691 710.968,-107.985"/>
</g>
<!-- index.ts&#45;&gt;primitives/Position.ts -->
<g id="edge9" class="edge"><title>index.ts&#45;&gt;primitives/Position.ts</title>
<path fill="none" stroke="#757575" d="M34.2051,-210.614C36.78,-242.068 48.5282,-327.86 101,-365.768 173.564,-418.192 212.527,-375.878 302,-378.768 450.367,-383.561 504.92,-448.436 636,-378.768 691.755,-349.135 723.939,-276.46 737.049,-240.146"/>
<polygon fill="#757575" stroke="#757575" points="740.413,-241.126 740.377,-230.531 733.798,-238.836 740.413,-241.126"/>
</g>
<!-- primitives/initialBoard.ts -->
<g id="node10" class="node"><title>primitives/initialBoard.ts</title>
<path fill="none" stroke="#c6c5fe" d="M458.333,-171.268C458.333,-171.268 309.667,-171.268 309.667,-171.268 305.833,-171.268 302,-167.435 302,-163.601 302,-163.601 302,-155.935 302,-155.935 302,-152.101 305.833,-148.268 309.667,-148.268 309.667,-148.268 458.333,-148.268 458.333,-148.268 462.167,-148.268 466,-152.101 466,-155.935 466,-155.935 466,-163.601 466,-163.601 466,-167.435 462.167,-171.268 458.333,-171.268"/>
<text text-anchor="middle" x="384" y="-156.068" font-family="Arial" font-size="14.00" fill="#c6c5fe">primitives/initialBoard.ts</text>
</g>
<!-- index.ts&#45;&gt;primitives/initialBoard.ts -->
<g id="edge10" class="edge"><title>index.ts&#45;&gt;primitives/initialBoard.ts</title>
<path fill="none" stroke="#757575" d="M65.1679,-196.801C109.985,-193.846 194.434,-187.644 266,-178.768 279.475,-177.097 293.777,-175.025 307.584,-172.87"/>
<polygon fill="#757575" stroke="#757575" points="308.204,-176.315 317.531,-171.29 307.106,-169.402 308.204,-176.315"/>
</g>
<!-- primitives/initialGame.ts -->
<g id="node11" class="node"><title>primitives/initialGame.ts</title>
<path fill="none" stroke="#c6c5fe" d="M258.333,-170.268C258.333,-170.268 108.667,-170.268 108.667,-170.268 104.833,-170.268 101,-166.435 101,-162.601 101,-162.601 101,-154.935 101,-154.935 101,-151.101 104.833,-147.268 108.667,-147.268 108.667,-147.268 258.333,-147.268 258.333,-147.268 262.167,-147.268 266,-151.101 266,-154.935 266,-154.935 266,-162.601 266,-162.601 266,-166.435 262.167,-170.268 258.333,-170.268"/>
<text text-anchor="middle" x="183.5" y="-155.068" font-family="Arial" font-size="14.00" fill="#c6c5fe">primitives/initialGame.ts</text>
</g>
<!-- index.ts&#45;&gt;primitives/initialGame.ts -->
<g id="edge11" class="edge"><title>index.ts&#45;&gt;primitives/initialGame.ts</title>
<path fill="none" stroke="#757575" d="M65.0991,-190.285C83.9153,-185.234 108.27,-178.696 129.915,-172.885"/>
<polygon fill="#757575" stroke="#757575" points="130.89,-176.247 139.64,-170.274 129.075,-169.487 130.89,-176.247"/>
</g>
<!-- play.ts&#45;&gt;cli/showBoard.ts -->
<g id="edge12" class="edge"><title>play.ts&#45;&gt;cli/showBoard.ts</title>
<path fill="none" stroke="#757575" d="M203.894,-251.297C239.175,-272.27 313.975,-316.735 354.863,-341.042"/>
<polygon fill="#757575" stroke="#757575" points="353.142,-344.091 363.527,-346.192 356.719,-338.074 353.142,-344.091"/>
</g>
<!-- play.ts&#45;&gt;primitives/Board.ts -->
<g id="edge13" class="edge"><title>play.ts&#45;&gt;primitives/Board.ts</title>
<path fill="none" stroke="#757575" d="M212.345,-245.871C236.047,-250.737 271.071,-257.155 302,-259.768 374.63,-265.905 393.452,-266.813 466,-259.768 480.092,-258.4 495.126,-255.991 509.202,-253.309"/>
<polygon fill="#757575" stroke="#757575" points="510.126,-256.695 519.255,-251.319 508.766,-249.828 510.126,-256.695"/>
</g>
<!-- play.ts&#45;&gt;primitives/Move.ts -->
<g id="edge14" class="edge"><title>play.ts&#45;&gt;primitives/Move.ts</title>
<path fill="none" stroke="#757575" d="M212.08,-233.943C272.627,-221.154 418.54,-190.336 503.554,-172.38"/>
<polygon fill="#757575" stroke="#757575" points="504.295,-175.801 513.356,-170.31 502.849,-168.952 504.295,-175.801"/>
</g>
<!-- play.ts&#45;&gt;primitives/initialBoard.ts -->
<g id="edge15" class="edge"><title>play.ts&#45;&gt;primitives/initialBoard.ts</title>
<path fill="none" stroke="#757575" d="M212.191,-233.003C228.398,-228.463 248.96,-221.676 266,-212.768 283.724,-203.502 284.233,-194.951 302,-185.768 310.19,-181.535 319.202,-177.82 328.148,-174.623"/>
<polygon fill="#757575" stroke="#757575" points="329.44,-177.881 337.787,-171.357 327.193,-171.251 329.44,-177.881"/>
</g>
<!-- primitives/validators.ts -->
<g id="node12" class="node"><title>primitives/validators.ts</title>
<path fill="none" stroke="#c6c5fe" d="M453.833,-251.268C453.833,-251.268 314.167,-251.268 314.167,-251.268 310.333,-251.268 306.5,-247.435 306.5,-243.601 306.5,-243.601 306.5,-235.935 306.5,-235.935 306.5,-232.101 310.333,-228.268 314.167,-228.268 314.167,-228.268 453.833,-228.268 453.833,-228.268 457.667,-228.268 461.5,-232.101 461.5,-235.935 461.5,-235.935 461.5,-243.601 461.5,-243.601 461.5,-247.435 457.667,-251.268 453.833,-251.268"/>
<text text-anchor="middle" x="384" y="-236.068" font-family="Arial" font-size="14.00" fill="#c6c5fe">primitives/validators.ts</text>
</g>
<!-- play.ts&#45;&gt;primitives/validators.ts -->
<g id="edge16" class="edge"><title>play.ts&#45;&gt;primitives/validators.ts</title>
<path fill="none" stroke="#757575" d="M212.101,-239.768C234.018,-239.768 265.917,-239.768 296.236,-239.768"/>
<polygon fill="#757575" stroke="#757575" points="296.441,-243.268 306.441,-239.768 296.441,-236.268 296.441,-243.268"/>
</g>
<!-- primitives/Game.ts&#45;&gt;primitives/Board.ts -->
<g id="edge19" class="edge"><title>primitives/Game.ts&#45;&gt;primitives/Board.ts</title>
<path fill="none" stroke="#757575" d="M451.064,-129.674C456.42,-132.132 461.495,-135.125 466,-138.768 494.438,-161.767 475.318,-187.753 502,-212.768 506.564,-217.047 511.897,-220.688 517.519,-223.777"/>
<polygon fill="#757575" stroke="#757575" points="516.001,-226.931 526.521,-228.19 519.082,-220.646 516.001,-226.931"/>
</g>
<!-- primitives/Game.ts&#45;&gt;primitives/Move.ts -->
<g id="edge20" class="edge"><title>primitives/Game.ts&#45;&gt;primitives/Move.ts</title>
<path fill="none" stroke="#757575" d="M437.931,-130.338C458.986,-134.94 483.375,-140.271 505.305,-145.064"/>
<polygon fill="#757575" stroke="#757575" points="504.671,-148.508 515.188,-147.224 506.166,-141.67 504.671,-148.508"/>
</g>
<!-- primitives/Game.ts&#45;&gt;primitives/Piece.ts -->
<g id="edge21" class="edge"><title>primitives/Game.ts&#45;&gt;primitives/Piece.ts</title>
<path fill="none" stroke="#757575" d="M451.265,-119.137C512.804,-119.48 604.357,-119.99 668.651,-120.348"/>
<polygon fill="#757575" stroke="#757575" points="668.708,-123.849 678.728,-120.404 668.747,-116.849 668.708,-123.849"/>
</g>
<!-- primitives/Game.ts&#45;&gt;primitives/Position.ts -->
<g id="edge22" class="edge"><title>primitives/Game.ts&#45;&gt;primitives/Position.ts</title>
<path fill="none" stroke="#757575" d="M447.978,-130.301C454.281,-132.626 460.409,-135.417 466,-138.768 486.514,-151.065 481.021,-167.283 502,-178.768 550.734,-205.448 612.651,-215.323 661.655,-218.592"/>
<polygon fill="#757575" stroke="#757575" points="661.719,-222.102 671.907,-219.193 662.129,-215.114 661.719,-222.102"/>
</g>
<!-- primitives/Side.ts -->
<g id="node13" class="node"><title>primitives/Side.ts</title>
<path fill="none" stroke="#cfffac" d="M971.333,-112.268C971.333,-112.268 861.667,-112.268 861.667,-112.268 857.833,-112.268 854,-108.435 854,-104.601 854,-104.601 854,-96.9347 854,-96.9347 854,-93.1014 857.833,-89.268 861.667,-89.268 861.667,-89.268 971.333,-89.268 971.333,-89.268 975.167,-89.268 979,-93.1014 979,-96.9347 979,-96.9347 979,-104.601 979,-104.601 979,-108.435 975.167,-112.268 971.333,-112.268"/>
<text text-anchor="middle" x="916.5" y="-97.068" font-family="Arial" font-size="14.00" fill="#cfffac">primitives/Side.ts</text>
</g>
<!-- primitives/Game.ts&#45;&gt;primitives/Side.ts -->
<g id="edge23" class="edge"><title>primitives/Game.ts&#45;&gt;primitives/Side.ts</title>
<path fill="none" stroke="#757575" d="M451.054,-113.151C509.185,-108.504 596.14,-102.276 672,-99.768 736.853,-97.6237 753.112,-99.4353 818,-99.768 826.334,-99.8108 835.069,-99.8741 843.742,-99.9484"/>
<polygon fill="#757575" stroke="#757575" points="843.836,-103.449 853.868,-100.04 843.9,-96.4496 843.836,-103.449"/>
</g>
<!-- primitives/Move.ts&#45;&gt;primitives/Piece.ts -->
<g id="edge24" class="edge"><title>primitives/Move.ts&#45;&gt;primitives/Piece.ts</title>
<path fill="none" stroke="#757575" d="M622.678,-147.264C641.161,-143.227 662.106,-138.653 681.328,-134.455"/>
<polygon fill="#757575" stroke="#757575" points="682.178,-137.852 691.201,-132.299 680.685,-131.013 682.178,-137.852"/>
</g>
<!-- primitives/Move.ts&#45;&gt;primitives/Position.ts -->
<g id="edge25" class="edge"><title>primitives/Move.ts&#45;&gt;primitives/Position.ts</title>
<path fill="none" stroke="#757575" d="M603.549,-170.337C631.231,-179.882 670.701,-193.493 700.754,-203.856"/>
<polygon fill="#757575" stroke="#757575" points="699.959,-207.284 710.554,-207.235 702.241,-200.666 699.959,-207.284"/>
</g>
<!-- primitives/Piece.ts&#45;&gt;primitives/Side.ts -->
<g id="edge26" class="edge"><title>primitives/Piece.ts&#45;&gt;primitives/Side.ts</title>
<path fill="none" stroke="#757575" d="M811.048,-113.093C821.842,-111.819 833.086,-110.492 844.028,-109.201"/>
<polygon fill="#757575" stroke="#757575" points="844.449,-112.676 853.97,-108.028 843.628,-105.724 844.449,-112.676"/>
</g>
<!-- primitives/initialBoard.ts&#45;&gt;primitives/Board.ts -->
<g id="edge27" class="edge"><title>primitives/initialBoard.ts&#45;&gt;primitives/Board.ts</title>
<path fill="none" stroke="#757575" d="M409.986,-171.41C433.594,-182.333 470.052,-199.003 502,-212.768 510.851,-216.581 520.421,-220.572 529.456,-224.28"/>
<polygon fill="#757575" stroke="#757575" points="528.408,-227.632 538.989,-228.17 531.053,-221.151 528.408,-227.632"/>
</g>
<!-- primitives/initialGame.ts&#45;&gt;primitives/Game.ts -->
<g id="edge28" class="edge"><title>primitives/initialGame.ts&#45;&gt;primitives/Game.ts</title>
<path fill="none" stroke="#757575" d="M241.648,-147.252C264.901,-142.566 291.94,-137.118 316.105,-132.248"/>
<polygon fill="#757575" stroke="#757575" points="316.8,-135.679 325.912,-130.272 315.417,-128.816 316.8,-135.679"/>
</g>
<!-- primitives/initialGame.ts&#45;&gt;primitives/initialBoard.ts -->
<g id="edge29" class="edge"><title>primitives/initialGame.ts&#45;&gt;primitives/initialBoard.ts</title>
<path fill="none" stroke="#757575" d="M266.097,-159.179C274.459,-159.221 282.994,-159.264 291.454,-159.307"/>
<polygon fill="#757575" stroke="#757575" points="291.702,-162.808 301.72,-159.359 291.738,-155.808 291.702,-162.808"/>
</g>
<!-- primitives/validators.ts&#45;&gt;primitives/Board.ts -->
<g id="edge30" class="edge"><title>primitives/validators.ts&#45;&gt;primitives/Board.ts</title>
<path fill="none" stroke="#757575" d="M461.548,-239.768C471.507,-239.768 481.709,-239.768 491.664,-239.768"/>
<polygon fill="#757575" stroke="#757575" points="491.929,-243.268 501.929,-239.768 491.929,-236.268 491.929,-243.268"/>
</g>
</g>
</svg>
