<?xml version="1.0" encoding="UTF-8" standalone="no"?>
<!DOCTYPE svg PUBLIC "-//W3C//DTD SVG 1.1//EN"
 "http://www.w3.org/Graphics/SVG/1.1/DTD/svg11.dtd">
<!-- Generated by graphviz version 2.38.0 (20140413.2041)
 -->
<!-- Title: G Pages: 1 -->
<svg width="1094pt" height="511pt"
 viewBox="0.00 0.00 1094.20 510.58" xmlns="http://www.w3.org/2000/svg" xmlns:xlink="http://www.w3.org/1999/xlink">
<g id="graph0" class="graph" transform="scale(1 1) rotate(0) translate(21.6 488.98)">
<title>G</title>
<polygon fill="#111111" stroke="none" points="-21.6,21.6 -21.6,-488.98 1072.6,-488.98 1072.6,21.6 -21.6,21.6"/>
<!-- cli/showBoard.ts -->
<g id="node1" class="node"><title>cli/showBoard.ts</title>
<path fill="none" stroke="#c6c5fe" d="M508.333,-401.002C508.333,-401.002 403.667,-401.002 403.667,-401.002 399.833,-401.002 396,-397.169 396,-393.335 396,-393.335 396,-385.669 396,-385.669 396,-381.835 399.833,-378.002 403.667,-378.002 403.667,-378.002 508.333,-378.002 508.333,-378.002 512.167,-378.002 516,-381.835 516,-385.669 516,-385.669 516,-393.335 516,-393.335 516,-397.169 512.167,-401.002 508.333,-401.002"/>
<text text-anchor="middle" x="456" y="-385.802" font-family="Arial" font-size="14.00" fill="#c6c5fe">cli/showBoard.ts</text>
</g>
<!-- cli/strings.ts -->
<g id="node2" class="node"><title>cli/strings.ts</title>
<path fill="none" stroke="#cfffac" d="M678.833,-401.002C678.833,-401.002 603.167,-401.002 603.167,-401.002 599.333,-401.002 595.5,-397.169 595.5,-393.335 595.5,-393.335 595.5,-385.669 595.5,-385.669 595.5,-381.835 599.333,-378.002 603.167,-378.002 603.167,-378.002 678.833,-378.002 678.833,-378.002 682.667,-378.002 686.5,-381.835 686.5,-385.669 686.5,-385.669 686.5,-393.335 686.5,-393.335 686.5,-397.169 682.667,-401.002 678.833,-401.002"/>
<text text-anchor="middle" x="641" y="-385.802" font-family="Arial" font-size="14.00" fill="#cfffac">cli/strings.ts</text>
</g>
<!-- cli/showBoard.ts&#45;&gt;cli/strings.ts -->
<g id="edge1" class="edge"><title>cli/showBoard.ts&#45;&gt;cli/strings.ts</title>
<path fill="none" stroke="#757575" d="M516.162,-389.502C538.339,-389.502 563.424,-389.502 585.189,-389.502"/>
<polygon fill="#757575" stroke="#757575" points="585.256,-393.002 595.256,-389.502 585.256,-386.002 585.256,-393.002"/>
</g>
<!-- primitives/Board.ts -->
<g id="node3" class="node"><title>primitives/Board.ts</title>
<path fill="none" stroke="#c6c5fe" d="M700.333,-279.002C700.333,-279.002 581.667,-279.002 581.667,-279.002 577.833,-279.002 574,-275.169 574,-271.335 574,-271.335 574,-263.669 574,-263.669 574,-259.835 577.833,-256.002 581.667,-256.002 581.667,-256.002 700.333,-256.002 700.333,-256.002 704.167,-256.002 708,-259.835 708,-263.669 708,-263.669 708,-271.335 708,-271.335 708,-275.169 704.167,-279.002 700.333,-279.002"/>
<text text-anchor="middle" x="641" y="-263.802" font-family="Arial" font-size="14.00" fill="#c6c5fe">primitives/Board.ts</text>
</g>
<!-- cli/showBoard.ts&#45;&gt;primitives/Board.ts -->
<g id="edge2" class="edge"><title>cli/showBoard.ts&#45;&gt;primitives/Board.ts</title>
<path fill="none" stroke="#757575" d="M516.396,-378.01C523.914,-375.439 531.307,-372.308 538,-368.502 574.689,-347.638 607.477,-310.174 625.467,-287.207"/>
<polygon fill="#757575" stroke="#757575" points="628.313,-289.246 631.614,-279.179 622.756,-284.99 628.313,-289.246"/>
</g>
<!-- primitives/Piece.ts -->
<g id="node8" class="node"><title>primitives/Piece.ts</title>
<path fill="none" stroke="#c6c5fe" d="M875.333,-238.002C875.333,-238.002 758.667,-238.002 758.667,-238.002 754.833,-238.002 751,-234.169 751,-230.335 751,-230.335 751,-222.669 751,-222.669 751,-218.835 754.833,-215.002 758.667,-215.002 758.667,-215.002 875.333,-215.002 875.333,-215.002 879.167,-215.002 883,-218.835 883,-222.669 883,-222.669 883,-230.335 883,-230.335 883,-234.169 879.167,-238.002 875.333,-238.002"/>
<text text-anchor="middle" x="817" y="-222.802" font-family="Arial" font-size="14.00" fill="#c6c5fe">primitives/Piece.ts</text>
</g>
<!-- primitives/Board.ts&#45;&gt;primitives/Piece.ts -->
<g id="edge23" class="edge"><title>primitives/Board.ts&#45;&gt;primitives/Piece.ts</title>
<path fill="none" stroke="#757575" d="M690.932,-255.972C711.497,-251.126 735.598,-245.447 757.125,-240.375"/>
<polygon fill="#757575" stroke="#757575" points="758.204,-243.717 767.134,-238.016 756.598,-236.903 758.204,-243.717"/>
</g>
<!-- primitives/Position.ts -->
<g id="node9" class="node"><title>primitives/Position.ts</title>
<path fill="none" stroke="#cfffac" d="M882.333,-162.002C882.333,-162.002 751.667,-162.002 751.667,-162.002 747.833,-162.002 744,-158.169 744,-154.335 744,-154.335 744,-146.669 744,-146.669 744,-142.835 747.833,-139.002 751.667,-139.002 751.667,-139.002 882.333,-139.002 882.333,-139.002 886.167,-139.002 890,-142.835 890,-146.669 890,-146.669 890,-154.335 890,-154.335 890,-158.169 886.167,-162.002 882.333,-162.002"/>
<text text-anchor="middle" x="817" y="-146.802" font-family="Arial" font-size="14.00" fill="#cfffac">primitives/Position.ts</text>
</g>
<!-- primitives/Board.ts&#45;&gt;primitives/Position.ts -->
<g id="edge24" class="edge"><title>primitives/Board.ts&#45;&gt;primitives/Position.ts</title>
<path fill="none" stroke="#757575" d="M689.242,-255.962C695.81,-253.375 702.264,-250.253 708,-246.502 728.295,-233.23 726.278,-222.055 744,-205.502 758.565,-191.898 776.35,-178.288 790.599,-168.009"/>
<polygon fill="#757575" stroke="#757575" points="792.832,-170.717 798.954,-162.07 788.776,-165.011 792.832,-170.717"/>
</g>
<!-- index.ts -->
<g id="node4" class="node"><title>index.ts</title>
<path fill="none" stroke="#c6c5fe" d="M93.3333,-281.002C93.3333,-281.002 43.6667,-281.002 43.6667,-281.002 39.8333,-281.002 36,-277.169 36,-273.335 36,-273.335 36,-265.669 36,-265.669 36,-261.835 39.8333,-258.002 43.6667,-258.002 43.6667,-258.002 93.3333,-258.002 93.3333,-258.002 97.1667,-258.002 101,-261.835 101,-265.669 101,-265.669 101,-273.335 101,-273.335 101,-277.169 97.1667,-281.002 93.3333,-281.002"/>
<text text-anchor="middle" x="68.5" y="-265.802" font-family="Arial" font-size="14.00" fill="#c6c5fe">index.ts</text>
</g>
<!-- index.ts&#45;&gt;cli/showBoard.ts -->
<g id="edge3" class="edge"><title>index.ts&#45;&gt;cli/showBoard.ts</title>
<path fill="none" stroke="#757575" d="M77.8858,-281.129C93.7422,-302.071 130.378,-345.697 173,-364.502 240.768,-394.401 326.474,-397.762 385.514,-395.468"/>
<polygon fill="#757575" stroke="#757575" points="386.019,-398.949 395.85,-394.998 385.701,-391.956 386.019,-398.949"/>
</g>
<!-- index.ts&#45;&gt;primitives/Board.ts -->
<g id="edge5" class="edge"><title>index.ts&#45;&gt;primitives/Board.ts</title>
<path fill="none" stroke="#757575" d="M75.0043,-281.117C87.9257,-306.893 122.936,-368.638 173,-394.502 245.124,-431.762 465.768,-446.552 538,-409.502 551.009,-402.829 602.214,-325.766 626.751,-288.047"/>
<polygon fill="#757575" stroke="#757575" points="629.872,-289.667 632.375,-279.372 623.998,-285.859 629.872,-289.667"/>
</g>
<!-- play.ts -->
<g id="node5" class="node"><title>play.ts</title>
<path fill="none" stroke="#c6c5fe" d="M276.333,-321.002C276.333,-321.002 234.667,-321.002 234.667,-321.002 230.833,-321.002 227,-317.169 227,-313.335 227,-313.335 227,-305.669 227,-305.669 227,-301.835 230.833,-298.002 234.667,-298.002 234.667,-298.002 276.333,-298.002 276.333,-298.002 280.167,-298.002 284,-301.835 284,-305.669 284,-305.669 284,-313.335 284,-313.335 284,-317.169 280.167,-321.002 276.333,-321.002"/>
<text text-anchor="middle" x="255.5" y="-305.802" font-family="Arial" font-size="14.00" fill="#c6c5fe">play.ts</text>
</g>
<!-- index.ts&#45;&gt;play.ts -->
<g id="edge4" class="edge"><title>index.ts&#45;&gt;play.ts</title>
<path fill="none" stroke="#757575" d="M101.303,-276.378C133.322,-283.301 182.714,-293.981 216.713,-301.332"/>
<polygon fill="#757575" stroke="#757575" points="216.219,-304.806 226.733,-303.499 217.699,-297.964 216.219,-304.806"/>
</g>
<!-- primitives/Game.ts -->
<g id="node6" class="node"><title>primitives/Game.ts</title>
<path fill="none" stroke="#c6c5fe" d="M515.333,-124.002C515.333,-124.002 396.667,-124.002 396.667,-124.002 392.833,-124.002 389,-120.169 389,-116.335 389,-116.335 389,-108.669 389,-108.669 389,-104.835 392.833,-101.002 396.667,-101.002 396.667,-101.002 515.333,-101.002 515.333,-101.002 519.167,-101.002 523,-104.835 523,-108.669 523,-108.669 523,-116.335 523,-116.335 523,-120.169 519.167,-124.002 515.333,-124.002"/>
<text text-anchor="middle" x="456" y="-108.802" font-family="Arial" font-size="14.00" fill="#c6c5fe">primitives/Game.ts</text>
</g>
<!-- index.ts&#45;&gt;primitives/Game.ts -->
<g id="edge6" class="edge"><title>index.ts&#45;&gt;primitives/Game.ts</title>
<path fill="none" stroke="#757575" d="M89.5593,-257.87C110.013,-246.385 142.923,-228.929 173,-217.502 243.948,-190.547 271.984,-210.947 338,-173.502 357.41,-162.492 354.871,-149.994 374,-138.502 381.021,-134.285 388.8,-130.674 396.681,-127.606"/>
<polygon fill="#757575" stroke="#757575" points="398.085,-130.82 406.299,-124.128 395.705,-124.237 398.085,-130.82"/>
</g>
<!-- primitives/Move.ts -->
<g id="node7" class="node"><title>primitives/Move.ts</title>
<path fill="none" stroke="#c6c5fe" d="M698.333,-238.002C698.333,-238.002 583.667,-238.002 583.667,-238.002 579.833,-238.002 576,-234.169 576,-230.335 576,-230.335 576,-222.669 576,-222.669 576,-218.835 579.833,-215.002 583.667,-215.002 583.667,-215.002 698.333,-215.002 698.333,-215.002 702.167,-215.002 706,-218.835 706,-222.669 706,-222.669 706,-230.335 706,-230.335 706,-234.169 702.167,-238.002 698.333,-238.002"/>
<text text-anchor="middle" x="641" y="-222.802" font-family="Arial" font-size="14.00" fill="#c6c5fe">primitives/Move.ts</text>
</g>
<!-- index.ts&#45;&gt;primitives/Move.ts -->
<g id="edge7" class="edge"><title>index.ts&#45;&gt;primitives/Move.ts</title>
<path fill="none" stroke="#757575" d="M101.118,-261.733C121.566,-256.817 148.788,-250.474 173,-245.502 332.677,-212.711 375.546,-196.057 538,-209.502 548.753,-210.392 560.079,-211.801 571.116,-213.437"/>
<polygon fill="#757575" stroke="#757575" points="570.728,-216.918 581.147,-214.994 571.802,-210.001 570.728,-216.918"/>
</g>
<!-- index.ts&#45;&gt;primitives/Piece.ts -->
<g id="edge8" class="edge"><title>index.ts&#45;&gt;primitives/Piece.ts</title>
<path fill="none" stroke="#757575" d="M73.0999,-281.347C83.1038,-311.928 114.433,-393.444 173,-426.502 314.305,-506.262 376.171,-446.338 538,-434.502 614.165,-428.932 644.62,-452.106 708,-409.502 766.615,-370.101 797.961,-287.286 810.043,-248.026"/>
<polygon fill="#757575" stroke="#757575" points="813.412,-248.974 812.886,-238.393 806.698,-246.993 813.412,-248.974"/>
</g>
<!-- index.ts&#45;&gt;primitives/Position.ts -->
<g id="edge9" class="edge"><title>index.ts&#45;&gt;primitives/Position.ts</title>
<path fill="none" stroke="#757575" d="M74.7608,-257.673C87.4168,-230.689 122.315,-164.456 173,-132.502 250.125,-83.8786 283.288,-100.66 374,-91.5021 522.329,-76.5283 562.415,-90.4013 708,-122.502 726.421,-126.564 746.456,-131.587 764.212,-136.253"/>
<polygon fill="#757575" stroke="#757575" points="763.81,-139.768 774.373,-138.949 765.605,-133.002 763.81,-139.768"/>
</g>
<!-- primitives/initialBoard.ts -->
<g id="node10" class="node"><title>primitives/initialBoard.ts</title>
<path fill="none" stroke="#c6c5fe" d="M530.333,-242.002C530.333,-242.002 381.667,-242.002 381.667,-242.002 377.833,-242.002 374,-238.169 374,-234.335 374,-234.335 374,-226.669 374,-226.669 374,-222.835 377.833,-219.002 381.667,-219.002 381.667,-219.002 530.333,-219.002 530.333,-219.002 534.167,-219.002 538,-222.835 538,-226.669 538,-226.669 538,-234.335 538,-234.335 538,-238.169 534.167,-242.002 530.333,-242.002"/>
<text text-anchor="middle" x="456" y="-226.802" font-family="Arial" font-size="14.00" fill="#c6c5fe">primitives/initialBoard.ts</text>
</g>
<!-- index.ts&#45;&gt;primitives/initialBoard.ts -->
<g id="edge10" class="edge"><title>index.ts&#45;&gt;primitives/initialBoard.ts</title>
<path fill="none" stroke="#757575" d="M101.365,-267.052C151.688,-263.092 252.625,-254.787 338,-245.502 346.341,-244.595 355.008,-243.594 363.685,-242.553"/>
<polygon fill="#757575" stroke="#757575" points="364.351,-245.997 373.855,-241.315 363.505,-239.049 364.351,-245.997"/>
</g>
<!-- primitives/initialGame.ts -->
<g id="node11" class="node"><title>primitives/initialGame.ts</title>
<path fill="none" stroke="#c6c5fe" d="M330.333,-165.002C330.333,-165.002 180.667,-165.002 180.667,-165.002 176.833,-165.002 173,-161.169 173,-157.335 173,-157.335 173,-149.669 173,-149.669 173,-145.835 176.833,-142.002 180.667,-142.002 180.667,-142.002 330.333,-142.002 330.333,-142.002 334.167,-142.002 338,-145.835 338,-149.669 338,-149.669 338,-157.335 338,-157.335 338,-161.169 334.167,-165.002 330.333,-165.002"/>
<text text-anchor="middle" x="255.5" y="-149.802" font-family="Arial" font-size="14.00" fill="#c6c5fe">primitives/initialGame.ts</text>
</g>
<!-- index.ts&#45;&gt;primitives/initialGame.ts -->
<g id="edge11" class="edge"><title>index.ts&#45;&gt;primitives/initialGame.ts</title>
<path fill="none" stroke="#757575" d="M79.8242,-257.864C97.251,-238.885 134.395,-201.212 173,-179.502 180.619,-175.218 189.041,-171.529 197.496,-168.389"/>
<polygon fill="#757575" stroke="#757575" points="198.722,-171.668 207.014,-165.074 196.419,-165.058 198.722,-171.668"/>
</g>
<!-- play.ts&#45;&gt;cli/showBoard.ts -->
<g id="edge18" class="edge"><title>play.ts&#45;&gt;cli/showBoard.ts</title>
<path fill="none" stroke="#757575" d="M284.097,-315.649C300.461,-320.008 321.216,-326.819 338,-336.502 356.543,-347.2 355.113,-358.424 374,-368.502 378.186,-370.736 382.621,-372.741 387.175,-374.54"/>
<polygon fill="#757575" stroke="#757575" points="386.053,-377.856 396.647,-377.95 388.424,-371.269 386.053,-377.856"/>
</g>
<!-- play.ts&#45;&gt;primitives/Board.ts -->
<g id="edge19" class="edge"><title>play.ts&#45;&gt;primitives/Board.ts</title>
<path fill="none" stroke="#757575" d="M284.146,-307.752C334.676,-304.397 445.284,-296.328 538,-284.502 546.893,-283.368 556.198,-282.029 565.415,-280.609"/>
<polygon fill="#757575" stroke="#757575" points="566.026,-284.056 575.36,-279.042 564.937,-277.141 566.026,-284.056"/>
</g>
<!-- play.ts&#45;&gt;primitives/Move.ts -->
<g id="edge20" class="edge"><title>play.ts&#45;&gt;primitives/Move.ts</title>
<path fill="none" stroke="#757575" d="M284.031,-303.602C307.838,-298.51 343.18,-290.976 374,-284.502 446.849,-269.201 465.319,-266.584 538,-250.502 552.36,-247.325 567.822,-243.761 582.259,-240.371"/>
<polygon fill="#757575" stroke="#757575" points="583.133,-243.761 592.063,-238.059 581.527,-236.948 583.133,-243.761"/>
</g>
<!-- play.ts&#45;&gt;primitives/initialBoard.ts -->
<g id="edge21" class="edge"><title>play.ts&#45;&gt;primitives/initialBoard.ts</title>
<path fill="none" stroke="#757575" d="M284.2,-303.138C300.411,-298.817 320.972,-292.284 338,-283.502 355.775,-274.335 356.233,-265.685 374,-256.502 382.19,-252.269 391.202,-248.554 400.148,-245.357"/>
<polygon fill="#757575" stroke="#757575" points="401.44,-248.615 409.787,-242.091 399.193,-241.985 401.44,-248.615"/>
</g>
<!-- primitives/validators.ts -->
<g id="node13" class="node"><title>primitives/validators.ts</title>
<path fill="none" stroke="#c6c5fe" d="M525.833,-360.002C525.833,-360.002 386.167,-360.002 386.167,-360.002 382.333,-360.002 378.5,-356.169 378.5,-352.335 378.5,-352.335 378.5,-344.669 378.5,-344.669 378.5,-340.835 382.333,-337.002 386.167,-337.002 386.167,-337.002 525.833,-337.002 525.833,-337.002 529.667,-337.002 533.5,-340.835 533.5,-344.669 533.5,-344.669 533.5,-352.335 533.5,-352.335 533.5,-356.169 529.667,-360.002 525.833,-360.002"/>
<text text-anchor="middle" x="456" y="-344.802" font-family="Arial" font-size="14.00" fill="#c6c5fe">primitives/validators.ts</text>
</g>
<!-- play.ts&#45;&gt;primitives/validators.ts -->
<g id="edge22" class="edge"><title>play.ts&#45;&gt;primitives/validators.ts</title>
<path fill="none" stroke="#757575" d="M284.101,-314.925C310.376,-320.087 350.997,-328.068 386.044,-334.954"/>
<polygon fill="#757575" stroke="#757575" points="385.754,-338.464 396.241,-336.958 387.103,-331.595 385.754,-338.464"/>
</g>
<!-- primitives/Game.ts&#45;&gt;primitives/Board.ts -->
<g id="edge25" class="edge"><title>primitives/Game.ts&#45;&gt;primitives/Board.ts</title>
<path fill="none" stroke="#757575" d="M475.95,-124.065C493.706,-135.626 520.12,-154.775 538,-176.502 560.23,-203.516 547.286,-223.913 574,-246.502 575.968,-248.167 578.07,-249.699 580.268,-251.111"/>
<polygon fill="#757575" stroke="#757575" points="578.701,-254.243 589.153,-255.978 582.064,-248.104 578.701,-254.243"/>
</g>
<!-- primitives/Game.ts&#45;&gt;primitives/Move.ts -->
<g id="edge26" class="edge"><title>primitives/Game.ts&#45;&gt;primitives/Move.ts</title>
<path fill="none" stroke="#757575" d="M512.076,-124.109C521.344,-127.702 530.406,-132.391 538,-138.502 562.823,-158.48 549.836,-179.732 574,-200.502 578.487,-204.359 583.615,-207.684 588.985,-210.541"/>
<polygon fill="#757575" stroke="#757575" points="587.646,-213.78 598.18,-214.918 590.655,-207.46 587.646,-213.78"/>
</g>
<!-- primitives/Game.ts&#45;&gt;primitives/Piece.ts -->
<g id="edge27" class="edge"><title>primitives/Game.ts&#45;&gt;primitives/Piece.ts</title>
<path fill="none" stroke="#757575" d="M493.398,-124.06C559.2,-144.956 697.808,-188.97 770.036,-211.906"/>
<polygon fill="#757575" stroke="#757575" points="769.182,-215.307 779.772,-214.998 771.301,-208.636 769.182,-215.307"/>
</g>
<!-- primitives/Game.ts&#45;&gt;primitives/Position.ts -->
<g id="edge28" class="edge"><title>primitives/Game.ts&#45;&gt;primitives/Position.ts</title>
<path fill="none" stroke="#757575" d="M523.265,-119.516C582.689,-125.806 670.098,-135.058 733.927,-141.815"/>
<polygon fill="#757575" stroke="#757575" points="733.648,-145.305 743.961,-142.877 734.385,-138.344 733.648,-145.305"/>
</g>
<!-- primitives/Side.ts -->
<g id="node14" class="node"><title>primitives/Side.ts</title>
<path fill="none" stroke="#cfffac" d="M1043.33,-180.002C1043.33,-180.002 933.667,-180.002 933.667,-180.002 929.833,-180.002 926,-176.169 926,-172.335 926,-172.335 926,-164.669 926,-164.669 926,-160.835 929.833,-157.002 933.667,-157.002 933.667,-157.002 1043.33,-157.002 1043.33,-157.002 1047.17,-157.002 1051,-160.835 1051,-164.669 1051,-164.669 1051,-172.335 1051,-172.335 1051,-176.169 1047.17,-180.002 1043.33,-180.002"/>
<text text-anchor="middle" x="988.5" y="-164.802" font-family="Arial" font-size="14.00" fill="#cfffac">primitives/Side.ts</text>
</g>
<!-- primitives/Game.ts&#45;&gt;primitives/Side.ts -->
<g id="edge29" class="edge"><title>primitives/Game.ts&#45;&gt;primitives/Side.ts</title>
<path fill="none" stroke="#757575" d="M523.148,-108.188C608.83,-104.167 762.337,-102.309 890,-129.502 912.776,-134.354 937.098,-144.073 955.751,-152.595"/>
<polygon fill="#757575" stroke="#757575" points="954.412,-155.833 964.951,-156.91 957.384,-149.495 954.412,-155.833"/>
</g>
<!-- primitives/Move.ts&#45;&gt;primitives/Piece.ts -->
<g id="edge30" class="edge"><title>primitives/Move.ts&#45;&gt;primitives/Piece.ts</title>
<path fill="none" stroke="#757575" d="M706.297,-226.502C717.528,-226.502 729.302,-226.502 740.796,-226.502"/>
<polygon fill="#757575" stroke="#757575" points="740.805,-230.002 750.805,-226.502 740.805,-223.002 740.805,-230.002"/>
</g>
<!-- primitives/Move.ts&#45;&gt;primitives/Position.ts -->
<g id="edge31" class="edge"><title>primitives/Move.ts&#45;&gt;primitives/Position.ts</title>
<path fill="none" stroke="#757575" d="M668.427,-214.959C698.279,-201.92 747.021,-180.631 780.255,-166.115"/>
<polygon fill="#757575" stroke="#757575" points="781.847,-169.239 789.61,-162.029 779.045,-162.824 781.847,-169.239"/>
</g>
<!-- primitives/Piece.ts&#45;&gt;primitives/Side.ts -->
<g id="edge32" class="edge"><title>primitives/Piece.ts&#45;&gt;primitives/Side.ts</title>
<path fill="none" stroke="#757575" d="M851.893,-214.904C878.338,-205.855 915.266,-193.219 943.91,-183.418"/>
<polygon fill="#757575" stroke="#757575" points="945.337,-186.629 953.665,-180.08 943.071,-180.006 945.337,-186.629"/>
</g>
<!-- primitives/initialBoard.ts&#45;&gt;primitives/Board.ts -->
<g id="edge33" class="edge"><title>primitives/initialBoard.ts&#45;&gt;primitives/Board.ts</title>
<path fill="none" stroke="#757575" d="M513.899,-242.006C532.573,-245.782 553.501,-250.013 572.861,-253.928"/>
<polygon fill="#757575" stroke="#757575" points="572.326,-257.39 582.821,-255.941 573.713,-250.529 572.326,-257.39"/>
</g>
<!-- primitives/initialGame.ts&#45;&gt;primitives/Game.ts -->
<g id="edge34" class="edge"><title>primitives/initialGame.ts&#45;&gt;primitives/Game.ts</title>
<path fill="none" stroke="#757575" d="M312.322,-141.972C336.208,-137.039 364.274,-131.242 389.165,-126.1"/>
<polygon fill="#757575" stroke="#757575" points="390.169,-129.467 399.254,-124.016 388.753,-122.612 390.169,-129.467"/>
</g>
<!-- primitives/initialGame.ts&#45;&gt;primitives/initialBoard.ts -->
<g id="edge35" class="edge"><title>primitives/initialGame.ts&#45;&gt;primitives/initialBoard.ts</title>
<path fill="none" stroke="#757575" d="M281.418,-165.173C305.003,-176.015 341.533,-192.28 374,-204.502 384.477,-208.446 395.85,-212.334 406.671,-215.853"/>
<polygon fill="#757575" stroke="#757575" points="405.821,-219.256 416.412,-218.972 407.956,-212.589 405.821,-219.256"/>
</g>
<!-- interactiveMoves.ts -->
<g id="node12" class="node"><title>interactiveMoves.ts</title>
<path fill="none" stroke="#c6c5fe" d="M129.333,-87.0021C129.333,-87.0021 7.66667,-87.0021 7.66667,-87.0021 3.83333,-87.0021 0,-83.1688 0,-79.3355 0,-79.3355 0,-71.6688 0,-71.6688 0,-67.8355 3.83333,-64.0021 7.66667,-64.0021 7.66667,-64.0021 129.333,-64.0021 129.333,-64.0021 133.167,-64.0021 137,-67.8355 137,-71.6688 137,-71.6688 137,-79.3355 137,-79.3355 137,-83.1688 133.167,-87.0021 129.333,-87.0021"/>
<text text-anchor="middle" x="68.5" y="-71.8021" font-family="Arial" font-size="14.00" fill="#c6c5fe">interactiveMoves.ts</text>
</g>
<!-- interactiveMoves.ts&#45;&gt;cli/showBoard.ts -->
<g id="edge12" class="edge"><title>interactiveMoves.ts&#45;&gt;cli/showBoard.ts</title>
<path fill="none" stroke="#757575" d="M74.0922,-87.1942C93.4861,-136.517 167.92,-325.254 173,-329.502 230.508,-377.592 264.678,-348.892 338,-364.502 355.237,-368.172 373.901,-372.155 391.152,-375.841"/>
<polygon fill="#757575" stroke="#757575" points="390.614,-379.305 401.124,-377.973 392.077,-372.46 390.614,-379.305"/>
</g>
<!-- interactiveMoves.ts&#45;&gt;primitives/Board.ts -->
<g id="edge13" class="edge"><title>interactiveMoves.ts&#45;&gt;primitives/Board.ts</title>
<path fill="none" stroke="#757575" d="M117.874,-87.0405C135.233,-91.096 154.97,-95.6096 173,-99.5021 338.613,-135.256 396.586,-116.184 538,-209.502 557.15,-222.139 554.483,-234.44 574,-246.502 577.206,-248.484 580.616,-250.295 584.133,-251.947"/>
<polygon fill="#757575" stroke="#757575" points="583.049,-255.289 593.622,-255.96 585.775,-248.842 583.049,-255.289"/>
</g>
<!-- interactiveMoves.ts&#45;&gt;primitives/Game.ts -->
<g id="edge14" class="edge"><title>interactiveMoves.ts&#45;&gt;primitives/Game.ts</title>
<path fill="none" stroke="#757575" d="M137.126,-81.1417C191.442,-85.7691 269.663,-92.6523 338,-99.5021 351.126,-100.818 365.071,-102.297 378.587,-103.772"/>
<polygon fill="#757575" stroke="#757575" points="378.497,-107.283 388.819,-104.898 379.262,-100.325 378.497,-107.283"/>
</g>
<!-- interactiveMoves.ts&#45;&gt;primitives/Move.ts -->
<g id="edge15" class="edge"><title>interactiveMoves.ts&#45;&gt;primitives/Move.ts</title>
<path fill="none" stroke="#757575" d="M118.553,-63.9356C207.948,-45.5953 400.797,-18.8733 538,-91.5021 585.117,-116.444 616.692,-173.869 631.081,-205.186"/>
<polygon fill="#757575" stroke="#757575" points="628.053,-206.993 635.3,-214.722 634.454,-204.161 628.053,-206.993"/>
</g>
<!-- interactiveMoves.ts&#45;&gt;primitives/Position.ts -->
<g id="edge16" class="edge"><title>interactiveMoves.ts&#45;&gt;primitives/Position.ts</title>
<path fill="none" stroke="#757575" d="M95.6942,-63.9861C116.261,-55.6024 145.861,-44.9667 173,-40.5021 407.757,-1.88313 488.572,33.4409 708,-58.5021 746.273,-74.539 780.946,-109.314 800.181,-131.218"/>
<polygon fill="#757575" stroke="#757575" points="797.61,-133.597 806.773,-138.917 802.928,-129.044 797.61,-133.597"/>
</g>
<!-- interactiveMoves.ts&#45;&gt;primitives/initialGame.ts -->
<g id="edge17" class="edge"><title>interactiveMoves.ts&#45;&gt;primitives/initialGame.ts</title>
<path fill="none" stroke="#757575" d="M90.0659,-87.0416C110.638,-98.2937 143.393,-115.429 173,-127.502 182.901,-131.539 193.678,-135.362 204.056,-138.772"/>
<polygon fill="#757575" stroke="#757575" points="203.252,-142.189 213.843,-141.908 205.388,-135.523 203.252,-142.189"/>
</g>
<!-- primitives/validators.ts&#45;&gt;primitives/Board.ts -->
<g id="edge36" class="edge"><title>primitives/validators.ts&#45;&gt;primitives/Board.ts</title>
<path fill="none" stroke="#757575" d="M497.912,-336.979C510.913,-332.891 525.227,-327.941 538,-322.502 564.004,-311.429 592.185,-295.946 612.322,-284.228"/>
<polygon fill="#757575" stroke="#757575" points="614.128,-287.226 620.971,-279.138 610.578,-281.193 614.128,-287.226"/>
</g>
</g>
</svg>
